G04 #@! TF.GenerationSoftware,KiCad,Pcbnew,8.0.6-8.0.6-0~ubuntu24.04.1*
G04 #@! TF.CreationDate,2024-10-23T13:15:13+03:00*
G04 #@! TF.ProjectId,imager_ILI9431,696d6167-6572-45f4-994c-49393433312e,rev?*
G04 #@! TF.SameCoordinates,Original*
G04 #@! TF.FileFunction,Copper,L2,Bot*
G04 #@! TF.FilePolarity,Positive*
%FSLAX46Y46*%
G04 Gerber Fmt 4.6, Leading zero omitted, Abs format (unit mm)*
G04 Created by KiCad (PCBNEW 8.0.6-8.0.6-0~ubuntu24.04.1) date 2024-10-23 13:15:13*
%MOMM*%
%LPD*%
G01*
G04 APERTURE LIST*
G04 Aperture macros list*
%AMRoundRect*
0 Rectangle with rounded corners*
0 $1 Rounding radius*
0 $2 $3 $4 $5 $6 $7 $8 $9 X,Y pos of 4 corners*
0 Add a 4 corners polygon primitive as box body*
4,1,4,$2,$3,$4,$5,$6,$7,$8,$9,$2,$3,0*
0 Add four circle primitives for the rounded corners*
1,1,$1+$1,$2,$3*
1,1,$1+$1,$4,$5*
1,1,$1+$1,$6,$7*
1,1,$1+$1,$8,$9*
0 Add four rect primitives between the rounded corners*
20,1,$1+$1,$2,$3,$4,$5,0*
20,1,$1+$1,$4,$5,$6,$7,0*
20,1,$1+$1,$6,$7,$8,$9,0*
20,1,$1+$1,$8,$9,$2,$3,0*%
G04 Aperture macros list end*
G04 #@! TA.AperFunction,ComponentPad*
%ADD10R,1.700000X1.700000*%
G04 #@! TD*
G04 #@! TA.AperFunction,ComponentPad*
%ADD11O,1.700000X1.700000*%
G04 #@! TD*
G04 #@! TA.AperFunction,SMDPad,CuDef*
%ADD12RoundRect,0.150000X0.150000X-0.587500X0.150000X0.587500X-0.150000X0.587500X-0.150000X-0.587500X0*%
G04 #@! TD*
G04 #@! TA.AperFunction,SMDPad,CuDef*
%ADD13RoundRect,0.140000X-0.170000X0.140000X-0.170000X-0.140000X0.170000X-0.140000X0.170000X0.140000X0*%
G04 #@! TD*
G04 #@! TA.AperFunction,SMDPad,CuDef*
%ADD14RoundRect,0.140000X0.170000X-0.140000X0.170000X0.140000X-0.170000X0.140000X-0.170000X-0.140000X0*%
G04 #@! TD*
G04 #@! TA.AperFunction,SMDPad,CuDef*
%ADD15R,0.550000X1.500000*%
G04 #@! TD*
G04 #@! TA.AperFunction,SMDPad,CuDef*
%ADD16RoundRect,0.160000X0.160000X-0.197500X0.160000X0.197500X-0.160000X0.197500X-0.160000X-0.197500X0*%
G04 #@! TD*
G04 #@! TA.AperFunction,SMDPad,CuDef*
%ADD17RoundRect,0.140000X-0.140000X-0.170000X0.140000X-0.170000X0.140000X0.170000X-0.140000X0.170000X0*%
G04 #@! TD*
G04 #@! TA.AperFunction,ViaPad*
%ADD18C,0.600000*%
G04 #@! TD*
G04 #@! TA.AperFunction,Conductor*
%ADD19C,0.600000*%
G04 #@! TD*
G04 #@! TA.AperFunction,Conductor*
%ADD20C,0.500000*%
G04 #@! TD*
G04 APERTURE END LIST*
D10*
X94530000Y-112675000D03*
D11*
X94530000Y-115215000D03*
D10*
X113370000Y-109945000D03*
D11*
X113370000Y-112485000D03*
D10*
X98180000Y-116090000D03*
D11*
X100720000Y-116090000D03*
X103260000Y-116090000D03*
X105800000Y-116090000D03*
X108340000Y-116090000D03*
X110880000Y-116090000D03*
X113420000Y-116090000D03*
D10*
X100730000Y-112520000D03*
D11*
X98190000Y-112520000D03*
D10*
X113300000Y-94280000D03*
D11*
X113300000Y-96820000D03*
X113300000Y-99360000D03*
X113300000Y-101900000D03*
D12*
X109402500Y-112297500D03*
X107502500Y-112297500D03*
X108452500Y-110422500D03*
D13*
X110900000Y-110000000D03*
X110900000Y-110960000D03*
D14*
X104970000Y-112300000D03*
X104970000Y-111340000D03*
X106050000Y-112290000D03*
X106050000Y-111330000D03*
D15*
X107430000Y-99610000D03*
X104180000Y-99610000D03*
D16*
X104180000Y-103777500D03*
X104180000Y-102582500D03*
D17*
X104190000Y-101420000D03*
X105150000Y-101420000D03*
D18*
X96600000Y-103520000D03*
X107500000Y-109375000D03*
X110990000Y-98700000D03*
X96610000Y-99560000D03*
X101020000Y-96020000D03*
X107550000Y-95100000D03*
X97025000Y-104575000D03*
X96925000Y-114300000D03*
X95500000Y-106750000D03*
X101450000Y-95100000D03*
X107450000Y-113875000D03*
X114200000Y-107875000D03*
X100000000Y-97450000D03*
X98300000Y-109475000D03*
X96875000Y-105425000D03*
X102525000Y-111400000D03*
X107025000Y-110875000D03*
X95200000Y-99625000D03*
X100400000Y-95150000D03*
X113950000Y-114225000D03*
X95900000Y-98900000D03*
X109700000Y-93375000D03*
X97450000Y-105950000D03*
X106450000Y-95125000D03*
X109675000Y-113750000D03*
X111375000Y-93175000D03*
X109125000Y-98325000D03*
X96375000Y-115075000D03*
X99475000Y-98075000D03*
X98050000Y-96775000D03*
X101125000Y-114075000D03*
X94700000Y-104250000D03*
X97300000Y-97450000D03*
X110550000Y-108150000D03*
X97950000Y-114150000D03*
X112700000Y-114225000D03*
X104750000Y-113550000D03*
X100800000Y-96975000D03*
X113350000Y-107825000D03*
X111475000Y-107975000D03*
X104325000Y-95125000D03*
X109625000Y-108325000D03*
X108700000Y-108500000D03*
X110475000Y-95200000D03*
X108450000Y-97500000D03*
X108375000Y-94525000D03*
X112450000Y-107850000D03*
X109050000Y-93900000D03*
X102375000Y-95075000D03*
X110300000Y-96775000D03*
X96800000Y-108350000D03*
X103300000Y-95075000D03*
X110850000Y-112275000D03*
X111125000Y-97450000D03*
X105400000Y-95075000D03*
X111400000Y-95200000D03*
X96550000Y-98200000D03*
X96150000Y-107475000D03*
X110575000Y-93425000D03*
X101900000Y-110900000D03*
X99400000Y-95425000D03*
X111725000Y-113300000D03*
X94750000Y-105075000D03*
X98750000Y-96075000D03*
X97600000Y-108800000D03*
X94825000Y-106050000D03*
X102980000Y-102580000D03*
D19*
X95620000Y-105480000D02*
X95620000Y-104500000D01*
X100120000Y-109980000D02*
X95620000Y-105480000D01*
X107500000Y-107220000D02*
X104180000Y-103900000D01*
X104180000Y-103900000D02*
X104180000Y-103777500D01*
X101020000Y-96020000D02*
X108310000Y-96020000D01*
X107500000Y-109375000D02*
X107500000Y-107220000D01*
X96610000Y-99560000D02*
X95620000Y-100550000D01*
D20*
X102340001Y-109980000D02*
X102300000Y-109980000D01*
D19*
X100120000Y-109980000D02*
X100120000Y-110590000D01*
X97225000Y-112520000D02*
X94530000Y-115215000D01*
X108310000Y-96020000D02*
X110050000Y-94280000D01*
X100420000Y-114750000D02*
X98190000Y-112520000D01*
X102300000Y-109980000D02*
X100120000Y-109980000D01*
X100150000Y-96020000D02*
X101020000Y-96020000D01*
X107500000Y-109400000D02*
X107500000Y-109375000D01*
X95620000Y-104500000D02*
X96600000Y-103520000D01*
D20*
X104660001Y-112300000D02*
X102340001Y-109980000D01*
D19*
X100720000Y-116090000D02*
X100720000Y-115045000D01*
X106920000Y-109980000D02*
X107500000Y-109400000D01*
X100425000Y-114750000D02*
X100420000Y-114750000D01*
X96610000Y-99560000D02*
X100150000Y-96020000D01*
X110050000Y-94280000D02*
X113300000Y-94280000D01*
X108310000Y-96020000D02*
X110990000Y-98700000D01*
X100720000Y-115045000D02*
X100425000Y-114750000D01*
X100120000Y-110590000D02*
X98190000Y-112520000D01*
X95620000Y-100550000D02*
X95620000Y-104500000D01*
X102300000Y-109980000D02*
X106920000Y-109980000D01*
X98190000Y-112520000D02*
X97225000Y-112520000D01*
D20*
X104970000Y-112300000D02*
X104660001Y-112300000D01*
D19*
X113370000Y-109945000D02*
X113315000Y-110000000D01*
D20*
X104177500Y-102580000D02*
X104180000Y-102582500D01*
X104180000Y-101430000D02*
X104190000Y-101420000D01*
X104180000Y-102582500D02*
X104180000Y-101430000D01*
X104190000Y-99620000D02*
X104180000Y-99610000D01*
X102980000Y-102580000D02*
X104177500Y-102580000D01*
X104190000Y-101420000D02*
X104190000Y-99620000D01*
G04 #@! TA.AperFunction,Conductor*
G36*
X107566307Y-111375603D02*
G01*
X107682305Y-111393975D01*
X107696885Y-111398713D01*
X107798046Y-111450257D01*
X107810449Y-111459268D01*
X107890731Y-111539550D01*
X107899742Y-111551953D01*
X107951286Y-111653114D01*
X107956024Y-111667693D01*
X107974397Y-111783691D01*
X107975000Y-111791357D01*
X107975000Y-112733642D01*
X107974397Y-112741308D01*
X107952353Y-112880482D01*
X107947615Y-112895061D01*
X107885418Y-113017130D01*
X107876407Y-113029533D01*
X107779533Y-113126407D01*
X107767130Y-113135418D01*
X107645061Y-113197615D01*
X107630482Y-113202353D01*
X107509400Y-113221531D01*
X107491306Y-113224397D01*
X107483642Y-113225000D01*
X107335279Y-113225000D01*
X107330400Y-113224756D01*
X107123914Y-113204093D01*
X107114349Y-113202160D01*
X106918386Y-113141711D01*
X106909395Y-113137920D01*
X106888254Y-113126407D01*
X106725000Y-113037500D01*
X106450000Y-112850000D01*
X106117162Y-112850000D01*
X106117155Y-112850000D01*
X104940713Y-112850000D01*
X104934317Y-112849581D01*
X104811250Y-112833378D01*
X104798895Y-112830067D01*
X104687208Y-112783805D01*
X104676130Y-112777409D01*
X104624119Y-112737500D01*
X104580222Y-112703816D01*
X104571183Y-112694777D01*
X104497590Y-112598869D01*
X104491194Y-112587791D01*
X104444932Y-112476104D01*
X104441621Y-112463749D01*
X104425842Y-112343896D01*
X104425842Y-112331104D01*
X104441621Y-112211250D01*
X104444932Y-112198895D01*
X104491194Y-112087208D01*
X104497587Y-112076133D01*
X104571186Y-111980218D01*
X104580218Y-111971186D01*
X104676133Y-111897587D01*
X104687208Y-111891194D01*
X104798895Y-111844932D01*
X104811249Y-111841621D01*
X104934317Y-111825418D01*
X104940713Y-111825000D01*
X106244683Y-111825000D01*
X106600000Y-111825000D01*
X106875000Y-111600000D01*
X107061230Y-111480253D01*
X107071250Y-111475324D01*
X107274478Y-111402779D01*
X107285356Y-111400248D01*
X107502529Y-111375319D01*
X107508117Y-111375000D01*
X107558642Y-111375000D01*
X107566307Y-111375603D01*
G37*
G04 #@! TD.AperFunction*
G04 #@! TA.AperFunction,Conductor*
G36*
X95525801Y-113806639D02*
G01*
X95938360Y-114219198D01*
X95941787Y-114227471D01*
X95940642Y-114232518D01*
X95320077Y-115530285D01*
X95313417Y-115536271D01*
X95305056Y-115536052D01*
X94533784Y-115217561D01*
X94527447Y-115211238D01*
X94208947Y-114439940D01*
X94208956Y-114430988D01*
X94214712Y-114424923D01*
X95512483Y-113804356D01*
X95521423Y-113803879D01*
X95525801Y-113806639D01*
G37*
G04 #@! TD.AperFunction*
G04 #@! TA.AperFunction,Conductor*
G36*
X104428155Y-101908427D02*
G01*
X104431460Y-101915012D01*
X104498893Y-102377412D01*
X104496695Y-102386093D01*
X104493482Y-102389042D01*
X104186167Y-102579674D01*
X104177331Y-102581123D01*
X104173833Y-102579674D01*
X103866517Y-102389042D01*
X103861293Y-102381769D01*
X103861106Y-102377415D01*
X103928540Y-101915012D01*
X103933125Y-101907320D01*
X103940118Y-101905000D01*
X104419882Y-101905000D01*
X104428155Y-101908427D01*
G37*
G04 #@! TD.AperFunction*
G04 #@! TA.AperFunction,Conductor*
G36*
X103924312Y-102264624D02*
G01*
X103926736Y-102266885D01*
X103985470Y-102339790D01*
X104175033Y-102575093D01*
X104177555Y-102583685D01*
X104174968Y-102589853D01*
X103923750Y-102896119D01*
X103915854Y-102900342D01*
X103912537Y-102900197D01*
X103549533Y-102831796D01*
X103542038Y-102826896D01*
X103540000Y-102820298D01*
X103540000Y-102339790D01*
X103543427Y-102331517D01*
X103549635Y-102328273D01*
X103915566Y-102262710D01*
X103924312Y-102264624D01*
G37*
G04 #@! TD.AperFunction*
G04 #@! TA.AperFunction,Conductor*
G36*
X104196228Y-101423199D02*
G01*
X104461141Y-101601807D01*
X104466085Y-101609273D01*
X104466252Y-101612571D01*
X104430970Y-101999363D01*
X104426805Y-102007290D01*
X104419318Y-102010000D01*
X103941156Y-102010000D01*
X103932883Y-102006573D01*
X103929469Y-101998857D01*
X103910329Y-101596924D01*
X103913359Y-101588500D01*
X103915914Y-101586388D01*
X104183589Y-101422914D01*
X104192436Y-101421527D01*
X104196228Y-101423199D01*
G37*
G04 #@! TD.AperFunction*
G04 #@! TA.AperFunction,Conductor*
G36*
X112456687Y-93436680D02*
G01*
X113292712Y-94271722D01*
X113296144Y-94279993D01*
X113292722Y-94288268D01*
X113292712Y-94288278D01*
X112456687Y-95123319D01*
X112448412Y-95126741D01*
X112442063Y-95124864D01*
X111605344Y-94583457D01*
X111600260Y-94576085D01*
X111600000Y-94573634D01*
X111600000Y-93986365D01*
X111603427Y-93978092D01*
X111605344Y-93976542D01*
X112442064Y-93435134D01*
X112450870Y-93433518D01*
X112456687Y-93436680D01*
G37*
G04 #@! TD.AperFunction*
G04 #@! TA.AperFunction,Conductor*
G36*
X97596495Y-111926477D02*
G01*
X98187265Y-112515860D01*
X98190702Y-112524129D01*
X98190702Y-112524153D01*
X98190010Y-113357174D01*
X98186576Y-113365444D01*
X98178300Y-113368864D01*
X98177228Y-113368814D01*
X96921613Y-113252245D01*
X96914422Y-113248868D01*
X96502226Y-112836672D01*
X96498799Y-112828399D01*
X96502226Y-112820126D01*
X96503010Y-112819410D01*
X97580766Y-111925752D01*
X97589320Y-111923111D01*
X97596495Y-111926477D01*
G37*
G04 #@! TD.AperFunction*
G04 #@! TA.AperFunction,Conductor*
G36*
X113721056Y-108375482D02*
G01*
X113745452Y-108377898D01*
X113902598Y-108393462D01*
X113921728Y-108397289D01*
X114091526Y-108449102D01*
X114109529Y-108456606D01*
X114265862Y-108540718D01*
X114282045Y-108551609D01*
X114380925Y-108633395D01*
X114418832Y-108664749D01*
X114432571Y-108678608D01*
X114544510Y-108816386D01*
X114555263Y-108832672D01*
X114637995Y-108989725D01*
X114645345Y-109007804D01*
X114695663Y-109178040D01*
X114699323Y-109197208D01*
X114715712Y-109378904D01*
X114716108Y-109388666D01*
X114708737Y-110228934D01*
X114708181Y-110238580D01*
X114689021Y-110417969D01*
X114685111Y-110436868D01*
X114632954Y-110604497D01*
X114625452Y-110622276D01*
X114606028Y-110658096D01*
X114561668Y-110700237D01*
X114501010Y-110708256D01*
X114447224Y-110679089D01*
X114420854Y-110623878D01*
X114420000Y-110610904D01*
X114420000Y-110095001D01*
X114419999Y-110095000D01*
X113847445Y-110095000D01*
X113870000Y-110010826D01*
X113870000Y-109879174D01*
X113847445Y-109795000D01*
X114419999Y-109795000D01*
X114420000Y-109794999D01*
X114420000Y-109075302D01*
X114419999Y-109075299D01*
X114408396Y-109016963D01*
X114364193Y-108950810D01*
X114364189Y-108950806D01*
X114298036Y-108906603D01*
X114239700Y-108895000D01*
X113520001Y-108895000D01*
X113520000Y-108895001D01*
X113520000Y-109467554D01*
X113435826Y-109445000D01*
X113304174Y-109445000D01*
X113220000Y-109467554D01*
X113220000Y-108895001D01*
X113219999Y-108895000D01*
X112500299Y-108895000D01*
X112441963Y-108906603D01*
X112375810Y-108950806D01*
X112375806Y-108950810D01*
X112331603Y-109016963D01*
X112320000Y-109075299D01*
X112320000Y-109794999D01*
X112320001Y-109795000D01*
X112892555Y-109795000D01*
X112870000Y-109879174D01*
X112870000Y-110010826D01*
X112892555Y-110095000D01*
X112320001Y-110095000D01*
X112320000Y-110095001D01*
X112320000Y-110814700D01*
X112331603Y-110873036D01*
X112375806Y-110939189D01*
X112375810Y-110939193D01*
X112441963Y-110983396D01*
X112500299Y-110994999D01*
X112500303Y-110995000D01*
X113219999Y-110995000D01*
X113220000Y-110994999D01*
X113220000Y-110422445D01*
X113304174Y-110445000D01*
X113435826Y-110445000D01*
X113520000Y-110422445D01*
X113520000Y-110994999D01*
X113520001Y-110995000D01*
X113931254Y-110995000D01*
X113989445Y-111013907D01*
X114025409Y-111063407D01*
X114025409Y-111124593D01*
X113989445Y-111174093D01*
X113959838Y-111188783D01*
X113918873Y-111201136D01*
X113912033Y-111203199D01*
X113893102Y-111206943D01*
X113730306Y-111222887D01*
X113713541Y-111224529D01*
X113703893Y-111225000D01*
X112657632Y-111225000D01*
X112647945Y-111224525D01*
X112467712Y-111206805D01*
X112448710Y-111203032D01*
X112280052Y-111151966D01*
X112262149Y-111144565D01*
X112102356Y-111059333D01*
X112094033Y-111054355D01*
X111476930Y-110642952D01*
X111476919Y-110642946D01*
X111225000Y-110475000D01*
X110922226Y-110475000D01*
X110243768Y-110475000D01*
X109875000Y-110475000D01*
X109594523Y-110714430D01*
X109594518Y-110714435D01*
X109362500Y-110912500D01*
X109133790Y-111107739D01*
X109126927Y-111113093D01*
X108993857Y-111207749D01*
X108978799Y-111216571D01*
X108896760Y-111255358D01*
X108835151Y-111284485D01*
X108818764Y-111290528D01*
X108665414Y-111332141D01*
X108648221Y-111335210D01*
X108517801Y-111346760D01*
X108485576Y-111349614D01*
X108476845Y-111350000D01*
X108420291Y-111350000D01*
X108404804Y-111348781D01*
X108292793Y-111331040D01*
X108263335Y-111321469D01*
X108169316Y-111273564D01*
X108144257Y-111255358D01*
X108069641Y-111180742D01*
X108051435Y-111155683D01*
X108003529Y-111061661D01*
X107993960Y-111032208D01*
X107976219Y-110920195D01*
X107975000Y-110904709D01*
X107975000Y-110136944D01*
X107975465Y-110127355D01*
X107992830Y-109948914D01*
X107996528Y-109930096D01*
X108046586Y-109762977D01*
X108053839Y-109745235D01*
X108135182Y-109590899D01*
X108145716Y-109574894D01*
X108255293Y-109439133D01*
X108268715Y-109425458D01*
X108402411Y-109313373D01*
X108418223Y-109302539D01*
X108571018Y-109218335D01*
X108588612Y-109210757D01*
X108759401Y-109156114D01*
X108768635Y-109153647D01*
X112268107Y-108398079D01*
X112273254Y-108397109D01*
X112370425Y-108381479D01*
X112380852Y-108380367D01*
X112473397Y-108375443D01*
X112479095Y-108375140D01*
X112484355Y-108375000D01*
X113711299Y-108375000D01*
X113721056Y-108375482D01*
G37*
G04 #@! TD.AperFunction*
G04 #@! TA.AperFunction,Conductor*
G36*
X104437379Y-100833427D02*
G01*
X104440776Y-100840866D01*
X104469492Y-101242893D01*
X104466664Y-101251390D01*
X104463920Y-101253712D01*
X104196098Y-101417275D01*
X104187251Y-101418663D01*
X104183902Y-101417275D01*
X103916079Y-101253712D01*
X103910804Y-101246476D01*
X103910507Y-101242897D01*
X103939224Y-100840866D01*
X103943231Y-100832858D01*
X103950894Y-100830000D01*
X104429106Y-100830000D01*
X104437379Y-100833427D01*
G37*
G04 #@! TD.AperFunction*
G04 #@! TA.AperFunction,Conductor*
G36*
X100643944Y-114547602D02*
G01*
X100645166Y-114549039D01*
X100944039Y-114964673D01*
X101315242Y-115480895D01*
X101317290Y-115489613D01*
X101314026Y-115495989D01*
X100726238Y-116085162D01*
X100717969Y-116088599D01*
X100713473Y-116087706D01*
X99944884Y-115768942D01*
X99938555Y-115762608D01*
X99938311Y-115754305D01*
X100211988Y-114964670D01*
X100214767Y-114960233D01*
X100627399Y-114547601D01*
X100635671Y-114544175D01*
X100643944Y-114547602D01*
G37*
G04 #@! TD.AperFunction*
G04 #@! TA.AperFunction,Conductor*
G36*
X98974011Y-112198956D02*
G01*
X98980077Y-112204714D01*
X99600642Y-113502481D01*
X99601120Y-113511423D01*
X99598360Y-113515801D01*
X99185801Y-113928360D01*
X99177528Y-113931787D01*
X99172481Y-113930642D01*
X97874714Y-113310077D01*
X97868728Y-113303417D01*
X97868946Y-113295059D01*
X98187438Y-112523783D01*
X98193759Y-112517448D01*
X98965059Y-112198947D01*
X98974011Y-112198956D01*
G37*
G04 #@! TD.AperFunction*
G04 #@! TA.AperFunction,Conductor*
G36*
X102992618Y-102281051D02*
G01*
X103569272Y-102329106D01*
X103577232Y-102333208D01*
X103580000Y-102340766D01*
X103580000Y-102819234D01*
X103576573Y-102827507D01*
X103569272Y-102830894D01*
X102992629Y-102878947D01*
X102984099Y-102876219D01*
X102979997Y-102868259D01*
X102979957Y-102867345D01*
X102979000Y-102580000D01*
X102979957Y-102292671D01*
X102983411Y-102284411D01*
X102991696Y-102281012D01*
X102992618Y-102281051D01*
G37*
G04 #@! TD.AperFunction*
G04 #@! TA.AperFunction,Conductor*
G36*
X99185801Y-111111639D02*
G01*
X99598360Y-111524198D01*
X99601787Y-111532471D01*
X99600642Y-111537518D01*
X98980077Y-112835285D01*
X98973417Y-112841271D01*
X98965056Y-112841052D01*
X98193784Y-112522561D01*
X98187447Y-112516238D01*
X97868947Y-111744940D01*
X97868956Y-111735988D01*
X97874712Y-111729923D01*
X99172483Y-111109356D01*
X99181423Y-111108879D01*
X99185801Y-111111639D01*
G37*
G04 #@! TD.AperFunction*
G04 #@! TA.AperFunction,Conductor*
G36*
X107772738Y-109904370D02*
G01*
X107787090Y-109939018D01*
X107786860Y-109943764D01*
X107770928Y-110107479D01*
X107770207Y-110117372D01*
X107769741Y-110126989D01*
X107769500Y-110136960D01*
X107769500Y-110904712D01*
X107770133Y-110920828D01*
X107771354Y-110936336D01*
X107773246Y-110952324D01*
X107773249Y-110952342D01*
X107790841Y-111063415D01*
X107790992Y-111064365D01*
X107798510Y-111095684D01*
X107798519Y-111095718D01*
X107808079Y-111125143D01*
X107808082Y-111125151D01*
X107808085Y-111125159D01*
X107812215Y-111135129D01*
X107812213Y-111172632D01*
X107785694Y-111199150D01*
X107751800Y-111200480D01*
X107745826Y-111198538D01*
X107724906Y-111193515D01*
X107714452Y-111191005D01*
X107714449Y-111191004D01*
X107714447Y-111191004D01*
X107598442Y-111172631D01*
X107582425Y-111170735D01*
X107574753Y-111170132D01*
X107558650Y-111169500D01*
X107558642Y-111169500D01*
X107508117Y-111169500D01*
X107508115Y-111169500D01*
X107496398Y-111169834D01*
X107490817Y-111170152D01*
X107479091Y-111171160D01*
X107261953Y-111196084D01*
X107261924Y-111196088D01*
X107238786Y-111200094D01*
X107227917Y-111202622D01*
X107227898Y-111202627D01*
X107205402Y-111209236D01*
X107002181Y-111281778D01*
X107002172Y-111281781D01*
X106980556Y-111290920D01*
X106980542Y-111290927D01*
X106970522Y-111295856D01*
X106950086Y-111307403D01*
X106950079Y-111307407D01*
X106763865Y-111427144D01*
X106763839Y-111427161D01*
X106750930Y-111436546D01*
X106744870Y-111440952D01*
X106744864Y-111440957D01*
X106540182Y-111608424D01*
X106509153Y-111619500D01*
X104940713Y-111619500D01*
X104927322Y-111619936D01*
X104922124Y-111620275D01*
X104920915Y-111620355D01*
X104919423Y-111620501D01*
X104907485Y-111621676D01*
X104784413Y-111637880D01*
X104758061Y-111643123D01*
X104745701Y-111646435D01*
X104732140Y-111651039D01*
X104720254Y-111655075D01*
X104720250Y-111655076D01*
X104720243Y-111655079D01*
X104702365Y-111662484D01*
X104664862Y-111662484D01*
X104648966Y-111651862D01*
X103561252Y-110564148D01*
X103546900Y-110529500D01*
X103561252Y-110494852D01*
X103595900Y-110480500D01*
X106985895Y-110480500D01*
X106985895Y-110480499D01*
X107113186Y-110446392D01*
X107124599Y-110439803D01*
X107128478Y-110437563D01*
X107227314Y-110380500D01*
X107703444Y-109904369D01*
X107738090Y-109890018D01*
X107772738Y-109904370D01*
G37*
G04 #@! TD.AperFunction*
G04 #@! TA.AperFunction,Conductor*
G36*
X115185148Y-90414852D02*
G01*
X115199500Y-90449500D01*
X115199500Y-117850500D01*
X115185148Y-117885148D01*
X115150500Y-117899500D01*
X88799500Y-117899500D01*
X88764852Y-117885148D01*
X88750500Y-117850500D01*
X88750500Y-115215000D01*
X93474417Y-115215000D01*
X93494700Y-115420934D01*
X93554768Y-115618954D01*
X93652315Y-115801450D01*
X93783590Y-115961410D01*
X93943550Y-116092685D01*
X94126046Y-116190232D01*
X94324066Y-116250300D01*
X94530000Y-116270583D01*
X94735934Y-116250300D01*
X94933954Y-116190232D01*
X95116450Y-116092685D01*
X95276410Y-115961410D01*
X95407685Y-115801450D01*
X95502909Y-115623296D01*
X95504368Y-115621083D01*
X95504224Y-115620996D01*
X95505466Y-115618942D01*
X95505471Y-115618937D01*
X95708088Y-115195209D01*
X97030000Y-115195209D01*
X97030000Y-115990000D01*
X97689157Y-115990000D01*
X97680000Y-116024174D01*
X97680000Y-116155826D01*
X97689157Y-116190000D01*
X97030001Y-116190000D01*
X97030001Y-116984794D01*
X97032910Y-117009876D01*
X97078213Y-117112479D01*
X97157520Y-117191786D01*
X97260126Y-117237090D01*
X97285189Y-117239998D01*
X97285209Y-117239999D01*
X98079999Y-117239999D01*
X98080000Y-117239998D01*
X98080000Y-116580842D01*
X98114174Y-116590000D01*
X98245826Y-116590000D01*
X98280000Y-116580842D01*
X98280000Y-117239999D01*
X99074788Y-117239999D01*
X99074794Y-117239998D01*
X99099876Y-117237089D01*
X99202479Y-117191786D01*
X99281786Y-117112479D01*
X99327090Y-117009873D01*
X99329998Y-116984810D01*
X99330000Y-116984790D01*
X99330000Y-116190000D01*
X98670843Y-116190000D01*
X98680000Y-116155826D01*
X98680000Y-116024174D01*
X98670843Y-115990000D01*
X99329999Y-115990000D01*
X99329999Y-115195212D01*
X99329998Y-115195205D01*
X99327089Y-115170123D01*
X99281786Y-115067520D01*
X99202479Y-114988213D01*
X99202480Y-114988213D01*
X99099873Y-114942909D01*
X99074810Y-114940001D01*
X99074790Y-114940000D01*
X98280000Y-114940000D01*
X98280000Y-115599157D01*
X98245826Y-115590000D01*
X98114174Y-115590000D01*
X98080000Y-115599157D01*
X98080000Y-114940000D01*
X97285212Y-114940000D01*
X97285205Y-114940001D01*
X97260123Y-114942910D01*
X97157520Y-114988213D01*
X97078213Y-115067520D01*
X97032909Y-115170126D01*
X97030001Y-115195189D01*
X97030000Y-115195209D01*
X95708088Y-115195209D01*
X96117277Y-114339485D01*
X96126830Y-114325982D01*
X96971752Y-113481060D01*
X97006399Y-113466709D01*
X97010910Y-113466918D01*
X97849203Y-113544744D01*
X97890005Y-113548532D01*
X97906613Y-113553116D01*
X98462033Y-113818706D01*
X99065511Y-114107276D01*
X99079020Y-114116834D01*
X99955386Y-114993199D01*
X99969738Y-115027847D01*
X99967036Y-115043893D01*
X99744142Y-115687006D01*
X99743607Y-115689166D01*
X99743564Y-115689155D01*
X99742788Y-115692569D01*
X99684700Y-115884063D01*
X99684700Y-115884065D01*
X99684700Y-115884066D01*
X99664417Y-116090000D01*
X99684700Y-116295934D01*
X99744768Y-116493954D01*
X99842315Y-116676450D01*
X99973590Y-116836410D01*
X100133550Y-116967685D01*
X100316046Y-117065232D01*
X100514066Y-117125300D01*
X100720000Y-117145583D01*
X100925934Y-117125300D01*
X101123954Y-117065232D01*
X101306450Y-116967685D01*
X101466410Y-116836410D01*
X101597685Y-116676450D01*
X101695232Y-116493954D01*
X101755300Y-116295934D01*
X101775583Y-116090000D01*
X102204417Y-116090000D01*
X102224700Y-116295934D01*
X102284768Y-116493954D01*
X102382315Y-116676450D01*
X102513590Y-116836410D01*
X102673550Y-116967685D01*
X102856046Y-117065232D01*
X103054066Y-117125300D01*
X103260000Y-117145583D01*
X103465934Y-117125300D01*
X103663954Y-117065232D01*
X103846450Y-116967685D01*
X104006410Y-116836410D01*
X104137685Y-116676450D01*
X104235232Y-116493954D01*
X104295300Y-116295934D01*
X104315583Y-116090000D01*
X104744417Y-116090000D01*
X104764700Y-116295934D01*
X104824768Y-116493954D01*
X104922315Y-116676450D01*
X105053590Y-116836410D01*
X105213550Y-116967685D01*
X105396046Y-117065232D01*
X105594066Y-117125300D01*
X105800000Y-117145583D01*
X106005934Y-117125300D01*
X106203954Y-117065232D01*
X106386450Y-116967685D01*
X106546410Y-116836410D01*
X106677685Y-116676450D01*
X106775232Y-116493954D01*
X106835300Y-116295934D01*
X106855583Y-116090000D01*
X107284417Y-116090000D01*
X107304700Y-116295934D01*
X107364768Y-116493954D01*
X107462315Y-116676450D01*
X107593590Y-116836410D01*
X107753550Y-116967685D01*
X107936046Y-117065232D01*
X108134066Y-117125300D01*
X108340000Y-117145583D01*
X108545934Y-117125300D01*
X108743954Y-117065232D01*
X108926450Y-116967685D01*
X109086410Y-116836410D01*
X109217685Y-116676450D01*
X109315232Y-116493954D01*
X109375300Y-116295934D01*
X109395583Y-116090000D01*
X109824417Y-116090000D01*
X109844700Y-116295934D01*
X109904768Y-116493954D01*
X110002315Y-116676450D01*
X110133590Y-116836410D01*
X110293550Y-116967685D01*
X110476046Y-117065232D01*
X110674066Y-117125300D01*
X110880000Y-117145583D01*
X111085934Y-117125300D01*
X111283954Y-117065232D01*
X111466450Y-116967685D01*
X111626410Y-116836410D01*
X111757685Y-116676450D01*
X111855232Y-116493954D01*
X111915300Y-116295934D01*
X111935583Y-116090000D01*
X112364417Y-116090000D01*
X112384700Y-116295934D01*
X112444768Y-116493954D01*
X112542315Y-116676450D01*
X112673590Y-116836410D01*
X112833550Y-116967685D01*
X113016046Y-117065232D01*
X113214066Y-117125300D01*
X113420000Y-117145583D01*
X113625934Y-117125300D01*
X113823954Y-117065232D01*
X114006450Y-116967685D01*
X114166410Y-116836410D01*
X114297685Y-116676450D01*
X114395232Y-116493954D01*
X114455300Y-116295934D01*
X114475583Y-116090000D01*
X114455300Y-115884066D01*
X114395232Y-115686046D01*
X114297685Y-115503550D01*
X114166410Y-115343590D01*
X114006450Y-115212315D01*
X113823954Y-115114768D01*
X113625934Y-115054700D01*
X113420000Y-115034417D01*
X113214065Y-115054700D01*
X113214064Y-115054700D01*
X113016043Y-115114769D01*
X112833548Y-115212316D01*
X112673590Y-115343590D01*
X112542316Y-115503548D01*
X112444769Y-115686043D01*
X112384700Y-115884064D01*
X112384700Y-115884065D01*
X112384700Y-115884066D01*
X112364417Y-116090000D01*
X111935583Y-116090000D01*
X111915300Y-115884066D01*
X111855232Y-115686046D01*
X111757685Y-115503550D01*
X111626410Y-115343590D01*
X111466450Y-115212315D01*
X111283954Y-115114768D01*
X111085934Y-115054700D01*
X110880000Y-115034417D01*
X110674065Y-115054700D01*
X110674064Y-115054700D01*
X110476043Y-115114769D01*
X110293548Y-115212316D01*
X110133590Y-115343590D01*
X110002316Y-115503548D01*
X109904769Y-115686043D01*
X109844700Y-115884064D01*
X109844700Y-115884065D01*
X109844700Y-115884066D01*
X109824417Y-116090000D01*
X109395583Y-116090000D01*
X109375300Y-115884066D01*
X109315232Y-115686046D01*
X109217685Y-115503550D01*
X109086410Y-115343590D01*
X108926450Y-115212315D01*
X108743954Y-115114768D01*
X108545934Y-115054700D01*
X108340000Y-115034417D01*
X108134065Y-115054700D01*
X108134064Y-115054700D01*
X107936043Y-115114769D01*
X107753548Y-115212316D01*
X107593590Y-115343590D01*
X107462316Y-115503548D01*
X107364769Y-115686043D01*
X107304700Y-115884064D01*
X107304700Y-115884065D01*
X107304700Y-115884066D01*
X107284417Y-116090000D01*
X106855583Y-116090000D01*
X106835300Y-115884066D01*
X106775232Y-115686046D01*
X106677685Y-115503550D01*
X106546410Y-115343590D01*
X106386450Y-115212315D01*
X106203954Y-115114768D01*
X106005934Y-115054700D01*
X105800000Y-115034417D01*
X105594065Y-115054700D01*
X105594064Y-115054700D01*
X105396043Y-115114769D01*
X105213548Y-115212316D01*
X105053590Y-115343590D01*
X104922316Y-115503548D01*
X104824769Y-115686043D01*
X104764700Y-115884064D01*
X104764700Y-115884065D01*
X104764700Y-115884066D01*
X104744417Y-116090000D01*
X104315583Y-116090000D01*
X104295300Y-115884066D01*
X104235232Y-115686046D01*
X104137685Y-115503550D01*
X104006410Y-115343590D01*
X103846450Y-115212315D01*
X103663954Y-115114768D01*
X103465934Y-115054700D01*
X103260000Y-115034417D01*
X103054065Y-115054700D01*
X103054064Y-115054700D01*
X102856043Y-115114769D01*
X102673548Y-115212316D01*
X102513590Y-115343590D01*
X102382316Y-115503548D01*
X102284769Y-115686043D01*
X102224700Y-115884064D01*
X102224700Y-115884065D01*
X102224700Y-115884066D01*
X102204417Y-116090000D01*
X101775583Y-116090000D01*
X101755300Y-115884066D01*
X101695232Y-115686046D01*
X101597685Y-115503550D01*
X101487957Y-115369845D01*
X101483595Y-115362836D01*
X101483296Y-115363010D01*
X101482091Y-115360931D01*
X101229717Y-115009959D01*
X101220500Y-114981352D01*
X101220500Y-114979105D01*
X101220499Y-114979104D01*
X101186392Y-114851815D01*
X101186391Y-114851811D01*
X101120499Y-114737685D01*
X100814581Y-114431767D01*
X100810640Y-114427317D01*
X100801707Y-114415902D01*
X100800531Y-114414520D01*
X100800493Y-114414475D01*
X100797176Y-114410671D01*
X100787833Y-114404041D01*
X100781543Y-114398729D01*
X100732317Y-114349503D01*
X100732314Y-114349500D01*
X100732310Y-114349498D01*
X100732308Y-114349496D01*
X100726064Y-114345891D01*
X100715918Y-114338105D01*
X100031961Y-113654148D01*
X100017609Y-113619500D01*
X100031961Y-113584852D01*
X100066609Y-113570500D01*
X101599745Y-113570500D01*
X101599748Y-113570500D01*
X101658231Y-113558867D01*
X101724552Y-113514552D01*
X101768867Y-113448231D01*
X101780500Y-113389748D01*
X101780500Y-111650252D01*
X101768867Y-111591769D01*
X101741932Y-111551458D01*
X101724552Y-111525447D01*
X101684795Y-111498882D01*
X101658231Y-111481133D01*
X101599748Y-111469500D01*
X101599745Y-111469500D01*
X100066609Y-111469500D01*
X100031961Y-111455148D01*
X100017609Y-111420500D01*
X100031961Y-111385852D01*
X100126893Y-111290920D01*
X100423279Y-110994532D01*
X100423284Y-110994529D01*
X100427312Y-110990500D01*
X100427314Y-110990500D01*
X100520500Y-110897314D01*
X100586392Y-110783186D01*
X100612865Y-110684388D01*
X100616682Y-110670140D01*
X100620500Y-110655894D01*
X100620500Y-110529500D01*
X100634852Y-110494852D01*
X100669500Y-110480500D01*
X102183102Y-110480500D01*
X102217750Y-110494852D01*
X104235396Y-112512498D01*
X104247146Y-112531390D01*
X104255075Y-112554745D01*
X104301337Y-112666432D01*
X104309047Y-112682067D01*
X104313224Y-112690537D01*
X104313230Y-112690548D01*
X104319629Y-112701630D01*
X104319635Y-112701640D01*
X104334542Y-112723950D01*
X104334573Y-112723994D01*
X104408137Y-112819864D01*
X104408148Y-112819877D01*
X104425863Y-112840077D01*
X104425885Y-112840100D01*
X104434898Y-112849113D01*
X104434921Y-112849135D01*
X104455120Y-112866849D01*
X104455133Y-112866859D01*
X104497741Y-112899554D01*
X104497751Y-112899563D01*
X104551005Y-112940426D01*
X104551041Y-112940452D01*
X104566717Y-112950925D01*
X104573379Y-112955376D01*
X104584457Y-112961772D01*
X104608567Y-112973662D01*
X104720254Y-113019924D01*
X104745700Y-113028563D01*
X104758055Y-113031874D01*
X104758079Y-113031878D01*
X104758084Y-113031880D01*
X104784413Y-113037118D01*
X104784418Y-113037118D01*
X104784425Y-113037120D01*
X104907492Y-113053323D01*
X104907507Y-113053324D01*
X104907511Y-113053325D01*
X104919424Y-113054497D01*
X104920884Y-113054641D01*
X104927280Y-113055060D01*
X104940713Y-113055500D01*
X106371494Y-113055500D01*
X106399097Y-113064014D01*
X106609234Y-113207290D01*
X106626716Y-113217973D01*
X106626731Y-113217981D01*
X106786874Y-113305194D01*
X106786888Y-113305203D01*
X106811089Y-113318382D01*
X106811096Y-113318386D01*
X106811107Y-113318391D01*
X106811112Y-113318394D01*
X106829554Y-113327276D01*
X106838545Y-113331067D01*
X106857812Y-113338081D01*
X107053775Y-113398530D01*
X107073642Y-113403588D01*
X107083207Y-113405521D01*
X107103452Y-113408572D01*
X107309938Y-113429235D01*
X107320136Y-113430000D01*
X107325015Y-113430244D01*
X107335279Y-113430500D01*
X107335292Y-113430500D01*
X107483651Y-113430500D01*
X107499754Y-113429868D01*
X107507429Y-113429264D01*
X107519985Y-113427777D01*
X107523455Y-113427367D01*
X107541549Y-113424501D01*
X107541548Y-113424500D01*
X107571204Y-113419803D01*
X107571203Y-113419803D01*
X107662630Y-113405323D01*
X107693997Y-113397791D01*
X107708576Y-113393053D01*
X107738356Y-113380717D01*
X107821430Y-113338389D01*
X107860400Y-113318533D01*
X107860417Y-113318524D01*
X107860416Y-113318524D01*
X107860425Y-113318520D01*
X107887917Y-113301673D01*
X107900320Y-113292662D01*
X107924843Y-113271717D01*
X108021717Y-113174843D01*
X108042662Y-113150320D01*
X108051673Y-113137917D01*
X108068520Y-113110425D01*
X108114636Y-113019918D01*
X108130716Y-112988358D01*
X108130717Y-112988355D01*
X108136260Y-112974976D01*
X108143053Y-112958576D01*
X108147791Y-112943997D01*
X108155323Y-112912631D01*
X108177367Y-112773457D01*
X108179264Y-112757423D01*
X108179867Y-112749757D01*
X108180500Y-112733642D01*
X108180500Y-111791357D01*
X108179867Y-111775242D01*
X108179264Y-111767576D01*
X108177367Y-111751542D01*
X108158994Y-111635544D01*
X108151462Y-111604178D01*
X108146724Y-111589599D01*
X108146722Y-111589596D01*
X108146720Y-111589588D01*
X108144350Y-111583868D01*
X108144348Y-111546365D01*
X108170865Y-111519845D01*
X108204760Y-111518512D01*
X108229293Y-111526483D01*
X108245896Y-111530469D01*
X108260636Y-111534008D01*
X108260637Y-111534008D01*
X108260645Y-111534010D01*
X108372656Y-111551751D01*
X108388679Y-111553647D01*
X108404166Y-111554866D01*
X108414916Y-111555288D01*
X108420288Y-111555500D01*
X108420291Y-111555500D01*
X108476845Y-111555500D01*
X108485921Y-111555299D01*
X108494652Y-111554913D01*
X108503705Y-111554313D01*
X108535930Y-111551459D01*
X108535929Y-111551458D01*
X108567004Y-111548707D01*
X108567007Y-111548706D01*
X108579994Y-111547555D01*
X108666349Y-111539909D01*
X108666353Y-111539908D01*
X108666358Y-111539908D01*
X108684324Y-111537514D01*
X108691901Y-111536161D01*
X108701526Y-111534443D01*
X108719232Y-111530469D01*
X108872582Y-111488856D01*
X108889865Y-111483336D01*
X108906252Y-111477293D01*
X108922984Y-111470269D01*
X108984593Y-111441142D01*
X108984596Y-111441141D01*
X109066635Y-111402354D01*
X109082680Y-111393882D01*
X109097738Y-111385060D01*
X109112973Y-111375205D01*
X109246043Y-111280549D01*
X109253329Y-111275120D01*
X109260192Y-111269766D01*
X109267213Y-111264035D01*
X109495923Y-111068796D01*
X109495924Y-111068796D01*
X109727942Y-110870731D01*
X109727951Y-110870721D01*
X109728427Y-110870316D01*
X109728462Y-110870284D01*
X109925394Y-110702174D01*
X109937041Y-110692232D01*
X109968855Y-110680500D01*
X111147945Y-110680500D01*
X111175125Y-110688730D01*
X111363588Y-110814372D01*
X111363659Y-110814417D01*
X111633825Y-110994529D01*
X111980025Y-111225330D01*
X111980034Y-111225336D01*
X111980042Y-111225341D01*
X111988550Y-111230717D01*
X111996873Y-111235695D01*
X112005642Y-111240652D01*
X112165435Y-111325884D01*
X112165439Y-111325886D01*
X112165444Y-111325889D01*
X112180313Y-111332906D01*
X112183640Y-111334477D01*
X112183648Y-111334480D01*
X112183654Y-111334483D01*
X112201522Y-111341870D01*
X112201534Y-111341874D01*
X112201543Y-111341878D01*
X112220501Y-111348648D01*
X112389159Y-111399714D01*
X112408688Y-111404597D01*
X112427690Y-111408370D01*
X112447605Y-111411319D01*
X112627838Y-111429039D01*
X112637880Y-111429778D01*
X112647567Y-111430253D01*
X112650745Y-111430331D01*
X112657619Y-111430500D01*
X112716342Y-111430500D01*
X112750990Y-111444852D01*
X112765342Y-111479500D01*
X112750990Y-111514148D01*
X112742137Y-111521161D01*
X112673996Y-111563351D01*
X112516499Y-111706930D01*
X112516496Y-111706933D01*
X112388062Y-111877007D01*
X112388059Y-111877011D01*
X112293061Y-112067795D01*
X112293060Y-112067796D01*
X112234739Y-112272777D01*
X112234737Y-112272786D01*
X112224339Y-112384999D01*
X112224339Y-112385000D01*
X112879157Y-112385000D01*
X112870000Y-112419174D01*
X112870000Y-112550826D01*
X112879157Y-112585000D01*
X112224339Y-112585000D01*
X112234737Y-112697213D01*
X112234739Y-112697222D01*
X112293060Y-112902203D01*
X112293061Y-112902204D01*
X112388059Y-113092988D01*
X112388062Y-113092992D01*
X112516496Y-113263066D01*
X112516499Y-113263069D01*
X112673996Y-113406648D01*
X112855208Y-113518849D01*
X113053934Y-113595835D01*
X113053942Y-113595837D01*
X113263439Y-113635000D01*
X113270000Y-113635000D01*
X113270000Y-112975842D01*
X113304174Y-112985000D01*
X113435826Y-112985000D01*
X113470000Y-112975842D01*
X113470000Y-113635000D01*
X113476561Y-113635000D01*
X113686057Y-113595837D01*
X113686065Y-113595835D01*
X113884791Y-113518849D01*
X114066003Y-113406648D01*
X114223500Y-113263069D01*
X114223503Y-113263066D01*
X114351937Y-113092992D01*
X114351940Y-113092988D01*
X114446938Y-112902204D01*
X114446939Y-112902203D01*
X114505260Y-112697222D01*
X114505262Y-112697213D01*
X114515660Y-112585000D01*
X113860843Y-112585000D01*
X113870000Y-112550826D01*
X113870000Y-112419174D01*
X113860843Y-112385000D01*
X114515661Y-112385000D01*
X114515660Y-112384999D01*
X114505262Y-112272786D01*
X114505260Y-112272777D01*
X114446939Y-112067796D01*
X114446938Y-112067795D01*
X114351940Y-111877011D01*
X114351937Y-111877007D01*
X114223503Y-111706933D01*
X114223500Y-111706930D01*
X114066003Y-111563351D01*
X113949396Y-111491151D01*
X113927493Y-111460709D01*
X113933530Y-111423695D01*
X113963351Y-111401942D01*
X113971373Y-111399945D01*
X113978213Y-111397882D01*
X113978212Y-111397881D01*
X114019168Y-111385532D01*
X114051175Y-111372869D01*
X114080782Y-111358179D01*
X114086825Y-111355056D01*
X114155698Y-111294883D01*
X114191662Y-111245383D01*
X114210558Y-111213756D01*
X114230909Y-111124593D01*
X114230909Y-111063407D01*
X114229007Y-111042278D01*
X114240193Y-111006487D01*
X114268247Y-110989831D01*
X114298231Y-110983867D01*
X114364552Y-110939552D01*
X114376763Y-110921275D01*
X114407944Y-110900441D01*
X114433001Y-110903093D01*
X114433143Y-110902539D01*
X114436880Y-110903493D01*
X114436882Y-110903494D01*
X114452058Y-110904908D01*
X114527938Y-110911983D01*
X114527940Y-110911982D01*
X114527943Y-110911983D01*
X114588601Y-110903964D01*
X114624544Y-110895882D01*
X114703204Y-110849226D01*
X114747564Y-110807085D01*
X114786677Y-110756056D01*
X114806101Y-110720236D01*
X114814787Y-110702167D01*
X114822289Y-110684388D01*
X114829175Y-110665550D01*
X114881332Y-110497921D01*
X114886349Y-110478502D01*
X114890259Y-110459603D01*
X114893359Y-110439794D01*
X114912519Y-110260405D01*
X114913340Y-110250405D01*
X114913896Y-110240759D01*
X114914229Y-110230737D01*
X114921600Y-109390469D01*
X114921439Y-109380337D01*
X114921043Y-109370575D01*
X114920381Y-109360443D01*
X114903992Y-109178747D01*
X114901176Y-109158665D01*
X114897516Y-109139497D01*
X114892735Y-109119790D01*
X114868663Y-109038348D01*
X114842423Y-108949572D01*
X114842417Y-108949554D01*
X114835714Y-108930410D01*
X114828364Y-108912331D01*
X114819811Y-108893948D01*
X114737079Y-108736895D01*
X114726755Y-108719443D01*
X114726750Y-108719436D01*
X114726747Y-108719430D01*
X114716000Y-108703154D01*
X114715993Y-108703144D01*
X114704016Y-108686818D01*
X114703981Y-108686772D01*
X114592083Y-108549045D01*
X114592067Y-108549026D01*
X114578521Y-108533941D01*
X114578509Y-108533928D01*
X114564773Y-108520072D01*
X114564764Y-108520064D01*
X114549834Y-108506420D01*
X114549801Y-108506390D01*
X114511903Y-108475043D01*
X114464598Y-108435917D01*
X114413022Y-108393257D01*
X114413006Y-108393245D01*
X114412990Y-108393232D01*
X114396797Y-108381134D01*
X114396781Y-108381122D01*
X114380598Y-108370231D01*
X114380597Y-108370230D01*
X114363232Y-108359751D01*
X114363229Y-108359749D01*
X114206896Y-108275637D01*
X114188592Y-108266924D01*
X114188590Y-108266923D01*
X114188575Y-108266916D01*
X114170593Y-108259421D01*
X114161466Y-108256135D01*
X114151503Y-108252549D01*
X113981705Y-108200736D01*
X113981694Y-108200733D01*
X113981690Y-108200732D01*
X113962050Y-108195784D01*
X113962044Y-108195783D01*
X113962043Y-108195782D01*
X113962040Y-108195782D01*
X113954217Y-108194217D01*
X113942907Y-108191954D01*
X113942896Y-108191952D01*
X113922865Y-108188964D01*
X113922812Y-108188958D01*
X113770173Y-108173841D01*
X113770166Y-108173839D01*
X113770166Y-108173840D01*
X113765704Y-108173398D01*
X113741308Y-108170982D01*
X113737230Y-108170679D01*
X113731162Y-108170229D01*
X113721454Y-108169750D01*
X113711302Y-108169500D01*
X113711299Y-108169500D01*
X112484355Y-108169500D01*
X112480148Y-108169556D01*
X112478878Y-108169573D01*
X112476450Y-108169637D01*
X112473627Y-108169713D01*
X112473605Y-108169713D01*
X112473600Y-108169714D01*
X112468189Y-108169929D01*
X112462485Y-108170232D01*
X112462485Y-108170233D01*
X112462478Y-108170233D01*
X112413777Y-108172824D01*
X112369907Y-108175158D01*
X112359090Y-108176022D01*
X112348613Y-108177140D01*
X112337793Y-108178586D01*
X112240610Y-108194218D01*
X112235205Y-108195162D01*
X112230052Y-108196133D01*
X112224715Y-108197212D01*
X108725276Y-108952773D01*
X108715582Y-108955112D01*
X108706377Y-108957571D01*
X108696754Y-108960395D01*
X108526000Y-109015027D01*
X108513362Y-109019757D01*
X108507320Y-109022019D01*
X108502866Y-109023937D01*
X108489724Y-109029597D01*
X108471849Y-109038347D01*
X108471847Y-109038348D01*
X108319041Y-109122558D01*
X108319025Y-109122567D01*
X108302081Y-109133006D01*
X108302050Y-109133026D01*
X108286260Y-109143846D01*
X108270401Y-109155881D01*
X108270370Y-109155906D01*
X108136708Y-109267963D01*
X108136704Y-109267966D01*
X108122053Y-109281512D01*
X108108624Y-109295194D01*
X108095389Y-109310055D01*
X108095385Y-109310059D01*
X108087628Y-109319670D01*
X108054698Y-109337616D01*
X108018723Y-109327021D01*
X108000777Y-109294091D01*
X108000500Y-109288893D01*
X108000500Y-107154105D01*
X108000499Y-107154104D01*
X107966392Y-107026815D01*
X107966391Y-107026811D01*
X107900499Y-106912685D01*
X104714851Y-103727037D01*
X104700499Y-103692389D01*
X104700499Y-103545783D01*
X104690291Y-103475714D01*
X104690291Y-103475713D01*
X104637450Y-103367627D01*
X104637449Y-103367626D01*
X104637449Y-103367625D01*
X104552375Y-103282551D01*
X104444286Y-103229709D01*
X104435903Y-103228487D01*
X104403688Y-103209290D01*
X104394482Y-103172934D01*
X104413680Y-103140718D01*
X104435908Y-103131512D01*
X104444284Y-103130292D01*
X104444286Y-103130291D01*
X104466365Y-103119497D01*
X104552375Y-103077449D01*
X104637449Y-102992375D01*
X104690291Y-102884286D01*
X104700500Y-102814215D01*
X104700499Y-102382782D01*
X104700564Y-102380257D01*
X104702242Y-102347754D01*
X104643590Y-101945572D01*
X104643280Y-101934050D01*
X104644061Y-101925495D01*
X104646387Y-101900000D01*
X112244417Y-101900000D01*
X112264700Y-102105934D01*
X112324768Y-102303954D01*
X112422315Y-102486450D01*
X112553590Y-102646410D01*
X112713550Y-102777685D01*
X112896046Y-102875232D01*
X113094066Y-102935300D01*
X113300000Y-102955583D01*
X113505934Y-102935300D01*
X113703954Y-102875232D01*
X113886450Y-102777685D01*
X114046410Y-102646410D01*
X114177685Y-102486450D01*
X114275232Y-102303954D01*
X114335300Y-102105934D01*
X114355583Y-101900000D01*
X114335300Y-101694066D01*
X114275232Y-101496046D01*
X114177685Y-101313550D01*
X114046410Y-101153590D01*
X113886450Y-101022315D01*
X113703954Y-100924768D01*
X113505934Y-100864700D01*
X113300000Y-100844417D01*
X113094065Y-100864700D01*
X113094064Y-100864700D01*
X112896043Y-100924769D01*
X112713548Y-101022316D01*
X112553590Y-101153590D01*
X112422316Y-101313548D01*
X112324769Y-101496043D01*
X112264700Y-101694064D01*
X112264700Y-101694065D01*
X112264700Y-101694066D01*
X112244417Y-101900000D01*
X104646387Y-101900000D01*
X104670902Y-101631239D01*
X104671489Y-101602178D01*
X104671322Y-101598880D01*
X104670713Y-101592383D01*
X104670499Y-101587810D01*
X104670499Y-101262922D01*
X104670881Y-101256813D01*
X104674467Y-101228272D01*
X104674470Y-101228252D01*
X104669137Y-101153590D01*
X104645755Y-100826231D01*
X104645754Y-100826227D01*
X104645754Y-100826225D01*
X104642021Y-100811594D01*
X104640500Y-100799480D01*
X104640500Y-100456107D01*
X104643106Y-100443002D01*
X104642925Y-100442966D01*
X104643867Y-100438231D01*
X104655500Y-100379748D01*
X104655500Y-99259999D01*
X112154339Y-99259999D01*
X112154339Y-99260000D01*
X112809157Y-99260000D01*
X112800000Y-99294174D01*
X112800000Y-99425826D01*
X112809157Y-99460000D01*
X112154339Y-99460000D01*
X112164737Y-99572213D01*
X112164739Y-99572222D01*
X112223060Y-99777203D01*
X112223061Y-99777204D01*
X112318059Y-99967988D01*
X112318062Y-99967992D01*
X112446496Y-100138066D01*
X112446499Y-100138069D01*
X112603996Y-100281648D01*
X112785208Y-100393849D01*
X112983934Y-100470835D01*
X112983942Y-100470837D01*
X113193439Y-100510000D01*
X113200000Y-100510000D01*
X113200000Y-99850842D01*
X113234174Y-99860000D01*
X113365826Y-99860000D01*
X113400000Y-99850842D01*
X113400000Y-100510000D01*
X113406561Y-100510000D01*
X113616057Y-100470837D01*
X113616065Y-100470835D01*
X113814791Y-100393849D01*
X113996003Y-100281648D01*
X114153500Y-100138069D01*
X114153503Y-100138066D01*
X114281937Y-99967992D01*
X114281940Y-99967988D01*
X114376938Y-99777204D01*
X114376939Y-99777203D01*
X114435260Y-99572222D01*
X114435262Y-99572213D01*
X114445660Y-99460000D01*
X113790843Y-99460000D01*
X113800000Y-99425826D01*
X113800000Y-99294174D01*
X113790843Y-99260000D01*
X114445661Y-99260000D01*
X114445660Y-99259999D01*
X114435262Y-99147786D01*
X114435260Y-99147777D01*
X114376939Y-98942796D01*
X114376938Y-98942795D01*
X114281940Y-98752011D01*
X114281937Y-98752007D01*
X114153503Y-98581933D01*
X114153500Y-98581930D01*
X113996003Y-98438351D01*
X113814791Y-98326150D01*
X113616065Y-98249164D01*
X113616057Y-98249162D01*
X113406561Y-98210000D01*
X113400000Y-98210000D01*
X113400000Y-98869157D01*
X113365826Y-98860000D01*
X113234174Y-98860000D01*
X113200000Y-98869157D01*
X113200000Y-98210000D01*
X113193439Y-98210000D01*
X112983942Y-98249162D01*
X112983934Y-98249164D01*
X112785208Y-98326150D01*
X112603996Y-98438351D01*
X112446499Y-98581930D01*
X112446496Y-98581933D01*
X112318062Y-98752007D01*
X112318059Y-98752011D01*
X112223061Y-98942795D01*
X112223060Y-98942796D01*
X112164739Y-99147777D01*
X112164737Y-99147786D01*
X112154339Y-99259999D01*
X104655500Y-99259999D01*
X104655500Y-98840252D01*
X104643867Y-98781769D01*
X104610830Y-98732326D01*
X104599552Y-98715447D01*
X104559795Y-98688882D01*
X104533231Y-98671133D01*
X104474748Y-98659500D01*
X103885252Y-98659500D01*
X103826769Y-98671133D01*
X103760447Y-98715447D01*
X103716133Y-98781769D01*
X103704500Y-98840252D01*
X103704500Y-100379748D01*
X103707305Y-100393849D01*
X103716133Y-100438232D01*
X103731242Y-100460843D01*
X103739500Y-100488066D01*
X103739500Y-100800465D01*
X103737756Y-100813421D01*
X103734246Y-100826221D01*
X103734245Y-100826229D01*
X103705529Y-101228233D01*
X103705528Y-101228272D01*
X103705710Y-101259884D01*
X103706007Y-101263466D01*
X103706008Y-101263471D01*
X103708666Y-101283493D01*
X103708666Y-101283494D01*
X103709074Y-101286561D01*
X103709500Y-101293010D01*
X103709500Y-101573446D01*
X103708958Y-101580711D01*
X103705062Y-101606696D01*
X103719795Y-101916093D01*
X103719337Y-101925495D01*
X103699932Y-102058549D01*
X103680730Y-102090764D01*
X103660087Y-102099710D01*
X103549259Y-102119567D01*
X103536548Y-102120166D01*
X103058119Y-102080296D01*
X103055231Y-102079969D01*
X103051961Y-102079500D01*
X103050593Y-102079500D01*
X103046525Y-102079331D01*
X103009689Y-102076261D01*
X103001278Y-102075733D01*
X103000386Y-102075696D01*
X103000375Y-102075696D01*
X102982878Y-102078764D01*
X102974418Y-102079500D01*
X102908034Y-102079500D01*
X102769949Y-102120046D01*
X102769947Y-102120046D01*
X102769947Y-102120047D01*
X102732722Y-102143969D01*
X102648871Y-102197857D01*
X102554625Y-102306623D01*
X102554624Y-102306625D01*
X102494833Y-102437545D01*
X102474353Y-102579997D01*
X102474353Y-102580002D01*
X102494833Y-102722454D01*
X102520056Y-102777683D01*
X102554623Y-102853373D01*
X102554624Y-102853374D01*
X102554625Y-102853376D01*
X102643188Y-102955583D01*
X102648872Y-102962143D01*
X102769947Y-103039953D01*
X102846785Y-103062514D01*
X102908034Y-103080499D01*
X102908037Y-103080499D01*
X102908039Y-103080500D01*
X102978447Y-103080500D01*
X102983982Y-103080814D01*
X103009695Y-103083737D01*
X103046511Y-103080669D01*
X103050580Y-103080500D01*
X103051959Y-103080500D01*
X103051961Y-103080500D01*
X103051962Y-103080499D01*
X103055196Y-103080033D01*
X103058109Y-103079701D01*
X103534965Y-103039964D01*
X103548101Y-103040641D01*
X103841385Y-103095905D01*
X103853826Y-103100035D01*
X103915714Y-103130291D01*
X103924093Y-103131511D01*
X103956309Y-103150707D01*
X103965517Y-103187062D01*
X103946321Y-103219279D01*
X103924096Y-103228487D01*
X103915713Y-103229708D01*
X103807627Y-103282549D01*
X103807623Y-103282552D01*
X103722552Y-103367623D01*
X103722550Y-103367627D01*
X103669709Y-103475713D01*
X103669709Y-103475714D01*
X103659500Y-103545783D01*
X103659500Y-104009216D01*
X103669708Y-104079285D01*
X103669708Y-104079286D01*
X103722549Y-104187372D01*
X103722550Y-104187374D01*
X103722551Y-104187375D01*
X103807625Y-104272449D01*
X103807628Y-104272450D01*
X103807629Y-104272451D01*
X103872687Y-104304256D01*
X103885815Y-104313629D01*
X106985148Y-107412962D01*
X106999500Y-107447610D01*
X106999500Y-109172390D01*
X106985148Y-109207038D01*
X106727038Y-109465148D01*
X106692390Y-109479500D01*
X100347610Y-109479500D01*
X100312962Y-109465148D01*
X96134852Y-105287038D01*
X96120500Y-105252390D01*
X96120500Y-104727608D01*
X96134851Y-104692961D01*
X96912131Y-103915680D01*
X96920279Y-103909114D01*
X96931128Y-103902143D01*
X96965418Y-103862568D01*
X96967789Y-103860023D01*
X97000495Y-103827318D01*
X97000495Y-103827317D01*
X97000499Y-103827314D01*
X97007209Y-103815690D01*
X97012609Y-103808107D01*
X97025377Y-103793373D01*
X97044395Y-103751726D01*
X97046532Y-103747583D01*
X97066390Y-103713189D01*
X97066389Y-103713189D01*
X97066392Y-103713186D01*
X97071574Y-103693841D01*
X97074326Y-103686188D01*
X97085165Y-103662457D01*
X97085165Y-103662455D01*
X97085166Y-103662455D01*
X97090747Y-103623630D01*
X97091915Y-103617928D01*
X97100500Y-103585893D01*
X97100500Y-103559300D01*
X97100999Y-103552326D01*
X97101940Y-103545786D01*
X97105647Y-103520000D01*
X97100999Y-103487671D01*
X97100500Y-103480698D01*
X97100500Y-103454107D01*
X97098885Y-103448081D01*
X97091914Y-103422065D01*
X97090751Y-103416396D01*
X97085165Y-103377543D01*
X97085164Y-103377541D01*
X97085164Y-103377539D01*
X97074330Y-103353817D01*
X97071572Y-103346148D01*
X97066392Y-103326814D01*
X97046531Y-103292414D01*
X97044394Y-103288269D01*
X97041782Y-103282549D01*
X97025377Y-103246627D01*
X97025373Y-103246622D01*
X97012611Y-103231893D01*
X97007208Y-103224306D01*
X97000502Y-103212691D01*
X97000501Y-103212690D01*
X97000499Y-103212686D01*
X96967794Y-103179981D01*
X96965410Y-103177421D01*
X96931127Y-103137855D01*
X96920286Y-103130889D01*
X96912128Y-103124315D01*
X96907317Y-103119504D01*
X96907314Y-103119501D01*
X96907310Y-103119499D01*
X96907308Y-103119497D01*
X96861582Y-103093097D01*
X96859597Y-103091887D01*
X96810053Y-103060047D01*
X96810050Y-103060046D01*
X96804040Y-103058281D01*
X96793352Y-103053704D01*
X96793186Y-103053608D01*
X96793183Y-103053607D01*
X96735867Y-103038249D01*
X96734745Y-103037934D01*
X96671965Y-103019500D01*
X96671961Y-103019500D01*
X96528039Y-103019500D01*
X96528032Y-103019500D01*
X96465279Y-103037926D01*
X96464158Y-103038241D01*
X96406813Y-103053608D01*
X96406811Y-103053608D01*
X96406640Y-103053708D01*
X96395956Y-103058282D01*
X96389950Y-103060045D01*
X96389943Y-103060049D01*
X96340399Y-103091887D01*
X96338411Y-103093099D01*
X96292685Y-103119501D01*
X96292681Y-103119504D01*
X96287867Y-103124318D01*
X96279721Y-103130883D01*
X96268873Y-103137856D01*
X96268868Y-103137860D01*
X96234596Y-103177413D01*
X96232213Y-103179973D01*
X96204147Y-103208038D01*
X96169501Y-103222390D01*
X96134852Y-103208039D01*
X96120500Y-103173391D01*
X96120500Y-100777609D01*
X96134851Y-100742962D01*
X96922135Y-99955677D01*
X96930279Y-99949114D01*
X96941128Y-99942143D01*
X96975411Y-99902576D01*
X96977767Y-99900045D01*
X97010499Y-99867315D01*
X97010500Y-99867314D01*
X100342962Y-96534852D01*
X100377610Y-96520500D01*
X100948039Y-96520500D01*
X100954108Y-96520500D01*
X108082390Y-96520500D01*
X108117038Y-96534852D01*
X110622211Y-99040025D01*
X110624595Y-99042585D01*
X110633613Y-99052993D01*
X110658872Y-99082143D01*
X110669707Y-99089106D01*
X110669713Y-99089110D01*
X110677870Y-99095684D01*
X110682685Y-99100499D01*
X110682688Y-99100500D01*
X110682691Y-99100503D01*
X110728411Y-99126899D01*
X110730402Y-99128113D01*
X110779945Y-99159952D01*
X110779947Y-99159953D01*
X110785953Y-99161716D01*
X110796649Y-99166297D01*
X110796812Y-99166391D01*
X110796816Y-99166393D01*
X110854135Y-99181751D01*
X110855258Y-99182066D01*
X110918034Y-99200499D01*
X110918037Y-99200499D01*
X110918039Y-99200500D01*
X110918040Y-99200500D01*
X111061958Y-99200500D01*
X111061961Y-99200500D01*
X111124794Y-99182049D01*
X111125785Y-99181771D01*
X111183186Y-99166392D01*
X111183344Y-99166300D01*
X111194047Y-99161716D01*
X111200053Y-99159953D01*
X111249635Y-99128087D01*
X111251544Y-99126923D01*
X111297314Y-99100499D01*
X111302132Y-99095679D01*
X111310276Y-99089116D01*
X111321128Y-99082143D01*
X111355418Y-99042568D01*
X111357789Y-99040023D01*
X111390495Y-99007318D01*
X111390495Y-99007317D01*
X111390499Y-99007314D01*
X111397209Y-98995690D01*
X111402609Y-98988107D01*
X111415377Y-98973373D01*
X111434395Y-98931726D01*
X111436532Y-98927583D01*
X111446362Y-98910556D01*
X111456392Y-98893186D01*
X111461574Y-98873841D01*
X111464326Y-98866188D01*
X111475165Y-98842457D01*
X111480750Y-98803605D01*
X111481915Y-98797930D01*
X111490500Y-98765892D01*
X111490500Y-98739300D01*
X111490999Y-98732326D01*
X111495647Y-98700001D01*
X111495647Y-98699998D01*
X111490999Y-98667671D01*
X111490500Y-98660698D01*
X111490500Y-98634106D01*
X111488885Y-98628080D01*
X111481914Y-98602064D01*
X111480747Y-98596371D01*
X111475166Y-98557544D01*
X111475164Y-98557539D01*
X111464330Y-98533817D01*
X111461572Y-98526148D01*
X111456392Y-98506814D01*
X111436523Y-98472401D01*
X111434395Y-98468272D01*
X111415377Y-98426627D01*
X111402610Y-98411893D01*
X111397210Y-98404311D01*
X111390499Y-98392685D01*
X111357787Y-98359973D01*
X111355403Y-98357413D01*
X111321128Y-98317857D01*
X111321125Y-98317855D01*
X111310285Y-98310888D01*
X111302130Y-98304316D01*
X109817814Y-96820000D01*
X112244417Y-96820000D01*
X112264700Y-97025934D01*
X112324768Y-97223954D01*
X112422315Y-97406450D01*
X112553590Y-97566410D01*
X112713550Y-97697685D01*
X112896046Y-97795232D01*
X113094066Y-97855300D01*
X113300000Y-97875583D01*
X113505934Y-97855300D01*
X113703954Y-97795232D01*
X113886450Y-97697685D01*
X114046410Y-97566410D01*
X114177685Y-97406450D01*
X114275232Y-97223954D01*
X114335300Y-97025934D01*
X114355583Y-96820000D01*
X114335300Y-96614066D01*
X114275232Y-96416046D01*
X114177685Y-96233550D01*
X114046410Y-96073590D01*
X113886450Y-95942315D01*
X113703954Y-95844768D01*
X113505934Y-95784700D01*
X113300000Y-95764417D01*
X113094065Y-95784700D01*
X113094064Y-95784700D01*
X112896043Y-95844769D01*
X112713548Y-95942316D01*
X112553590Y-96073590D01*
X112422316Y-96233548D01*
X112324769Y-96416043D01*
X112264700Y-96614064D01*
X112264700Y-96614065D01*
X112264700Y-96614066D01*
X112244417Y-96820000D01*
X109817814Y-96820000D01*
X109052462Y-96054648D01*
X109038110Y-96020000D01*
X109052462Y-95985352D01*
X110242962Y-94794852D01*
X110277610Y-94780500D01*
X111517117Y-94780500D01*
X111543735Y-94788360D01*
X112102236Y-95149744D01*
X112330425Y-95297396D01*
X112330430Y-95297399D01*
X112356407Y-95309339D01*
X112363167Y-95313120D01*
X112371764Y-95318865D01*
X112371767Y-95318866D01*
X112371769Y-95318867D01*
X112373597Y-95319230D01*
X112376080Y-95319725D01*
X112382113Y-95321444D01*
X112382117Y-95321433D01*
X112383287Y-95321779D01*
X112383740Y-95321908D01*
X112383788Y-95321925D01*
X112383802Y-95321932D01*
X112390151Y-95323809D01*
X112436768Y-95331910D01*
X112436770Y-95331911D01*
X112436770Y-95331910D01*
X112436771Y-95331911D01*
X112441042Y-95331187D01*
X112449222Y-95330500D01*
X114169745Y-95330500D01*
X114169748Y-95330500D01*
X114228231Y-95318867D01*
X114294552Y-95274552D01*
X114338867Y-95208231D01*
X114350500Y-95149748D01*
X114350500Y-93410252D01*
X114338867Y-93351769D01*
X114312301Y-93312012D01*
X114294552Y-93285447D01*
X114246875Y-93253591D01*
X114228231Y-93241133D01*
X114169748Y-93229500D01*
X112430252Y-93229500D01*
X112425266Y-93230491D01*
X112416517Y-93231163D01*
X112416520Y-93231202D01*
X112413779Y-93231392D01*
X112404974Y-93233008D01*
X112404972Y-93233008D01*
X112401439Y-93234411D01*
X112392925Y-93236924D01*
X112371769Y-93241132D01*
X112357436Y-93250708D01*
X112348298Y-93255505D01*
X112330432Y-93262598D01*
X112330423Y-93262603D01*
X111543734Y-93771639D01*
X111517115Y-93779500D01*
X109984105Y-93779500D01*
X109856815Y-93813607D01*
X109856811Y-93813608D01*
X109742685Y-93879500D01*
X109742685Y-93879501D01*
X108117038Y-95505148D01*
X108082390Y-95519500D01*
X100084105Y-95519500D01*
X99956815Y-95553607D01*
X99956811Y-95553608D01*
X99842685Y-95619500D01*
X99842685Y-95619501D01*
X96302685Y-99159501D01*
X96297863Y-99164322D01*
X96289714Y-99170888D01*
X96278873Y-99177855D01*
X96278871Y-99177856D01*
X96244602Y-99217406D01*
X96242218Y-99219966D01*
X95312686Y-100149500D01*
X95219501Y-100242685D01*
X95219500Y-100242685D01*
X95153608Y-100356811D01*
X95153607Y-100356815D01*
X95119500Y-100484104D01*
X95119500Y-105545895D01*
X95153607Y-105673184D01*
X95153608Y-105673188D01*
X95219500Y-105787314D01*
X99605148Y-110172962D01*
X99619500Y-110207610D01*
X99619500Y-110362390D01*
X99605148Y-110397038D01*
X99079023Y-110923162D01*
X99065513Y-110932720D01*
X97786058Y-111544529D01*
X97784142Y-111545671D01*
X97784102Y-111545605D01*
X97781889Y-111546988D01*
X97603550Y-111642315D01*
X97457161Y-111762451D01*
X97451584Y-111766198D01*
X97451593Y-111766211D01*
X97449597Y-111767559D01*
X97147624Y-112017949D01*
X97129030Y-112027559D01*
X97031814Y-112053607D01*
X97031811Y-112053608D01*
X96923642Y-112116061D01*
X96923641Y-112116062D01*
X96917689Y-112119497D01*
X96917683Y-112119502D01*
X96397620Y-112639564D01*
X96394249Y-112642635D01*
X96371856Y-112661203D01*
X96364409Y-112667684D01*
X96363649Y-112668379D01*
X96363645Y-112668384D01*
X96353975Y-112682168D01*
X96348510Y-112688674D01*
X95664148Y-113373037D01*
X95629500Y-113387389D01*
X95594852Y-113373037D01*
X95580500Y-113338389D01*
X95580500Y-111805255D01*
X95580500Y-111805252D01*
X95568867Y-111746769D01*
X95542247Y-111706930D01*
X95524552Y-111680447D01*
X95479361Y-111650252D01*
X95458231Y-111636133D01*
X95399748Y-111624500D01*
X93660252Y-111624500D01*
X93604730Y-111635544D01*
X93601769Y-111636133D01*
X93535447Y-111680447D01*
X93491133Y-111746769D01*
X93479500Y-111805252D01*
X93479500Y-113544748D01*
X93491133Y-113603231D01*
X93502004Y-113619500D01*
X93535447Y-113669552D01*
X93562012Y-113687301D01*
X93601769Y-113713867D01*
X93660252Y-113725500D01*
X94984975Y-113725500D01*
X95019623Y-113739852D01*
X95033975Y-113774500D01*
X95019623Y-113809148D01*
X95006113Y-113818706D01*
X94126058Y-114239529D01*
X94124142Y-114240671D01*
X94124102Y-114240605D01*
X94121889Y-114241988D01*
X93943550Y-114337315D01*
X93783590Y-114468590D01*
X93652316Y-114628548D01*
X93554769Y-114811043D01*
X93494700Y-115009064D01*
X93494700Y-115009065D01*
X93494700Y-115009066D01*
X93474417Y-115215000D01*
X88750500Y-115215000D01*
X88750500Y-90449500D01*
X88764852Y-90414852D01*
X88799500Y-90400500D01*
X115150500Y-90400500D01*
X115185148Y-90414852D01*
G37*
G04 #@! TD.AperFunction*
M02*
