M48
; DRILL file {KiCad 8.0.6-8.0.6-0~ubuntu24.04.1} date 2024-10-23T13:15:23+0300
; FORMAT={-:-/ absolute / inch / decimal}
; #@! TF.CreationDate,2024-10-23T13:15:23+03:00
; #@! TF.GenerationSoftware,Kicad,Pcbnew,8.0.6-8.0.6-0~ubuntu24.04.1
; #@! TF.FileFunction,Plated,1,2,PTH
FMAT,2
INCH
; #@! TA.AperFunction,Plated,PTH,ViaDrill
T1C0.0118
; #@! TA.AperFunction,Plated,PTH,ComponentDrill
T2C0.0394
%
G90
G05
T1
X3.7283Y-4.1043
X3.7303Y-4.1368
X3.7333Y-4.1752
X3.748Y-3.9222
X3.7598Y-4.2028
X3.7756Y-3.8937
X3.7854Y-4.2313
X3.7943Y-4.5305
X3.8012Y-3.8661
X3.8031Y-4.0756
X3.8035Y-3.9197
X3.811Y-4.2657
X3.814Y-4.1506
X3.8159Y-4.5
X3.8199Y-4.1171
X3.8307Y-3.8366
X3.8366Y-4.1713
X3.8425Y-4.2835
X3.8563Y-4.4941
X3.8602Y-3.81
X3.8701Y-4.31
X3.8878Y-3.7825
X3.9134Y-3.7569
X3.9163Y-3.8612
X3.937Y-3.8366
X3.9528Y-3.7461
X3.9685Y-3.8179
X3.9772Y-3.7803
X3.9813Y-4.4911
X3.9941Y-3.7441
X4.0118Y-4.3661
X4.0305Y-3.7431
X4.0364Y-4.3858
X4.0543Y-4.0386
X4.0669Y-3.7431
X4.1073Y-3.7451
X4.124Y-4.4705
X4.1496Y-3.7431
X4.1909Y-3.7451
X4.2136Y-4.3652
X4.2303Y-4.4833
X4.2323Y-4.3061
X4.2343Y-3.7441
X4.2667Y-3.7215
X4.2697Y-3.8386
X4.2795Y-4.2717
X4.2933Y-3.6969
X4.2963Y-3.8711
X4.3159Y-4.2648
X4.3179Y-4.4783
X4.3189Y-3.6762
X4.3425Y-3.81
X4.3494Y-3.748
X4.3524Y-4.2579
X4.3533Y-3.6781
X4.3642Y-4.4203
X4.3697Y-3.8858
X4.375Y-3.8366
X4.3848Y-3.6683
X4.3858Y-3.748
X4.3888Y-4.251
X4.3986Y-4.4606
X4.4272Y-4.2461
X4.437Y-4.497
X4.4626Y-4.2451
X4.4862Y-4.497
X4.4961Y-4.247
T2
X3.7217Y-4.436
X3.7217Y-4.536
X3.8654Y-4.5705
X3.8657Y-4.4299
X3.9654Y-4.5705
X3.9657Y-4.4299
X4.0654Y-4.5705
X4.1654Y-4.5705
X4.2654Y-4.5705
X4.3654Y-4.5705
X4.4606Y-3.7118
X4.4606Y-3.8118
X4.4606Y-3.9118
X4.4606Y-4.0118
X4.4634Y-4.3285
X4.4634Y-4.4285
X4.4654Y-4.5705
M30
