G04 #@! TF.GenerationSoftware,KiCad,Pcbnew,8.0.6-8.0.6-0~ubuntu24.04.1*
G04 #@! TF.CreationDate,2024-10-23T13:15:14+03:00*
G04 #@! TF.ProjectId,imager_ILI9431,696d6167-6572-45f4-994c-49393433312e,rev?*
G04 #@! TF.SameCoordinates,Original*
G04 #@! TF.FileFunction,Soldermask,Top*
G04 #@! TF.FilePolarity,Negative*
%FSLAX46Y46*%
G04 Gerber Fmt 4.6, Leading zero omitted, Abs format (unit mm)*
G04 Created by KiCad (PCBNEW 8.0.6-8.0.6-0~ubuntu24.04.1) date 2024-10-23 13:15:14*
%MOMM*%
%LPD*%
G01*
G04 APERTURE LIST*
G04 Aperture macros list*
%AMRoundRect*
0 Rectangle with rounded corners*
0 $1 Rounding radius*
0 $2 $3 $4 $5 $6 $7 $8 $9 X,Y pos of 4 corners*
0 Add a 4 corners polygon primitive as box body*
4,1,4,$2,$3,$4,$5,$6,$7,$8,$9,$2,$3,0*
0 Add four circle primitives for the rounded corners*
1,1,$1+$1,$2,$3*
1,1,$1+$1,$4,$5*
1,1,$1+$1,$6,$7*
1,1,$1+$1,$8,$9*
0 Add four rect primitives between the rounded corners*
20,1,$1+$1,$2,$3,$4,$5,0*
20,1,$1+$1,$4,$5,$6,$7,0*
20,1,$1+$1,$6,$7,$8,$9,0*
20,1,$1+$1,$8,$9,$2,$3,0*%
G04 Aperture macros list end*
%ADD10RoundRect,0.140000X0.170000X-0.140000X0.170000X0.140000X-0.170000X0.140000X-0.170000X-0.140000X0*%
%ADD11RoundRect,0.140000X-0.170000X0.140000X-0.170000X-0.140000X0.170000X-0.140000X0.170000X0.140000X0*%
%ADD12RoundRect,0.160000X-0.160000X0.197500X-0.160000X-0.197500X0.160000X-0.197500X0.160000X0.197500X0*%
%ADD13R,1.700000X1.700000*%
%ADD14O,1.700000X1.700000*%
%ADD15RoundRect,0.160000X-0.222500X-0.160000X0.222500X-0.160000X0.222500X0.160000X-0.222500X0.160000X0*%
%ADD16RoundRect,0.140000X0.140000X0.170000X-0.140000X0.170000X-0.140000X-0.170000X0.140000X-0.170000X0*%
%ADD17RoundRect,0.160000X0.197500X0.160000X-0.197500X0.160000X-0.197500X-0.160000X0.197500X-0.160000X0*%
%ADD18R,2.000000X7.875000*%
%ADD19RoundRect,0.140000X-0.140000X-0.170000X0.140000X-0.170000X0.140000X0.170000X-0.140000X0.170000X0*%
%ADD20RoundRect,0.075000X-0.662500X-0.075000X0.662500X-0.075000X0.662500X0.075000X-0.662500X0.075000X0*%
%ADD21RoundRect,0.075000X-0.075000X-0.662500X0.075000X-0.662500X0.075000X0.662500X-0.075000X0.662500X0*%
G04 APERTURE END LIST*
D10*
X95100000Y-101740000D03*
X95100000Y-100780000D03*
D11*
X111000000Y-99570000D03*
X111000000Y-100530000D03*
D12*
X98400000Y-104900000D03*
X98400000Y-106095000D03*
X102500000Y-108582500D03*
X102500000Y-109777500D03*
D13*
X94530000Y-112675000D03*
D14*
X94530000Y-115215000D03*
D10*
X96350000Y-102430000D03*
X96350000Y-101470000D03*
D15*
X97177500Y-107450000D03*
X98322500Y-107450000D03*
D10*
X97500000Y-99480000D03*
X97500000Y-98520000D03*
X98500000Y-99480000D03*
X98500000Y-98520000D03*
D13*
X113370000Y-109945000D03*
D14*
X113370000Y-112485000D03*
D16*
X107500000Y-108500000D03*
X106540000Y-108500000D03*
D10*
X98500000Y-103480000D03*
X98500000Y-102520000D03*
D17*
X101027500Y-108070000D03*
X99832500Y-108070000D03*
D18*
X91350000Y-94662500D03*
X91350000Y-106537500D03*
D13*
X98180000Y-116090000D03*
D14*
X100720000Y-116090000D03*
X103260000Y-116090000D03*
X105800000Y-116090000D03*
X108340000Y-116090000D03*
X110880000Y-116090000D03*
X113420000Y-116090000D03*
D19*
X102020000Y-96000000D03*
X102980000Y-96000000D03*
D13*
X100730000Y-112520000D03*
D14*
X98190000Y-112520000D03*
D10*
X97500000Y-103480000D03*
X97500000Y-102520000D03*
D20*
X100587500Y-99587500D03*
X100587500Y-100087500D03*
X100587500Y-100587500D03*
X100587500Y-101087500D03*
X100587500Y-101587500D03*
X100587500Y-102087500D03*
X100587500Y-102587500D03*
X100587500Y-103087500D03*
X100587500Y-103587500D03*
X100587500Y-104087500D03*
X100587500Y-104587500D03*
X100587500Y-105087500D03*
D21*
X102000000Y-106500000D03*
X102500000Y-106500000D03*
X103000000Y-106500000D03*
X103500000Y-106500000D03*
X104000000Y-106500000D03*
X104500000Y-106500000D03*
X105000000Y-106500000D03*
X105500000Y-106500000D03*
X106000000Y-106500000D03*
X106500000Y-106500000D03*
X107000000Y-106500000D03*
X107500000Y-106500000D03*
D20*
X108912500Y-105087500D03*
X108912500Y-104587500D03*
X108912500Y-104087500D03*
X108912500Y-103587500D03*
X108912500Y-103087500D03*
X108912500Y-102587500D03*
X108912500Y-102087500D03*
X108912500Y-101587500D03*
X108912500Y-101087500D03*
X108912500Y-100587500D03*
X108912500Y-100087500D03*
X108912500Y-99587500D03*
D21*
X107500000Y-98175000D03*
X107000000Y-98175000D03*
X106500000Y-98175000D03*
X106000000Y-98175000D03*
X105500000Y-98175000D03*
X105000000Y-98175000D03*
X104500000Y-98175000D03*
X104000000Y-98175000D03*
X103500000Y-98175000D03*
X103000000Y-98175000D03*
X102500000Y-98175000D03*
X102000000Y-98175000D03*
D13*
X113300000Y-94280000D03*
D14*
X113300000Y-96820000D03*
X113300000Y-99360000D03*
X113300000Y-101900000D03*
D17*
X98597500Y-101500000D03*
X97402500Y-101500000D03*
M02*
