G04 #@! TF.GenerationSoftware,KiCad,Pcbnew,8.0.6-8.0.6-0~ubuntu24.04.1*
G04 #@! TF.CreationDate,2024-10-23T13:15:13+03:00*
G04 #@! TF.ProjectId,imager_ILI9431,696d6167-6572-45f4-994c-49393433312e,rev?*
G04 #@! TF.SameCoordinates,Original*
G04 #@! TF.FileFunction,Copper,L1,Top*
G04 #@! TF.FilePolarity,Positive*
%FSLAX46Y46*%
G04 Gerber Fmt 4.6, Leading zero omitted, Abs format (unit mm)*
G04 Created by KiCad (PCBNEW 8.0.6-8.0.6-0~ubuntu24.04.1) date 2024-10-23 13:15:13*
%MOMM*%
%LPD*%
G01*
G04 APERTURE LIST*
G04 Aperture macros list*
%AMRoundRect*
0 Rectangle with rounded corners*
0 $1 Rounding radius*
0 $2 $3 $4 $5 $6 $7 $8 $9 X,Y pos of 4 corners*
0 Add a 4 corners polygon primitive as box body*
4,1,4,$2,$3,$4,$5,$6,$7,$8,$9,$2,$3,0*
0 Add four circle primitives for the rounded corners*
1,1,$1+$1,$2,$3*
1,1,$1+$1,$4,$5*
1,1,$1+$1,$6,$7*
1,1,$1+$1,$8,$9*
0 Add four rect primitives between the rounded corners*
20,1,$1+$1,$2,$3,$4,$5,0*
20,1,$1+$1,$4,$5,$6,$7,0*
20,1,$1+$1,$6,$7,$8,$9,0*
20,1,$1+$1,$8,$9,$2,$3,0*%
G04 Aperture macros list end*
G04 #@! TA.AperFunction,SMDPad,CuDef*
%ADD10RoundRect,0.140000X0.170000X-0.140000X0.170000X0.140000X-0.170000X0.140000X-0.170000X-0.140000X0*%
G04 #@! TD*
G04 #@! TA.AperFunction,SMDPad,CuDef*
%ADD11RoundRect,0.140000X-0.170000X0.140000X-0.170000X-0.140000X0.170000X-0.140000X0.170000X0.140000X0*%
G04 #@! TD*
G04 #@! TA.AperFunction,SMDPad,CuDef*
%ADD12RoundRect,0.160000X-0.160000X0.197500X-0.160000X-0.197500X0.160000X-0.197500X0.160000X0.197500X0*%
G04 #@! TD*
G04 #@! TA.AperFunction,ComponentPad*
%ADD13R,1.700000X1.700000*%
G04 #@! TD*
G04 #@! TA.AperFunction,ComponentPad*
%ADD14O,1.700000X1.700000*%
G04 #@! TD*
G04 #@! TA.AperFunction,SMDPad,CuDef*
%ADD15RoundRect,0.160000X-0.222500X-0.160000X0.222500X-0.160000X0.222500X0.160000X-0.222500X0.160000X0*%
G04 #@! TD*
G04 #@! TA.AperFunction,SMDPad,CuDef*
%ADD16RoundRect,0.140000X0.140000X0.170000X-0.140000X0.170000X-0.140000X-0.170000X0.140000X-0.170000X0*%
G04 #@! TD*
G04 #@! TA.AperFunction,SMDPad,CuDef*
%ADD17RoundRect,0.160000X0.197500X0.160000X-0.197500X0.160000X-0.197500X-0.160000X0.197500X-0.160000X0*%
G04 #@! TD*
G04 #@! TA.AperFunction,SMDPad,CuDef*
%ADD18R,2.000000X7.875000*%
G04 #@! TD*
G04 #@! TA.AperFunction,SMDPad,CuDef*
%ADD19RoundRect,0.140000X-0.140000X-0.170000X0.140000X-0.170000X0.140000X0.170000X-0.140000X0.170000X0*%
G04 #@! TD*
G04 #@! TA.AperFunction,SMDPad,CuDef*
%ADD20RoundRect,0.075000X-0.662500X-0.075000X0.662500X-0.075000X0.662500X0.075000X-0.662500X0.075000X0*%
G04 #@! TD*
G04 #@! TA.AperFunction,SMDPad,CuDef*
%ADD21RoundRect,0.075000X-0.075000X-0.662500X0.075000X-0.662500X0.075000X0.662500X-0.075000X0.662500X0*%
G04 #@! TD*
G04 #@! TA.AperFunction,ViaPad*
%ADD22C,0.600000*%
G04 #@! TD*
G04 #@! TA.AperFunction,Conductor*
%ADD23C,0.200000*%
G04 #@! TD*
G04 #@! TA.AperFunction,Conductor*
%ADD24C,0.600000*%
G04 #@! TD*
G04 #@! TA.AperFunction,Conductor*
%ADD25C,0.500000*%
G04 #@! TD*
G04 APERTURE END LIST*
D10*
X95100000Y-101740000D03*
X95100000Y-100780000D03*
D11*
X111000000Y-99570000D03*
X111000000Y-100530000D03*
D12*
X98400000Y-104900000D03*
X98400000Y-106095000D03*
X102500000Y-108582500D03*
X102500000Y-109777500D03*
D13*
X94530000Y-112675000D03*
D14*
X94530000Y-115215000D03*
D10*
X96350000Y-102430000D03*
X96350000Y-101470000D03*
D15*
X97177500Y-107450000D03*
X98322500Y-107450000D03*
D10*
X97500000Y-99480000D03*
X97500000Y-98520000D03*
X98500000Y-99480000D03*
X98500000Y-98520000D03*
D13*
X113370000Y-109945000D03*
D14*
X113370000Y-112485000D03*
D16*
X107500000Y-108500000D03*
X106540000Y-108500000D03*
D10*
X98500000Y-103480000D03*
X98500000Y-102520000D03*
D17*
X101027500Y-108070000D03*
X99832500Y-108070000D03*
D18*
X91350000Y-94662500D03*
X91350000Y-106537500D03*
D13*
X98180000Y-116090000D03*
D14*
X100720000Y-116090000D03*
X103260000Y-116090000D03*
X105800000Y-116090000D03*
X108340000Y-116090000D03*
X110880000Y-116090000D03*
X113420000Y-116090000D03*
D19*
X102020000Y-96000000D03*
X102980000Y-96000000D03*
D13*
X100730000Y-112520000D03*
D14*
X98190000Y-112520000D03*
D10*
X97500000Y-103480000D03*
X97500000Y-102520000D03*
D20*
X100587500Y-99587500D03*
X100587500Y-100087500D03*
X100587500Y-100587500D03*
X100587500Y-101087500D03*
X100587500Y-101587500D03*
X100587500Y-102087500D03*
X100587500Y-102587500D03*
X100587500Y-103087500D03*
X100587500Y-103587500D03*
X100587500Y-104087500D03*
X100587500Y-104587500D03*
X100587500Y-105087500D03*
D21*
X102000000Y-106500000D03*
X102500000Y-106500000D03*
X103000000Y-106500000D03*
X103500000Y-106500000D03*
X104000000Y-106500000D03*
X104500000Y-106500000D03*
X105000000Y-106500000D03*
X105500000Y-106500000D03*
X106000000Y-106500000D03*
X106500000Y-106500000D03*
X107000000Y-106500000D03*
X107500000Y-106500000D03*
D20*
X108912500Y-105087500D03*
X108912500Y-104587500D03*
X108912500Y-104087500D03*
X108912500Y-103587500D03*
X108912500Y-103087500D03*
X108912500Y-102587500D03*
X108912500Y-102087500D03*
X108912500Y-101587500D03*
X108912500Y-101087500D03*
X108912500Y-100587500D03*
X108912500Y-100087500D03*
X108912500Y-99587500D03*
D21*
X107500000Y-98175000D03*
X107000000Y-98175000D03*
X106500000Y-98175000D03*
X106000000Y-98175000D03*
X105500000Y-98175000D03*
X105000000Y-98175000D03*
X104500000Y-98175000D03*
X104000000Y-98175000D03*
X103500000Y-98175000D03*
X103000000Y-98175000D03*
X102500000Y-98175000D03*
X102000000Y-98175000D03*
D13*
X113300000Y-94280000D03*
D14*
X113300000Y-96820000D03*
X113300000Y-99360000D03*
X113300000Y-101900000D03*
D17*
X98597500Y-101500000D03*
X97402500Y-101500000D03*
D22*
X96600000Y-103520000D03*
X107500000Y-109375000D03*
X110990000Y-98700000D03*
X96610000Y-99560000D03*
X101020000Y-96020000D03*
X107550000Y-95100000D03*
X97025000Y-104575000D03*
X96925000Y-114300000D03*
X95500000Y-106750000D03*
X101450000Y-95100000D03*
X107450000Y-113875000D03*
X114200000Y-107875000D03*
X100000000Y-97450000D03*
X98300000Y-109475000D03*
X96875000Y-105425000D03*
X102525000Y-111400000D03*
X107025000Y-110875000D03*
X95200000Y-99625000D03*
X100400000Y-95150000D03*
X113950000Y-114225000D03*
X95900000Y-98900000D03*
X109700000Y-93375000D03*
X97450000Y-105950000D03*
X106450000Y-95125000D03*
X109675000Y-113750000D03*
X111375000Y-93175000D03*
X109125000Y-98325000D03*
X96375000Y-115075000D03*
X99475000Y-98075000D03*
X98050000Y-96775000D03*
X101125000Y-114075000D03*
X94700000Y-104250000D03*
X97300000Y-97450000D03*
X110550000Y-108150000D03*
X97950000Y-114150000D03*
X112700000Y-114225000D03*
X104750000Y-113550000D03*
X100800000Y-96975000D03*
X113350000Y-107825000D03*
X111475000Y-107975000D03*
X104325000Y-95125000D03*
X109625000Y-108325000D03*
X108700000Y-108500000D03*
X110475000Y-95200000D03*
X108450000Y-97500000D03*
X108375000Y-94525000D03*
X112450000Y-107850000D03*
X109050000Y-93900000D03*
X102375000Y-95075000D03*
X110300000Y-96775000D03*
X96800000Y-108350000D03*
X103300000Y-95075000D03*
X110850000Y-112275000D03*
X111125000Y-97450000D03*
X105400000Y-95075000D03*
X111400000Y-95200000D03*
X96550000Y-98200000D03*
X96150000Y-107475000D03*
X110575000Y-93425000D03*
X101900000Y-110900000D03*
X99400000Y-95425000D03*
X111725000Y-113300000D03*
X94750000Y-105075000D03*
X98750000Y-96075000D03*
X97600000Y-108800000D03*
X94825000Y-106050000D03*
X102980000Y-102580000D03*
D23*
X107500000Y-106500000D02*
X107500000Y-108500000D01*
D24*
X97500000Y-99480000D02*
X98500000Y-99480000D01*
X110990000Y-99560000D02*
X111000000Y-99570000D01*
D23*
X98607500Y-99587500D02*
X98500000Y-99480000D01*
D24*
X101020000Y-96020000D02*
X102000000Y-96020000D01*
X110990000Y-98700000D02*
X110990000Y-99560000D01*
D23*
X98607500Y-103587500D02*
X98500000Y-103480000D01*
X100587500Y-99587500D02*
X98607500Y-99587500D01*
D24*
X96600000Y-103520000D02*
X97460000Y-103520000D01*
D23*
X102000000Y-98175000D02*
X102000000Y-96020000D01*
D24*
X96610000Y-99560000D02*
X96690000Y-99480000D01*
X97460000Y-103520000D02*
X97500000Y-103480000D01*
X102000000Y-96020000D02*
X102020000Y-96000000D01*
D23*
X100587500Y-103587500D02*
X98607500Y-103587500D01*
D24*
X96690000Y-99480000D02*
X97500000Y-99480000D01*
D23*
X108912500Y-99587500D02*
X110982500Y-99587500D01*
X110982500Y-99587500D02*
X111000000Y-99570000D01*
D24*
X107500000Y-109375000D02*
X107500000Y-108500000D01*
D25*
X98500000Y-103480000D02*
X97500000Y-103480000D01*
D23*
X96380000Y-101500000D02*
X96350000Y-101470000D01*
X91350000Y-104480000D02*
X91350000Y-106537500D01*
X96350000Y-101470000D02*
X94850000Y-102970000D01*
X94850000Y-102970000D02*
X92860000Y-102970000D01*
X92860000Y-102970000D02*
X91350000Y-104480000D01*
X97402500Y-101500000D02*
X96380000Y-101500000D01*
X100587500Y-101587500D02*
X99787500Y-101587500D01*
X91350000Y-97610000D02*
X91350000Y-94662500D01*
X99787500Y-101587500D02*
X98980000Y-100780000D01*
X94520000Y-100780000D02*
X91350000Y-97610000D01*
X95100000Y-100780000D02*
X94520000Y-100780000D01*
X98980000Y-100780000D02*
X95100000Y-100780000D01*
X98400000Y-107372500D02*
X98322500Y-107450000D01*
D25*
X98400000Y-106095000D02*
X98400000Y-107372500D01*
D23*
X107500000Y-98175000D02*
X107500000Y-96800000D01*
X107500000Y-96800000D02*
X108280000Y-96020000D01*
X112500000Y-96020000D02*
X113300000Y-96820000D01*
X108280000Y-96020000D02*
X112500000Y-96020000D01*
X108912500Y-100587500D02*
X110121366Y-100587500D01*
X110121366Y-100587500D02*
X111433866Y-101900000D01*
X111433866Y-101900000D02*
X113300000Y-101900000D01*
X100587500Y-102087500D02*
X99185000Y-102087500D01*
X99185000Y-102087500D02*
X98597500Y-101500000D01*
X99212500Y-104087500D02*
X98400000Y-104900000D01*
X100587500Y-104087500D02*
X99212500Y-104087500D01*
X102000000Y-107550000D02*
X101480000Y-108070000D01*
X102000000Y-106500000D02*
X102000000Y-107550000D01*
X101480000Y-108070000D02*
X101027500Y-108070000D01*
X101013654Y-108070000D02*
X96408654Y-112675000D01*
X96408654Y-112675000D02*
X94530000Y-112675000D01*
X101027500Y-108070000D02*
X101013654Y-108070000D01*
X102500000Y-108582500D02*
X100730000Y-110352500D01*
X100730000Y-110352500D02*
X100730000Y-112520000D01*
X102500000Y-106500000D02*
X102500000Y-108582500D01*
X105000000Y-110210000D02*
X110880000Y-116090000D01*
X105000000Y-106500000D02*
X105000000Y-110210000D01*
X104000000Y-106500000D02*
X104000000Y-114290000D01*
X104000000Y-114290000D02*
X105800000Y-116090000D01*
X104500000Y-112250000D02*
X108340000Y-116090000D01*
X104500000Y-106500000D02*
X104500000Y-112250000D01*
X113193866Y-116090000D02*
X113420000Y-116090000D01*
X105960000Y-108856134D02*
X113193866Y-116090000D01*
X106000000Y-106500000D02*
X105960000Y-106540000D01*
X105960000Y-106540000D02*
X105960000Y-108856134D01*
X103000000Y-106500000D02*
X103000000Y-108070028D01*
X103260000Y-108330028D02*
X103260000Y-116090000D01*
X103000000Y-108070028D02*
X103260000Y-108330028D01*
X102972500Y-102587500D02*
X102980000Y-102580000D01*
X100587500Y-102587500D02*
X102972500Y-102587500D01*
G04 #@! TA.AperFunction,Conductor*
G36*
X106008014Y-106554127D02*
G01*
X106009668Y-106558495D01*
X106117102Y-107219585D01*
X106116601Y-107225317D01*
X106062738Y-107379655D01*
X106056776Y-107386337D01*
X106051691Y-107387500D01*
X105871191Y-107387500D01*
X105862918Y-107384073D01*
X105859503Y-107376320D01*
X105850510Y-107173975D01*
X105850499Y-107173540D01*
X105850499Y-107161585D01*
X105850785Y-107159023D01*
X105986708Y-106557790D01*
X105991875Y-106550478D01*
X106000700Y-106548960D01*
X106008014Y-106554127D01*
G37*
G04 #@! TD.AperFunction*
G04 #@! TA.AperFunction,Conductor*
G36*
X101293465Y-107764179D02*
G01*
X101565415Y-107839369D01*
X101570570Y-107842373D01*
X101701298Y-107973101D01*
X101704725Y-107981374D01*
X101701298Y-107989647D01*
X101701062Y-107989877D01*
X101363852Y-108308580D01*
X101355485Y-108311772D01*
X101348847Y-108309476D01*
X101036785Y-108078115D01*
X101032180Y-108070435D01*
X101034354Y-108061748D01*
X101034781Y-108061206D01*
X101281396Y-107767926D01*
X101289342Y-107763800D01*
X101293465Y-107764179D01*
G37*
G04 #@! TD.AperFunction*
G04 #@! TA.AperFunction,Conductor*
G36*
X96582607Y-101205645D02*
G01*
X96791869Y-101319444D01*
X96933890Y-101396677D01*
X96939520Y-101403639D01*
X96940000Y-101406955D01*
X96940000Y-101591931D01*
X96936573Y-101600204D01*
X96932459Y-101602867D01*
X96581376Y-101736376D01*
X96572425Y-101736114D01*
X96568231Y-101732933D01*
X96459783Y-101602867D01*
X96355259Y-101477507D01*
X96352594Y-101468960D01*
X96355275Y-101462506D01*
X96568048Y-101208410D01*
X96575985Y-101204269D01*
X96582607Y-101205645D01*
G37*
G04 #@! TD.AperFunction*
G04 #@! TA.AperFunction,Conductor*
G36*
X98849290Y-104320429D02*
G01*
X98979379Y-104450518D01*
X98982806Y-104458791D01*
X98981735Y-104463681D01*
X98724693Y-105022347D01*
X98718122Y-105028431D01*
X98709615Y-105028278D01*
X98404675Y-104902919D01*
X98398327Y-104896604D01*
X98397810Y-104895078D01*
X98307535Y-104552309D01*
X98308742Y-104543436D01*
X98314294Y-104538552D01*
X98836463Y-104317924D01*
X98845418Y-104317861D01*
X98849290Y-104320429D01*
G37*
G04 #@! TD.AperFunction*
G04 #@! TA.AperFunction,Conductor*
G36*
X98779209Y-99250749D02*
G01*
X99079667Y-99479629D01*
X99085390Y-99483988D01*
X99089894Y-99491727D01*
X99090000Y-99493295D01*
X99090000Y-99677647D01*
X99086573Y-99685920D01*
X99080290Y-99689176D01*
X98677832Y-99758647D01*
X98669097Y-99756678D01*
X98665857Y-99753216D01*
X98507119Y-99493295D01*
X98504175Y-99488475D01*
X98502788Y-99479629D01*
X98506521Y-99473517D01*
X98764482Y-99251192D01*
X98772985Y-99248388D01*
X98779209Y-99250749D01*
G37*
G04 #@! TD.AperFunction*
G04 #@! TA.AperFunction,Conductor*
G36*
X109755490Y-114819504D02*
G01*
X111193396Y-115300724D01*
X111200154Y-115306599D01*
X111200778Y-115315532D01*
X111200497Y-115316285D01*
X110882562Y-116086214D01*
X110876237Y-116092553D01*
X110876214Y-116092562D01*
X110106285Y-116410497D01*
X110097330Y-116410488D01*
X110091005Y-116404149D01*
X110090724Y-116403396D01*
X109986695Y-116092553D01*
X109609505Y-114965492D01*
X109610129Y-114956562D01*
X109612324Y-114953512D01*
X109743510Y-114822326D01*
X109751782Y-114818900D01*
X109755490Y-114819504D01*
G37*
G04 #@! TD.AperFunction*
G04 #@! TA.AperFunction,Conductor*
G36*
X105009787Y-106549924D02*
G01*
X105011454Y-106553947D01*
X105143772Y-107188715D01*
X105143731Y-107193678D01*
X105102059Y-107378375D01*
X105096895Y-107385691D01*
X105090646Y-107387500D01*
X104909354Y-107387500D01*
X104901081Y-107384073D01*
X104897941Y-107378375D01*
X104856268Y-107193678D01*
X104856227Y-107188715D01*
X104988546Y-106553947D01*
X104993589Y-106546548D01*
X105002388Y-106544881D01*
X105009787Y-106549924D01*
G37*
G04 #@! TD.AperFunction*
G04 #@! TA.AperFunction,Conductor*
G36*
X109606178Y-99443768D02*
G01*
X109694697Y-99463740D01*
X109790875Y-99485441D01*
X109798191Y-99490605D01*
X109800000Y-99496854D01*
X109800000Y-99678145D01*
X109796573Y-99686418D01*
X109790875Y-99689558D01*
X109606178Y-99731231D01*
X109601215Y-99731272D01*
X109075216Y-99621627D01*
X108966446Y-99598953D01*
X108959048Y-99593911D01*
X108957381Y-99585112D01*
X108962424Y-99577713D01*
X108966446Y-99576046D01*
X109601215Y-99443727D01*
X109606178Y-99443768D01*
G37*
G04 #@! TD.AperFunction*
G04 #@! TA.AperFunction,Conductor*
G36*
X98954063Y-101408742D02*
G01*
X98958947Y-101414295D01*
X99179574Y-101936463D01*
X99179638Y-101945418D01*
X99177070Y-101949290D01*
X99046981Y-102079379D01*
X99038708Y-102082806D01*
X99033818Y-102081735D01*
X98475152Y-101824693D01*
X98469068Y-101818122D01*
X98469221Y-101809615D01*
X98594580Y-101504675D01*
X98600895Y-101498327D01*
X98602411Y-101497813D01*
X98945191Y-101407535D01*
X98954063Y-101408742D01*
G37*
G04 #@! TD.AperFunction*
G04 #@! TA.AperFunction,Conductor*
G36*
X100533552Y-99576046D02*
G01*
X100540951Y-99581089D01*
X100542618Y-99589888D01*
X100537575Y-99597287D01*
X100533552Y-99598954D01*
X99898784Y-99731272D01*
X99893821Y-99731231D01*
X99709125Y-99689558D01*
X99701809Y-99684394D01*
X99700000Y-99678145D01*
X99700000Y-99496854D01*
X99703427Y-99488581D01*
X99709124Y-99485441D01*
X99893821Y-99443767D01*
X99898784Y-99443727D01*
X100533552Y-99576046D01*
G37*
G04 #@! TD.AperFunction*
G04 #@! TA.AperFunction,Conductor*
G36*
X90206591Y-90419407D02*
G01*
X90242555Y-90468907D01*
X90242555Y-90530093D01*
X90211552Y-90572763D01*
X90212343Y-90573554D01*
X90207353Y-90578543D01*
X90206591Y-90579593D01*
X90205644Y-90580252D01*
X90205445Y-90580451D01*
X90161134Y-90646766D01*
X90161132Y-90646772D01*
X90149501Y-90705241D01*
X90149500Y-90705253D01*
X90149500Y-98619746D01*
X90149501Y-98619758D01*
X90161132Y-98678227D01*
X90161134Y-98678233D01*
X90204328Y-98742876D01*
X90205448Y-98744552D01*
X90271769Y-98788867D01*
X90316231Y-98797711D01*
X90330241Y-98800498D01*
X90330246Y-98800498D01*
X90330252Y-98800500D01*
X92074521Y-98800500D01*
X92132712Y-98819407D01*
X92144525Y-98829496D01*
X94279540Y-100964511D01*
X94279539Y-100964511D01*
X94335486Y-101020457D01*
X94335489Y-101020460D01*
X94404011Y-101060021D01*
X94429798Y-101066930D01*
X94446553Y-101073085D01*
X94780256Y-101231178D01*
X94809456Y-101240513D01*
X94810445Y-101240829D01*
X94822135Y-101245402D01*
X94840513Y-101253972D01*
X94890099Y-101260500D01*
X95309900Y-101260499D01*
X95316965Y-101259568D01*
X95359483Y-101253973D01*
X95359483Y-101253972D01*
X95359487Y-101253972D01*
X95384961Y-101242092D01*
X95403585Y-101235578D01*
X95417933Y-101232120D01*
X95723019Y-101091123D01*
X95783771Y-101083875D01*
X95837183Y-101113721D01*
X95862852Y-101169262D01*
X95854274Y-101222829D01*
X95846028Y-101240511D01*
X95839500Y-101290100D01*
X95839500Y-101307366D01*
X95830723Y-101348119D01*
X95692001Y-101655231D01*
X95692001Y-101655232D01*
X95660066Y-101725931D01*
X95639846Y-101755181D01*
X95194529Y-102200500D01*
X94754525Y-102640504D01*
X94700008Y-102668281D01*
X94684521Y-102669500D01*
X92820435Y-102669500D01*
X92744014Y-102689977D01*
X92744009Y-102689979D01*
X92698999Y-102715966D01*
X92639150Y-102728687D01*
X92583255Y-102703800D01*
X92552663Y-102650811D01*
X92550500Y-102630229D01*
X92550500Y-102580253D01*
X92550498Y-102580241D01*
X92547711Y-102566231D01*
X92538867Y-102521769D01*
X92494552Y-102455448D01*
X92467756Y-102437543D01*
X92428233Y-102411134D01*
X92428231Y-102411133D01*
X92428228Y-102411132D01*
X92428227Y-102411132D01*
X92369758Y-102399501D01*
X92369748Y-102399500D01*
X90330252Y-102399500D01*
X90330251Y-102399500D01*
X90330241Y-102399501D01*
X90271772Y-102411132D01*
X90271766Y-102411134D01*
X90205451Y-102455445D01*
X90205445Y-102455451D01*
X90161134Y-102521766D01*
X90161132Y-102521772D01*
X90149501Y-102580241D01*
X90149500Y-102580253D01*
X90149500Y-110494746D01*
X90149501Y-110494758D01*
X90161132Y-110553227D01*
X90161134Y-110553233D01*
X90203267Y-110616288D01*
X90205448Y-110619552D01*
X90271769Y-110663867D01*
X90316231Y-110672711D01*
X90330241Y-110675498D01*
X90330246Y-110675498D01*
X90330252Y-110675500D01*
X90330253Y-110675500D01*
X92369747Y-110675500D01*
X92369748Y-110675500D01*
X92428231Y-110663867D01*
X92494552Y-110619552D01*
X92538867Y-110553231D01*
X92550500Y-110494748D01*
X92550500Y-103745479D01*
X92569407Y-103687288D01*
X92579496Y-103675475D01*
X92734973Y-103519998D01*
X96094353Y-103519998D01*
X96094353Y-103520001D01*
X96098492Y-103548786D01*
X96099500Y-103562876D01*
X96099500Y-103585893D01*
X96107310Y-103615042D01*
X96109675Y-103626572D01*
X96114835Y-103662457D01*
X96123937Y-103682388D01*
X96129506Y-103697881D01*
X96131273Y-103704471D01*
X96133608Y-103713186D01*
X96152277Y-103745523D01*
X96156592Y-103753893D01*
X96174622Y-103793373D01*
X96184259Y-103804494D01*
X96195172Y-103819820D01*
X96199497Y-103827310D01*
X96199498Y-103827311D01*
X96199500Y-103827314D01*
X96230961Y-103858775D01*
X96235764Y-103863934D01*
X96268872Y-103902143D01*
X96275186Y-103906201D01*
X96291662Y-103919476D01*
X96292686Y-103920500D01*
X96330708Y-103942452D01*
X96337392Y-103946311D01*
X96341414Y-103948763D01*
X96365575Y-103964290D01*
X96389947Y-103979953D01*
X96390046Y-103979982D01*
X96390215Y-103980032D01*
X96400584Y-103984474D01*
X96400819Y-103983909D01*
X96406809Y-103986389D01*
X96406814Y-103986392D01*
X96463579Y-104001601D01*
X96465813Y-104002228D01*
X96476814Y-104005458D01*
X96528033Y-104020499D01*
X96528038Y-104020499D01*
X96528039Y-104020500D01*
X96528040Y-104020500D01*
X97525890Y-104020500D01*
X97525892Y-104020500D01*
X97653186Y-103986392D01*
X97671343Y-103975909D01*
X97713791Y-103962896D01*
X97825452Y-103954919D01*
X97992957Y-103942955D01*
X98007041Y-103942955D01*
X98252658Y-103960499D01*
X98308236Y-103964469D01*
X98308239Y-103964469D01*
X98308252Y-103964470D01*
X98308266Y-103964469D01*
X98308269Y-103964470D01*
X98321361Y-103964395D01*
X98339869Y-103964290D01*
X98343452Y-103963993D01*
X98363293Y-103961359D01*
X98376315Y-103960499D01*
X98665726Y-103960499D01*
X98723917Y-103979406D01*
X98759881Y-104028906D01*
X98759881Y-104090092D01*
X98723917Y-104139592D01*
X98704257Y-104150693D01*
X98269955Y-104334194D01*
X98231427Y-104342000D01*
X98205791Y-104342000D01*
X98205786Y-104342001D01*
X98135712Y-104352209D01*
X98027626Y-104405050D01*
X97942549Y-104490127D01*
X97889709Y-104598214D01*
X97879500Y-104668288D01*
X97879500Y-105131709D01*
X97879501Y-105131712D01*
X97889709Y-105201787D01*
X97923055Y-105269996D01*
X97942551Y-105309875D01*
X98027625Y-105394949D01*
X98027626Y-105394949D01*
X98027628Y-105394951D01*
X98055462Y-105408558D01*
X98099437Y-105451100D01*
X98110007Y-105511366D01*
X98083135Y-105566335D01*
X98055466Y-105586438D01*
X98027631Y-105600046D01*
X98027628Y-105600049D01*
X98027626Y-105600050D01*
X98027625Y-105600051D01*
X97942551Y-105685125D01*
X97942549Y-105685127D01*
X97920612Y-105730001D01*
X97889709Y-105793214D01*
X97887210Y-105810370D01*
X97879500Y-105863288D01*
X97879500Y-106293417D01*
X97879368Y-106298519D01*
X97877757Y-106329736D01*
X97877757Y-106329746D01*
X97939931Y-106756082D01*
X97935753Y-106802072D01*
X97870472Y-106995185D01*
X97846691Y-107033483D01*
X97802551Y-107077624D01*
X97758888Y-107166939D01*
X97749709Y-107185714D01*
X97741958Y-107238918D01*
X97739500Y-107255788D01*
X97739500Y-107644209D01*
X97739500Y-107644211D01*
X97739501Y-107644214D01*
X97749709Y-107714286D01*
X97802551Y-107822375D01*
X97887625Y-107907449D01*
X97995714Y-107960291D01*
X98065785Y-107970500D01*
X98579214Y-107970499D01*
X98649286Y-107960291D01*
X98757375Y-107907449D01*
X98842449Y-107822375D01*
X98895291Y-107714286D01*
X98905500Y-107644215D01*
X98905499Y-107255786D01*
X98895291Y-107185714D01*
X98886109Y-107166933D01*
X98876252Y-107129742D01*
X98866234Y-106972242D01*
X98855500Y-106803450D01*
X98856353Y-106803395D01*
X98856244Y-106782302D01*
X98922242Y-106329742D01*
X98924204Y-106291275D01*
X98924017Y-106286918D01*
X98921100Y-106260136D01*
X98921099Y-106260134D01*
X98921081Y-106259965D01*
X98920499Y-106249244D01*
X98920499Y-105863290D01*
X98920499Y-105863286D01*
X98910291Y-105793214D01*
X98857449Y-105685125D01*
X98772375Y-105600051D01*
X98772373Y-105600050D01*
X98772372Y-105600049D01*
X98744536Y-105586441D01*
X98700562Y-105543898D01*
X98689992Y-105483632D01*
X98716864Y-105428664D01*
X98744536Y-105408559D01*
X98753215Y-105404315D01*
X98772375Y-105394949D01*
X98857449Y-105309875D01*
X98910291Y-105201786D01*
X98920500Y-105131715D01*
X98920499Y-105110104D01*
X98929561Y-105068725D01*
X99155077Y-104578581D01*
X99175006Y-104549963D01*
X99307975Y-104416996D01*
X99362492Y-104389219D01*
X99377978Y-104388000D01*
X99550500Y-104388000D01*
X99608691Y-104406907D01*
X99644655Y-104456407D01*
X99649500Y-104487000D01*
X99649500Y-104689629D01*
X99649501Y-104689637D01*
X99665484Y-104769994D01*
X99665486Y-104769998D01*
X99673840Y-104782501D01*
X99690447Y-104841389D01*
X99673840Y-104892499D01*
X99665485Y-104905003D01*
X99665484Y-104905004D01*
X99649500Y-104985364D01*
X99649500Y-105189629D01*
X99649501Y-105189637D01*
X99665484Y-105269994D01*
X99665485Y-105269996D01*
X99692132Y-105309875D01*
X99726376Y-105361124D01*
X99817505Y-105422015D01*
X99897867Y-105438000D01*
X101277132Y-105437999D01*
X101357495Y-105422015D01*
X101448624Y-105361124D01*
X101509515Y-105269995D01*
X101525500Y-105189633D01*
X101525499Y-104985368D01*
X101509515Y-104905005D01*
X101501159Y-104892499D01*
X101484551Y-104833614D01*
X101501159Y-104782499D01*
X101509515Y-104769995D01*
X101525500Y-104689633D01*
X101525499Y-104485368D01*
X101509515Y-104405005D01*
X101501159Y-104392499D01*
X101484551Y-104333614D01*
X101501159Y-104282499D01*
X101509515Y-104269995D01*
X101525500Y-104189633D01*
X101525499Y-103985368D01*
X101524421Y-103979950D01*
X101509515Y-103905006D01*
X101509515Y-103905005D01*
X101501159Y-103892499D01*
X101484551Y-103833614D01*
X101501159Y-103782499D01*
X101509515Y-103769995D01*
X101525500Y-103689633D01*
X101525499Y-103485368D01*
X101519281Y-103454108D01*
X101509515Y-103405005D01*
X101509514Y-103405003D01*
X101448626Y-103313879D01*
X101448624Y-103313876D01*
X101419589Y-103294475D01*
X101357497Y-103252986D01*
X101357496Y-103252985D01*
X101357495Y-103252985D01*
X101277133Y-103237000D01*
X101277132Y-103237000D01*
X99897870Y-103237000D01*
X99897860Y-103237001D01*
X99894426Y-103237684D01*
X99886505Y-103238926D01*
X99848581Y-103243307D01*
X99691941Y-103278651D01*
X99665700Y-103284572D01*
X99643912Y-103287000D01*
X99199332Y-103287000D01*
X99141141Y-103268093D01*
X99139341Y-103266753D01*
X98970133Y-103137856D01*
X98903737Y-103087277D01*
X98903726Y-103087270D01*
X98900743Y-103085321D01*
X98900969Y-103084975D01*
X98882866Y-103071326D01*
X98868316Y-103056776D01*
X98868314Y-103056775D01*
X98868313Y-103056774D01*
X98759489Y-103006029D01*
X98759488Y-103006028D01*
X98734694Y-103002764D01*
X98709901Y-102999500D01*
X98709900Y-102999500D01*
X98346054Y-102999500D01*
X98333713Y-102998728D01*
X98308247Y-102995528D01*
X98007056Y-103017043D01*
X97992949Y-103017043D01*
X97691759Y-102995530D01*
X97691755Y-102995529D01*
X97691743Y-102995529D01*
X97691731Y-102995529D01*
X97691729Y-102995529D01*
X97662216Y-102995698D01*
X97660107Y-102995711D01*
X97660104Y-102995711D01*
X97656513Y-102996009D01*
X97655312Y-102996139D01*
X97655287Y-102995913D01*
X97618046Y-102993473D01*
X97565895Y-102979500D01*
X97565893Y-102979500D01*
X97434108Y-102979500D01*
X97434106Y-102979500D01*
X97372050Y-102996127D01*
X97346431Y-102999500D01*
X97290104Y-102999500D01*
X97290092Y-102999501D01*
X97240513Y-103006027D01*
X97240511Y-103006027D01*
X97231513Y-103010224D01*
X97189674Y-103019500D01*
X96528035Y-103019500D01*
X96465845Y-103037761D01*
X96463579Y-103038397D01*
X96406815Y-103053607D01*
X96400818Y-103056091D01*
X96400589Y-103055539D01*
X96390245Y-103059958D01*
X96389954Y-103060043D01*
X96389944Y-103060048D01*
X96341410Y-103091238D01*
X96337391Y-103093688D01*
X96292684Y-103119500D01*
X96292682Y-103119502D01*
X96291658Y-103120527D01*
X96275200Y-103133789D01*
X96268872Y-103137856D01*
X96268871Y-103137857D01*
X96235768Y-103176059D01*
X96230956Y-103181227D01*
X96199500Y-103212685D01*
X96199499Y-103212686D01*
X96195172Y-103220180D01*
X96184266Y-103235496D01*
X96174622Y-103246627D01*
X96174621Y-103246628D01*
X96156591Y-103286107D01*
X96152277Y-103294475D01*
X96133608Y-103326813D01*
X96133607Y-103326813D01*
X96129507Y-103342117D01*
X96123938Y-103357608D01*
X96114835Y-103377543D01*
X96109674Y-103413430D01*
X96107310Y-103424953D01*
X96099500Y-103454104D01*
X96099500Y-103477122D01*
X96098492Y-103491211D01*
X96094353Y-103519998D01*
X92734973Y-103519998D01*
X92955475Y-103299496D01*
X93009992Y-103271719D01*
X93025479Y-103270500D01*
X94889563Y-103270500D01*
X94889563Y-103270499D01*
X94965989Y-103250021D01*
X95034511Y-103210460D01*
X95068912Y-103176059D01*
X95090461Y-103154511D01*
X96067017Y-102177953D01*
X96093816Y-102158882D01*
X96503030Y-101960421D01*
X96546230Y-101950499D01*
X96559897Y-101950499D01*
X96559900Y-101950499D01*
X96566965Y-101949568D01*
X96609483Y-101943973D01*
X96609483Y-101943972D01*
X96609487Y-101943972D01*
X96624003Y-101937202D01*
X96649377Y-101929306D01*
X96654420Y-101928456D01*
X96766930Y-101885669D01*
X96828041Y-101882659D01*
X96846129Y-101889525D01*
X97044195Y-101987819D01*
X97071874Y-101997126D01*
X97083804Y-102002023D01*
X97100714Y-102010291D01*
X97170785Y-102020500D01*
X97634214Y-102020499D01*
X97704286Y-102010291D01*
X97812375Y-101957449D01*
X97897449Y-101872375D01*
X97911058Y-101844536D01*
X97953599Y-101800563D01*
X98013865Y-101789992D01*
X98068834Y-101816863D01*
X98088939Y-101844534D01*
X98102548Y-101872371D01*
X98102550Y-101872373D01*
X98102551Y-101872375D01*
X98187625Y-101957449D01*
X98295714Y-102010291D01*
X98365785Y-102020500D01*
X98387392Y-102020499D01*
X98428773Y-102029561D01*
X98918914Y-102255075D01*
X98947536Y-102275008D01*
X99000489Y-102327960D01*
X99069007Y-102367519D01*
X99069011Y-102367521D01*
X99145435Y-102387999D01*
X99145437Y-102388000D01*
X99145438Y-102388000D01*
X99224562Y-102388000D01*
X99550500Y-102388000D01*
X99608691Y-102406907D01*
X99644655Y-102456407D01*
X99649500Y-102487000D01*
X99649500Y-102689629D01*
X99649501Y-102689637D01*
X99665484Y-102769994D01*
X99665485Y-102769996D01*
X99721197Y-102853373D01*
X99726376Y-102861124D01*
X99817505Y-102922015D01*
X99897867Y-102938000D01*
X101277132Y-102937999D01*
X101280529Y-102937323D01*
X101288464Y-102936078D01*
X101326399Y-102931693D01*
X101326403Y-102931693D01*
X101326406Y-102931692D01*
X101326408Y-102931692D01*
X101369306Y-102922013D01*
X101509296Y-102890428D01*
X101531085Y-102888000D01*
X102315382Y-102888000D01*
X102348150Y-102893580D01*
X102543621Y-102962144D01*
X102647401Y-102998546D01*
X102786139Y-103047210D01*
X102786188Y-103047227D01*
X102786810Y-103047445D01*
X102798991Y-103049353D01*
X102811550Y-103052168D01*
X102908039Y-103080500D01*
X102908040Y-103080500D01*
X103051959Y-103080500D01*
X103051961Y-103080500D01*
X103190053Y-103039953D01*
X103311128Y-102962143D01*
X103405377Y-102853373D01*
X103465165Y-102722457D01*
X103485611Y-102580252D01*
X103485647Y-102580002D01*
X103485647Y-102579997D01*
X103465165Y-102437543D01*
X103450304Y-102405003D01*
X103405377Y-102306627D01*
X103311128Y-102197857D01*
X103311127Y-102197856D01*
X103311126Y-102197855D01*
X103190057Y-102120049D01*
X103190054Y-102120047D01*
X103190053Y-102120047D01*
X103190050Y-102120046D01*
X103051964Y-102079500D01*
X103051961Y-102079500D01*
X102908039Y-102079500D01*
X102908035Y-102079500D01*
X102801564Y-102110763D01*
X102790263Y-102113373D01*
X102781311Y-102114894D01*
X102781303Y-102114896D01*
X102347554Y-102280489D01*
X102312244Y-102287000D01*
X101624500Y-102287000D01*
X101566309Y-102268093D01*
X101530345Y-102218593D01*
X101525500Y-102188000D01*
X101525499Y-101985370D01*
X101525498Y-101985362D01*
X101509515Y-101905006D01*
X101509515Y-101905005D01*
X101501159Y-101892499D01*
X101484551Y-101833614D01*
X101501159Y-101782499D01*
X101509515Y-101769995D01*
X101525500Y-101689633D01*
X101525499Y-101485368D01*
X101509515Y-101405005D01*
X101501159Y-101392499D01*
X101484551Y-101333614D01*
X101501159Y-101282499D01*
X101509515Y-101269995D01*
X101525500Y-101189633D01*
X101525499Y-100985368D01*
X101509515Y-100905005D01*
X101501159Y-100892499D01*
X101484551Y-100833614D01*
X101501159Y-100782499D01*
X101509515Y-100769995D01*
X101525500Y-100689633D01*
X101525499Y-100485368D01*
X101509515Y-100405005D01*
X101501159Y-100392499D01*
X101484551Y-100333614D01*
X101501159Y-100282499D01*
X101509515Y-100269995D01*
X101525500Y-100189633D01*
X101525499Y-99985368D01*
X101521223Y-99963872D01*
X101512898Y-99922013D01*
X101509515Y-99905005D01*
X101501159Y-99892500D01*
X101484551Y-99833614D01*
X101501159Y-99782499D01*
X101509515Y-99769995D01*
X101525500Y-99689633D01*
X101525499Y-99485368D01*
X101525499Y-99485367D01*
X107974500Y-99485367D01*
X107974500Y-99689629D01*
X107974501Y-99689637D01*
X107990484Y-99769994D01*
X107990485Y-99769996D01*
X108050625Y-99860000D01*
X108051376Y-99861124D01*
X108142505Y-99922015D01*
X108222867Y-99938000D01*
X109602132Y-99937999D01*
X109605529Y-99937323D01*
X109613464Y-99936078D01*
X109651399Y-99931693D01*
X109651403Y-99931693D01*
X109651406Y-99931692D01*
X109651408Y-99931692D01*
X109694306Y-99922013D01*
X109834296Y-99890428D01*
X109856085Y-99888000D01*
X110337343Y-99888000D01*
X110375243Y-99895542D01*
X110402669Y-99906907D01*
X110689801Y-100025892D01*
X110711662Y-100031989D01*
X110726888Y-100037618D01*
X110740513Y-100043972D01*
X110790099Y-100050500D01*
X110846431Y-100050499D01*
X110872056Y-100053873D01*
X110934104Y-100070499D01*
X110934106Y-100070500D01*
X110934107Y-100070500D01*
X111065891Y-100070500D01*
X111065892Y-100070500D01*
X111127948Y-100053872D01*
X111153571Y-100050499D01*
X111209897Y-100050499D01*
X111209900Y-100050499D01*
X111259487Y-100043972D01*
X111259488Y-100043972D01*
X111318137Y-100016622D01*
X111368316Y-99993224D01*
X111453224Y-99908316D01*
X111503972Y-99799487D01*
X111510500Y-99749901D01*
X111510499Y-99390100D01*
X111503972Y-99340513D01*
X111503971Y-99340510D01*
X111499775Y-99331510D01*
X111490500Y-99289673D01*
X111490500Y-98742876D01*
X111491508Y-98728786D01*
X111495647Y-98700001D01*
X111495647Y-98699998D01*
X111491508Y-98671211D01*
X111490500Y-98657122D01*
X111490500Y-98634109D01*
X111490500Y-98634108D01*
X111482688Y-98604953D01*
X111480324Y-98593431D01*
X111475165Y-98557543D01*
X111466058Y-98537603D01*
X111460489Y-98522106D01*
X111456394Y-98506819D01*
X111456391Y-98506813D01*
X111437720Y-98474472D01*
X111433404Y-98466099D01*
X111415377Y-98426627D01*
X111405742Y-98415508D01*
X111394823Y-98400174D01*
X111390500Y-98392686D01*
X111359041Y-98361227D01*
X111354230Y-98356058D01*
X111321129Y-98317858D01*
X111321127Y-98317856D01*
X111314807Y-98313794D01*
X111298338Y-98300523D01*
X111297318Y-98299503D01*
X111297309Y-98299496D01*
X111252613Y-98273691D01*
X111248589Y-98271239D01*
X111248587Y-98271238D01*
X111242084Y-98267058D01*
X111200054Y-98240047D01*
X111199770Y-98239964D01*
X111189408Y-98235528D01*
X111189176Y-98236089D01*
X111183187Y-98233608D01*
X111126421Y-98218398D01*
X111124153Y-98217761D01*
X111061964Y-98199500D01*
X111061961Y-98199500D01*
X110918039Y-98199500D01*
X110918035Y-98199500D01*
X110855845Y-98217761D01*
X110853579Y-98218397D01*
X110796815Y-98233607D01*
X110790818Y-98236091D01*
X110790589Y-98235539D01*
X110780245Y-98239958D01*
X110779954Y-98240043D01*
X110779944Y-98240048D01*
X110731410Y-98271238D01*
X110727391Y-98273688D01*
X110682684Y-98299500D01*
X110682682Y-98299502D01*
X110681658Y-98300527D01*
X110665200Y-98313789D01*
X110658872Y-98317856D01*
X110658871Y-98317857D01*
X110625768Y-98356059D01*
X110620956Y-98361227D01*
X110589500Y-98392685D01*
X110589499Y-98392686D01*
X110585172Y-98400180D01*
X110574266Y-98415496D01*
X110564622Y-98426627D01*
X110564621Y-98426628D01*
X110546591Y-98466107D01*
X110542277Y-98474475D01*
X110523608Y-98506813D01*
X110523607Y-98506813D01*
X110519507Y-98522117D01*
X110513938Y-98537608D01*
X110513933Y-98537621D01*
X110504835Y-98557543D01*
X110499674Y-98593430D01*
X110497310Y-98604953D01*
X110489500Y-98634104D01*
X110489500Y-98657122D01*
X110488492Y-98671211D01*
X110484353Y-98699998D01*
X110484353Y-98700001D01*
X110488492Y-98728786D01*
X110489500Y-98742876D01*
X110489500Y-99155641D01*
X110470593Y-99213832D01*
X110435473Y-99243836D01*
X110372012Y-99276196D01*
X110327041Y-99287000D01*
X109856090Y-99287000D01*
X109834301Y-99284572D01*
X109734605Y-99262077D01*
X109734574Y-99262071D01*
X109651407Y-99243307D01*
X109631090Y-99240958D01*
X109613469Y-99238921D01*
X109605534Y-99237675D01*
X109602145Y-99237001D01*
X109602133Y-99237000D01*
X109602132Y-99237000D01*
X108222870Y-99237000D01*
X108222863Y-99237001D01*
X108142505Y-99252984D01*
X108142503Y-99252985D01*
X108051379Y-99313873D01*
X108051373Y-99313879D01*
X107990486Y-99405001D01*
X107990486Y-99405003D01*
X107990485Y-99405005D01*
X107980853Y-99453430D01*
X107974500Y-99485367D01*
X101525499Y-99485367D01*
X101509515Y-99405005D01*
X101509512Y-99405001D01*
X101448626Y-99313879D01*
X101448624Y-99313876D01*
X101445251Y-99311622D01*
X101357497Y-99252986D01*
X101357496Y-99252985D01*
X101357495Y-99252985D01*
X101277133Y-99237000D01*
X101277132Y-99237000D01*
X99897870Y-99237000D01*
X99897860Y-99237001D01*
X99894426Y-99237684D01*
X99886505Y-99238926D01*
X99848581Y-99243307D01*
X99702823Y-99276196D01*
X99665700Y-99284572D01*
X99643912Y-99287000D01*
X99199332Y-99287000D01*
X99141141Y-99268093D01*
X99139341Y-99266753D01*
X98937503Y-99112999D01*
X98903737Y-99087277D01*
X98903726Y-99087270D01*
X98900743Y-99085321D01*
X98900969Y-99084975D01*
X98882866Y-99071326D01*
X98868316Y-99056776D01*
X98868314Y-99056775D01*
X98868313Y-99056774D01*
X98759489Y-99006029D01*
X98759488Y-99006028D01*
X98734694Y-99002764D01*
X98709901Y-98999500D01*
X98709900Y-98999500D01*
X98653568Y-98999500D01*
X98627946Y-98996127D01*
X98611077Y-98991607D01*
X98565892Y-98979500D01*
X97565892Y-98979500D01*
X96755892Y-98979500D01*
X96624107Y-98979500D01*
X96562054Y-98996127D01*
X96496809Y-99013609D01*
X96382686Y-99079499D01*
X96301667Y-99160517D01*
X96285197Y-99173791D01*
X96278872Y-99177856D01*
X96278871Y-99177857D01*
X96245768Y-99216059D01*
X96240956Y-99221227D01*
X96209500Y-99252685D01*
X96209499Y-99252686D01*
X96205172Y-99260180D01*
X96194266Y-99275496D01*
X96184622Y-99286627D01*
X96184621Y-99286628D01*
X96166591Y-99326107D01*
X96162277Y-99334475D01*
X96143608Y-99366813D01*
X96143607Y-99366813D01*
X96139507Y-99382117D01*
X96133938Y-99397608D01*
X96130562Y-99405003D01*
X96124835Y-99417543D01*
X96119674Y-99453430D01*
X96117310Y-99464953D01*
X96109500Y-99494104D01*
X96109500Y-99517122D01*
X96108492Y-99531211D01*
X96104353Y-99559998D01*
X96104353Y-99560001D01*
X96108492Y-99588786D01*
X96109500Y-99602876D01*
X96109500Y-99625893D01*
X96117310Y-99655042D01*
X96119675Y-99666572D01*
X96124835Y-99702457D01*
X96133937Y-99722388D01*
X96139506Y-99737881D01*
X96142727Y-99749899D01*
X96143608Y-99753186D01*
X96162277Y-99785523D01*
X96166592Y-99793893D01*
X96184622Y-99833373D01*
X96194259Y-99844494D01*
X96205172Y-99859820D01*
X96209497Y-99867310D01*
X96209498Y-99867311D01*
X96209500Y-99867314D01*
X96230186Y-99888000D01*
X96240961Y-99898775D01*
X96245764Y-99903934D01*
X96278872Y-99942143D01*
X96285186Y-99946201D01*
X96301662Y-99959476D01*
X96302686Y-99960500D01*
X96337327Y-99980500D01*
X96347392Y-99986311D01*
X96351414Y-99988763D01*
X96399942Y-100019950D01*
X96399947Y-100019953D01*
X96400046Y-100019982D01*
X96400215Y-100020032D01*
X96410584Y-100024474D01*
X96410819Y-100023909D01*
X96416809Y-100026389D01*
X96416814Y-100026392D01*
X96473579Y-100041601D01*
X96475813Y-100042228D01*
X96481748Y-100043971D01*
X96538033Y-100060499D01*
X96538038Y-100060499D01*
X96538039Y-100060500D01*
X96538040Y-100060500D01*
X96681958Y-100060500D01*
X96681961Y-100060500D01*
X96744190Y-100042227D01*
X96746393Y-100041608D01*
X96803186Y-100026392D01*
X96803192Y-100026388D01*
X96809188Y-100023906D01*
X96809424Y-100024476D01*
X96819792Y-100020029D01*
X96820053Y-100019953D01*
X96832604Y-100011886D01*
X96856989Y-99996216D01*
X96910512Y-99980500D01*
X98565891Y-99980500D01*
X98565892Y-99980500D01*
X98627948Y-99963872D01*
X98653571Y-99960499D01*
X98685818Y-99960499D01*
X98688331Y-99960530D01*
X98691202Y-99960603D01*
X98712782Y-99961152D01*
X98712782Y-99961151D01*
X98712788Y-99961152D01*
X98736074Y-99957132D01*
X98739927Y-99956546D01*
X98759487Y-99953972D01*
X98759491Y-99953969D01*
X98761522Y-99953378D01*
X98772387Y-99950863D01*
X99115246Y-99891681D01*
X99115254Y-99891678D01*
X99117852Y-99891022D01*
X99142125Y-99888000D01*
X99550500Y-99888000D01*
X99608691Y-99906907D01*
X99644655Y-99956407D01*
X99649500Y-99987000D01*
X99649500Y-100189629D01*
X99649501Y-100189637D01*
X99665484Y-100269994D01*
X99665486Y-100269998D01*
X99673840Y-100282501D01*
X99690447Y-100341389D01*
X99673840Y-100392499D01*
X99665485Y-100405003D01*
X99665484Y-100405004D01*
X99649500Y-100485364D01*
X99649500Y-100689629D01*
X99649501Y-100689637D01*
X99665485Y-100769999D01*
X99666308Y-100771985D01*
X99666587Y-100775537D01*
X99667387Y-100779558D01*
X99666910Y-100779652D01*
X99671104Y-100832982D01*
X99639130Y-100885148D01*
X99582601Y-100908558D01*
X99523107Y-100894270D01*
X99504841Y-100879870D01*
X99164511Y-100539540D01*
X99154223Y-100533600D01*
X99147290Y-100529597D01*
X99147290Y-100529596D01*
X99095990Y-100499979D01*
X99095985Y-100499977D01*
X99019564Y-100479500D01*
X99019562Y-100479500D01*
X95767779Y-100479500D01*
X95726247Y-100470367D01*
X95417932Y-100327878D01*
X95389380Y-100318983D01*
X95376992Y-100314190D01*
X95359485Y-100306027D01*
X95309902Y-100299500D01*
X94890103Y-100299500D01*
X94890092Y-100299501D01*
X94840513Y-100306027D01*
X94779850Y-100334314D01*
X94775014Y-100336414D01*
X94755181Y-100344405D01*
X94755175Y-100344409D01*
X94753585Y-100345449D01*
X94741242Y-100352318D01*
X94731685Y-100356775D01*
X94731678Y-100356779D01*
X94730221Y-100358237D01*
X94714435Y-100371063D01*
X94673915Y-100397575D01*
X94614869Y-100413614D01*
X94557672Y-100391883D01*
X94549707Y-100384736D01*
X92579496Y-98414525D01*
X92551719Y-98360008D01*
X92550500Y-98344521D01*
X92550500Y-96019998D01*
X100514353Y-96019998D01*
X100514353Y-96020001D01*
X100518492Y-96048786D01*
X100519500Y-96062876D01*
X100519500Y-96085893D01*
X100527310Y-96115042D01*
X100529675Y-96126572D01*
X100534835Y-96162457D01*
X100543937Y-96182388D01*
X100549506Y-96197881D01*
X100552728Y-96209901D01*
X100553608Y-96213186D01*
X100572277Y-96245523D01*
X100576592Y-96253893D01*
X100594622Y-96293373D01*
X100604259Y-96304494D01*
X100615172Y-96319820D01*
X100619497Y-96327310D01*
X100619498Y-96327311D01*
X100619500Y-96327314D01*
X100641682Y-96349496D01*
X100650961Y-96358775D01*
X100655764Y-96363934D01*
X100688872Y-96402143D01*
X100695186Y-96406201D01*
X100711662Y-96419476D01*
X100712686Y-96420500D01*
X100753256Y-96443923D01*
X100757392Y-96446311D01*
X100761414Y-96448763D01*
X100809947Y-96479953D01*
X100810046Y-96479982D01*
X100810215Y-96480032D01*
X100820584Y-96484474D01*
X100820819Y-96483909D01*
X100826809Y-96486389D01*
X100826814Y-96486392D01*
X100883579Y-96501601D01*
X100885813Y-96502228D01*
X100896814Y-96505458D01*
X100948033Y-96520499D01*
X100948038Y-96520499D01*
X100948039Y-96520500D01*
X100954108Y-96520500D01*
X101583204Y-96520500D01*
X101641395Y-96539407D01*
X101674882Y-96582135D01*
X101692178Y-96624572D01*
X101699500Y-96661937D01*
X101699500Y-97231412D01*
X101697072Y-97253201D01*
X101655808Y-97436085D01*
X101651419Y-97474041D01*
X101650175Y-97481966D01*
X101649500Y-97485361D01*
X101649500Y-98864629D01*
X101649501Y-98864636D01*
X101665484Y-98944994D01*
X101665485Y-98944996D01*
X101726373Y-99036120D01*
X101726376Y-99036124D01*
X101817505Y-99097015D01*
X101897867Y-99113000D01*
X102102132Y-99112999D01*
X102182495Y-99097015D01*
X102273624Y-99036124D01*
X102334515Y-98944995D01*
X102350500Y-98864633D01*
X102350499Y-97485368D01*
X102350499Y-97485366D01*
X102649500Y-97485366D01*
X102649500Y-98864629D01*
X102649501Y-98864636D01*
X102665484Y-98944994D01*
X102665485Y-98944996D01*
X102726373Y-99036120D01*
X102726376Y-99036124D01*
X102817505Y-99097015D01*
X102897867Y-99113000D01*
X103102132Y-99112999D01*
X103182495Y-99097015D01*
X103194996Y-99088661D01*
X103253883Y-99072051D01*
X103305000Y-99088659D01*
X103317505Y-99097015D01*
X103397867Y-99113000D01*
X103602132Y-99112999D01*
X103682495Y-99097015D01*
X103773624Y-99036124D01*
X103834515Y-98944995D01*
X103850500Y-98864633D01*
X103850499Y-97485368D01*
X103850499Y-97485366D01*
X104149500Y-97485366D01*
X104149500Y-98864629D01*
X104149501Y-98864636D01*
X104165484Y-98944994D01*
X104165485Y-98944996D01*
X104226373Y-99036120D01*
X104226376Y-99036124D01*
X104317505Y-99097015D01*
X104397867Y-99113000D01*
X104602132Y-99112999D01*
X104682495Y-99097015D01*
X104694996Y-99088661D01*
X104753883Y-99072051D01*
X104805000Y-99088659D01*
X104817505Y-99097015D01*
X104897867Y-99113000D01*
X105102132Y-99112999D01*
X105182495Y-99097015D01*
X105194996Y-99088661D01*
X105253883Y-99072051D01*
X105305000Y-99088659D01*
X105317505Y-99097015D01*
X105397867Y-99113000D01*
X105602132Y-99112999D01*
X105682495Y-99097015D01*
X105694996Y-99088661D01*
X105753883Y-99072051D01*
X105805000Y-99088659D01*
X105817505Y-99097015D01*
X105897867Y-99113000D01*
X106102132Y-99112999D01*
X106182495Y-99097015D01*
X106194996Y-99088661D01*
X106253883Y-99072051D01*
X106305000Y-99088659D01*
X106317505Y-99097015D01*
X106397867Y-99113000D01*
X106602132Y-99112999D01*
X106682495Y-99097015D01*
X106694996Y-99088661D01*
X106753883Y-99072051D01*
X106805000Y-99088659D01*
X106817505Y-99097015D01*
X106897867Y-99113000D01*
X107102132Y-99112999D01*
X107182495Y-99097015D01*
X107194996Y-99088661D01*
X107253883Y-99072051D01*
X107305000Y-99088659D01*
X107317505Y-99097015D01*
X107397867Y-99113000D01*
X107602132Y-99112999D01*
X107682495Y-99097015D01*
X107773624Y-99036124D01*
X107834515Y-98944995D01*
X107850500Y-98864633D01*
X107850499Y-97485368D01*
X107849825Y-97481981D01*
X107848578Y-97474035D01*
X107844193Y-97436101D01*
X107844191Y-97436091D01*
X107844190Y-97436087D01*
X107844190Y-97436081D01*
X107802928Y-97253201D01*
X107800500Y-97231412D01*
X107800500Y-96965479D01*
X107819407Y-96907288D01*
X107829496Y-96895475D01*
X108375475Y-96349496D01*
X108429992Y-96321719D01*
X108445479Y-96320500D01*
X111751436Y-96320500D01*
X111809627Y-96339407D01*
X111837483Y-96370542D01*
X111912045Y-96501594D01*
X112330981Y-97237929D01*
X112333292Y-97241307D01*
X112332958Y-97241535D01*
X112339136Y-97250835D01*
X112422316Y-97406452D01*
X112487083Y-97485371D01*
X112553590Y-97566410D01*
X112553595Y-97566414D01*
X112713547Y-97697683D01*
X112713548Y-97697683D01*
X112713550Y-97697685D01*
X112896046Y-97795232D01*
X113046328Y-97840819D01*
X113096525Y-97875804D01*
X113116571Y-97933612D01*
X113098810Y-97992163D01*
X113050026Y-98029092D01*
X113043213Y-98031183D01*
X112836505Y-98086570D01*
X112622432Y-98186394D01*
X112622424Y-98186398D01*
X112428926Y-98321886D01*
X112261886Y-98488926D01*
X112126398Y-98682424D01*
X112126394Y-98682432D01*
X112026570Y-98896505D01*
X111969364Y-99110000D01*
X112866988Y-99110000D01*
X112834075Y-99167007D01*
X112800000Y-99294174D01*
X112800000Y-99425826D01*
X112834075Y-99552993D01*
X112866988Y-99610000D01*
X111969364Y-99610000D01*
X112026569Y-99823489D01*
X112126399Y-100037577D01*
X112261886Y-100231073D01*
X112428926Y-100398113D01*
X112622422Y-100533600D01*
X112836509Y-100633430D01*
X113043213Y-100688816D01*
X113094527Y-100722140D01*
X113116454Y-100779261D01*
X113100619Y-100838362D01*
X113053069Y-100876867D01*
X113046328Y-100879180D01*
X112896051Y-100924765D01*
X112892741Y-100926533D01*
X112886086Y-100930090D01*
X112874710Y-100935275D01*
X112871817Y-100936378D01*
X111616544Y-101562132D01*
X111556030Y-101571172D01*
X111502372Y-101543535D01*
X110923348Y-100964511D01*
X110305877Y-100347040D01*
X110305874Y-100347038D01*
X110285975Y-100335549D01*
X110237356Y-100307479D01*
X110237351Y-100307477D01*
X110160930Y-100287000D01*
X110160928Y-100287000D01*
X109856090Y-100287000D01*
X109834301Y-100284572D01*
X109734605Y-100262077D01*
X109734574Y-100262071D01*
X109651407Y-100243307D01*
X109631090Y-100240958D01*
X109613469Y-100238921D01*
X109605534Y-100237675D01*
X109602145Y-100237001D01*
X109602133Y-100237000D01*
X109602132Y-100237000D01*
X108222870Y-100237000D01*
X108222863Y-100237001D01*
X108142505Y-100252984D01*
X108142503Y-100252985D01*
X108051379Y-100313873D01*
X108051373Y-100313879D01*
X107990486Y-100405001D01*
X107990486Y-100405003D01*
X107990485Y-100405005D01*
X107977484Y-100470367D01*
X107974500Y-100485367D01*
X107974500Y-100689629D01*
X107974501Y-100689637D01*
X107990484Y-100769994D01*
X107990486Y-100769998D01*
X107998840Y-100782501D01*
X108015447Y-100841389D01*
X107998840Y-100892499D01*
X107990485Y-100905003D01*
X107990484Y-100905004D01*
X107974500Y-100985364D01*
X107974500Y-101189629D01*
X107974501Y-101189637D01*
X107990484Y-101269994D01*
X107990486Y-101269998D01*
X107998840Y-101282501D01*
X108015447Y-101341389D01*
X107998840Y-101392499D01*
X107990485Y-101405003D01*
X107990484Y-101405004D01*
X107974500Y-101485364D01*
X107974500Y-101689629D01*
X107974501Y-101689637D01*
X107990484Y-101769994D01*
X107990486Y-101769998D01*
X107998840Y-101782501D01*
X108015447Y-101841389D01*
X107998840Y-101892499D01*
X107990485Y-101905003D01*
X107990484Y-101905004D01*
X107974500Y-101985364D01*
X107974500Y-102189629D01*
X107974501Y-102189637D01*
X107990484Y-102269994D01*
X107990486Y-102269998D01*
X107998840Y-102282501D01*
X108015447Y-102341389D01*
X107998840Y-102392499D01*
X107990485Y-102405003D01*
X107990484Y-102405004D01*
X107974500Y-102485364D01*
X107974500Y-102689629D01*
X107974501Y-102689637D01*
X107990484Y-102769994D01*
X107990486Y-102769998D01*
X107998840Y-102782501D01*
X108015447Y-102841389D01*
X107998840Y-102892499D01*
X107990485Y-102905003D01*
X107990484Y-102905004D01*
X107974500Y-102985364D01*
X107974500Y-103189629D01*
X107974501Y-103189637D01*
X107990484Y-103269994D01*
X107990486Y-103269998D01*
X107998840Y-103282501D01*
X108015447Y-103341389D01*
X107998840Y-103392499D01*
X107990485Y-103405003D01*
X107990484Y-103405004D01*
X107974500Y-103485364D01*
X107974500Y-103689629D01*
X107974501Y-103689637D01*
X107990484Y-103769994D01*
X107990486Y-103769998D01*
X107998840Y-103782501D01*
X108015447Y-103841389D01*
X107998840Y-103892499D01*
X107990485Y-103905003D01*
X107990484Y-103905004D01*
X107974500Y-103985364D01*
X107974500Y-104189629D01*
X107974501Y-104189637D01*
X107990484Y-104269994D01*
X107990486Y-104269998D01*
X107998840Y-104282501D01*
X108015447Y-104341389D01*
X107998840Y-104392499D01*
X107990485Y-104405003D01*
X107990484Y-104405004D01*
X107974500Y-104485364D01*
X107974500Y-104689629D01*
X107974501Y-104689637D01*
X107990484Y-104769994D01*
X107990486Y-104769998D01*
X107998840Y-104782501D01*
X108015447Y-104841389D01*
X107998840Y-104892499D01*
X107990485Y-104905003D01*
X107990484Y-104905004D01*
X107974500Y-104985364D01*
X107974500Y-105189629D01*
X107974501Y-105189637D01*
X107990484Y-105269994D01*
X107990485Y-105269996D01*
X108017132Y-105309875D01*
X108051376Y-105361124D01*
X108142505Y-105422015D01*
X108222867Y-105438000D01*
X109602132Y-105437999D01*
X109682495Y-105422015D01*
X109773624Y-105361124D01*
X109834515Y-105269995D01*
X109850500Y-105189633D01*
X109850499Y-104985368D01*
X109834515Y-104905005D01*
X109826159Y-104892499D01*
X109809551Y-104833614D01*
X109826159Y-104782499D01*
X109834515Y-104769995D01*
X109850500Y-104689633D01*
X109850499Y-104485368D01*
X109834515Y-104405005D01*
X109826159Y-104392499D01*
X109809551Y-104333614D01*
X109826159Y-104282499D01*
X109834515Y-104269995D01*
X109850500Y-104189633D01*
X109850499Y-103985368D01*
X109849421Y-103979950D01*
X109834515Y-103905006D01*
X109834515Y-103905005D01*
X109826159Y-103892499D01*
X109809551Y-103833614D01*
X109826159Y-103782499D01*
X109834515Y-103769995D01*
X109850500Y-103689633D01*
X109850499Y-103485368D01*
X109844281Y-103454108D01*
X109834515Y-103405006D01*
X109834515Y-103405005D01*
X109826159Y-103392499D01*
X109809551Y-103333614D01*
X109826159Y-103282499D01*
X109834515Y-103269995D01*
X109850500Y-103189633D01*
X109850499Y-102985368D01*
X109834515Y-102905005D01*
X109826159Y-102892499D01*
X109809551Y-102833614D01*
X109826159Y-102782499D01*
X109834515Y-102769995D01*
X109850500Y-102689633D01*
X109850499Y-102485368D01*
X109834515Y-102405005D01*
X109826159Y-102392499D01*
X109809551Y-102333614D01*
X109826159Y-102282499D01*
X109834515Y-102269995D01*
X109850500Y-102189633D01*
X109850499Y-101985368D01*
X109834515Y-101905005D01*
X109826159Y-101892499D01*
X109809551Y-101833614D01*
X109826159Y-101782499D01*
X109834515Y-101769995D01*
X109850500Y-101689633D01*
X109850499Y-101485368D01*
X109834515Y-101405005D01*
X109826159Y-101392499D01*
X109809551Y-101333614D01*
X109826159Y-101282499D01*
X109834515Y-101269995D01*
X109850500Y-101189633D01*
X109850499Y-100986999D01*
X109869406Y-100928810D01*
X109918906Y-100892846D01*
X109949499Y-100888000D01*
X109955887Y-100888000D01*
X110014078Y-100906907D01*
X110025891Y-100916996D01*
X111193406Y-102084511D01*
X111193405Y-102084511D01*
X111249355Y-102140460D01*
X111317873Y-102180019D01*
X111317877Y-102180021D01*
X111394301Y-102200499D01*
X111394303Y-102200500D01*
X111394304Y-102200500D01*
X111518281Y-102200500D01*
X111562448Y-102210898D01*
X112871820Y-102863621D01*
X112878100Y-102866620D01*
X112878831Y-102866954D01*
X112878836Y-102866955D01*
X112883658Y-102869159D01*
X112883581Y-102869326D01*
X112890825Y-102872441D01*
X112896046Y-102875232D01*
X112994196Y-102905005D01*
X113094065Y-102935300D01*
X113094070Y-102935301D01*
X113299997Y-102955583D01*
X113300000Y-102955583D01*
X113300003Y-102955583D01*
X113505929Y-102935301D01*
X113505934Y-102935300D01*
X113549729Y-102922015D01*
X113703954Y-102875232D01*
X113886450Y-102777685D01*
X114046410Y-102646410D01*
X114177685Y-102486450D01*
X114275232Y-102303954D01*
X114335300Y-102105934D01*
X114335301Y-102105929D01*
X114355583Y-101900003D01*
X114355583Y-101899996D01*
X114335301Y-101694070D01*
X114335300Y-101694065D01*
X114317078Y-101633997D01*
X114275232Y-101496046D01*
X114177685Y-101313550D01*
X114171313Y-101305786D01*
X114046414Y-101153595D01*
X114046410Y-101153590D01*
X114046404Y-101153585D01*
X113886452Y-101022316D01*
X113703954Y-100924768D01*
X113553671Y-100879180D01*
X113503474Y-100844195D01*
X113483428Y-100786387D01*
X113501189Y-100727836D01*
X113549974Y-100690907D01*
X113556786Y-100688816D01*
X113763490Y-100633430D01*
X113977577Y-100533600D01*
X114171073Y-100398113D01*
X114338113Y-100231073D01*
X114473600Y-100037577D01*
X114573430Y-99823489D01*
X114630636Y-99610000D01*
X113733012Y-99610000D01*
X113765925Y-99552993D01*
X113800000Y-99425826D01*
X113800000Y-99294174D01*
X113765925Y-99167007D01*
X113733012Y-99110000D01*
X114630636Y-99110000D01*
X114573429Y-98896505D01*
X114473605Y-98682432D01*
X114473601Y-98682424D01*
X114338113Y-98488926D01*
X114171073Y-98321886D01*
X113977577Y-98186399D01*
X113763489Y-98086569D01*
X113556786Y-98031183D01*
X113505472Y-97997859D01*
X113483545Y-97940737D01*
X113499381Y-97881637D01*
X113546931Y-97843132D01*
X113553663Y-97840821D01*
X113703954Y-97795232D01*
X113886450Y-97697685D01*
X114046410Y-97566410D01*
X114177685Y-97406450D01*
X114275232Y-97223954D01*
X114335300Y-97025934D01*
X114335301Y-97025929D01*
X114355583Y-96820003D01*
X114355583Y-96819996D01*
X114335301Y-96614070D01*
X114335300Y-96614065D01*
X114295989Y-96484474D01*
X114275232Y-96416046D01*
X114177685Y-96233550D01*
X114091014Y-96127941D01*
X114046414Y-96073595D01*
X114046410Y-96073590D01*
X114016186Y-96048786D01*
X113886452Y-95942316D01*
X113703954Y-95844768D01*
X113505934Y-95784699D01*
X113505929Y-95784698D01*
X113299128Y-95764330D01*
X112624562Y-95739685D01*
X112602555Y-95736378D01*
X112554385Y-95723472D01*
X112539562Y-95719500D01*
X112539561Y-95719500D01*
X112073819Y-95719500D01*
X112070205Y-95719434D01*
X111950954Y-95715077D01*
X111946880Y-95714969D01*
X111946454Y-95714962D01*
X111934054Y-95717323D01*
X111931797Y-95717753D01*
X111913284Y-95719500D01*
X108319562Y-95719500D01*
X108240438Y-95719500D01*
X108193661Y-95732033D01*
X108164007Y-95739979D01*
X108095493Y-95779536D01*
X107315489Y-96559540D01*
X107315488Y-96559539D01*
X107259539Y-96615489D01*
X107219980Y-96684007D01*
X107219978Y-96684011D01*
X107199500Y-96760435D01*
X107199500Y-97138000D01*
X107180593Y-97196191D01*
X107131093Y-97232155D01*
X107100500Y-97237000D01*
X106897870Y-97237000D01*
X106897862Y-97237001D01*
X106817505Y-97252984D01*
X106817501Y-97252986D01*
X106804999Y-97261340D01*
X106746111Y-97277947D01*
X106695001Y-97261340D01*
X106682496Y-97252985D01*
X106682495Y-97252984D01*
X106602134Y-97237000D01*
X106397870Y-97237000D01*
X106397862Y-97237001D01*
X106317505Y-97252984D01*
X106317501Y-97252986D01*
X106304999Y-97261340D01*
X106246111Y-97277947D01*
X106195001Y-97261340D01*
X106182496Y-97252985D01*
X106182495Y-97252984D01*
X106102134Y-97237000D01*
X105897870Y-97237000D01*
X105897862Y-97237001D01*
X105817505Y-97252984D01*
X105817501Y-97252986D01*
X105804999Y-97261340D01*
X105746111Y-97277947D01*
X105695001Y-97261340D01*
X105682496Y-97252985D01*
X105682495Y-97252984D01*
X105602134Y-97237000D01*
X105397870Y-97237000D01*
X105397862Y-97237001D01*
X105317505Y-97252984D01*
X105317501Y-97252986D01*
X105304999Y-97261340D01*
X105246111Y-97277947D01*
X105195001Y-97261340D01*
X105182496Y-97252985D01*
X105182495Y-97252984D01*
X105102134Y-97237000D01*
X104897870Y-97237000D01*
X104897862Y-97237001D01*
X104817505Y-97252984D01*
X104817501Y-97252986D01*
X104804999Y-97261340D01*
X104746111Y-97277947D01*
X104695001Y-97261340D01*
X104682496Y-97252985D01*
X104682495Y-97252984D01*
X104602134Y-97237000D01*
X104397870Y-97237000D01*
X104397862Y-97237001D01*
X104317505Y-97252984D01*
X104317503Y-97252985D01*
X104226379Y-97313873D01*
X104226373Y-97313879D01*
X104165486Y-97405001D01*
X104165486Y-97405003D01*
X104165485Y-97405005D01*
X104159300Y-97436101D01*
X104149500Y-97485366D01*
X103850499Y-97485366D01*
X103834515Y-97405005D01*
X103834512Y-97405001D01*
X103773626Y-97313879D01*
X103773624Y-97313876D01*
X103719853Y-97277947D01*
X103682497Y-97252986D01*
X103682496Y-97252985D01*
X103682495Y-97252985D01*
X103602133Y-97237000D01*
X103602132Y-97237000D01*
X103397870Y-97237000D01*
X103397862Y-97237001D01*
X103317505Y-97252984D01*
X103317501Y-97252986D01*
X103304999Y-97261340D01*
X103246111Y-97277947D01*
X103195001Y-97261340D01*
X103182496Y-97252985D01*
X103182495Y-97252984D01*
X103102134Y-97237000D01*
X102897870Y-97237000D01*
X102897862Y-97237001D01*
X102817505Y-97252984D01*
X102817503Y-97252985D01*
X102726379Y-97313873D01*
X102726373Y-97313879D01*
X102665486Y-97405001D01*
X102665486Y-97405003D01*
X102665485Y-97405005D01*
X102659300Y-97436101D01*
X102649500Y-97485366D01*
X102350499Y-97485366D01*
X102349825Y-97481981D01*
X102348578Y-97474035D01*
X102344193Y-97436101D01*
X102344191Y-97436091D01*
X102344190Y-97436087D01*
X102344190Y-97436081D01*
X102302928Y-97253201D01*
X102300500Y-97231412D01*
X102300500Y-96673698D01*
X102311547Y-96628252D01*
X102467598Y-96326257D01*
X102480001Y-96290639D01*
X102483757Y-96281391D01*
X102493972Y-96259487D01*
X102500500Y-96209901D01*
X102500499Y-96153566D01*
X102503873Y-96127941D01*
X102505804Y-96120737D01*
X102520500Y-96065893D01*
X102520500Y-95934108D01*
X102503872Y-95872050D01*
X102500499Y-95846428D01*
X102500499Y-95790103D01*
X102500498Y-95790092D01*
X102493972Y-95740513D01*
X102493972Y-95740511D01*
X102443225Y-95631686D01*
X102443224Y-95631685D01*
X102443224Y-95631684D01*
X102358316Y-95546776D01*
X102358314Y-95546775D01*
X102358313Y-95546774D01*
X102249489Y-95496029D01*
X102249488Y-95496028D01*
X102232958Y-95493852D01*
X102199901Y-95489500D01*
X102199899Y-95489500D01*
X101840104Y-95489500D01*
X101840092Y-95489501D01*
X101790513Y-95496027D01*
X101760066Y-95510225D01*
X101718228Y-95519500D01*
X100948035Y-95519500D01*
X100885845Y-95537761D01*
X100883579Y-95538397D01*
X100826815Y-95553607D01*
X100820818Y-95556091D01*
X100820589Y-95555539D01*
X100810245Y-95559958D01*
X100809954Y-95560043D01*
X100809944Y-95560048D01*
X100761410Y-95591238D01*
X100757391Y-95593688D01*
X100712684Y-95619500D01*
X100712682Y-95619502D01*
X100711658Y-95620527D01*
X100695200Y-95633789D01*
X100688872Y-95637856D01*
X100688871Y-95637857D01*
X100655768Y-95676059D01*
X100650956Y-95681227D01*
X100619500Y-95712685D01*
X100619499Y-95712686D01*
X100615172Y-95720180D01*
X100604266Y-95735496D01*
X100594622Y-95746627D01*
X100594621Y-95746628D01*
X100576591Y-95786107D01*
X100572277Y-95794475D01*
X100553608Y-95826813D01*
X100553607Y-95826813D01*
X100549507Y-95842117D01*
X100543938Y-95857608D01*
X100534835Y-95877543D01*
X100529674Y-95913430D01*
X100527310Y-95924953D01*
X100519500Y-95954104D01*
X100519500Y-95977122D01*
X100518492Y-95991211D01*
X100514353Y-96019998D01*
X92550500Y-96019998D01*
X92550500Y-93410253D01*
X112249500Y-93410253D01*
X112249500Y-95149746D01*
X112249501Y-95149758D01*
X112261132Y-95208227D01*
X112261133Y-95208231D01*
X112305448Y-95274552D01*
X112371769Y-95318867D01*
X112416231Y-95327711D01*
X112430241Y-95330498D01*
X112430246Y-95330498D01*
X112430252Y-95330500D01*
X112430253Y-95330500D01*
X114169747Y-95330500D01*
X114169748Y-95330500D01*
X114228231Y-95318867D01*
X114294552Y-95274552D01*
X114338867Y-95208231D01*
X114350500Y-95149748D01*
X114350500Y-93410252D01*
X114338867Y-93351769D01*
X114294552Y-93285448D01*
X114294548Y-93285445D01*
X114228233Y-93241134D01*
X114228231Y-93241133D01*
X114228228Y-93241132D01*
X114228227Y-93241132D01*
X114169758Y-93229501D01*
X114169748Y-93229500D01*
X112430252Y-93229500D01*
X112430251Y-93229500D01*
X112430241Y-93229501D01*
X112371772Y-93241132D01*
X112371766Y-93241134D01*
X112305451Y-93285445D01*
X112305445Y-93285451D01*
X112261134Y-93351766D01*
X112261132Y-93351772D01*
X112249501Y-93410241D01*
X112249500Y-93410253D01*
X92550500Y-93410253D01*
X92550500Y-90705253D01*
X92550498Y-90705241D01*
X92547711Y-90691231D01*
X92538867Y-90646769D01*
X92494552Y-90580448D01*
X92494548Y-90580445D01*
X92487657Y-90573554D01*
X92489014Y-90572196D01*
X92458718Y-90533764D01*
X92456317Y-90472626D01*
X92490311Y-90421752D01*
X92547715Y-90400576D01*
X92551600Y-90400500D01*
X115100500Y-90400500D01*
X115158691Y-90419407D01*
X115194655Y-90468907D01*
X115199500Y-90499500D01*
X115199500Y-117800500D01*
X115180593Y-117858691D01*
X115131093Y-117894655D01*
X115100500Y-117899500D01*
X88849500Y-117899500D01*
X88791309Y-117880593D01*
X88755345Y-117831093D01*
X88750500Y-117800500D01*
X88750500Y-116987824D01*
X96829999Y-116987824D01*
X96836401Y-117047370D01*
X96836403Y-117047381D01*
X96886646Y-117182088D01*
X96886647Y-117182090D01*
X96972807Y-117297184D01*
X96972815Y-117297192D01*
X97087909Y-117383352D01*
X97087911Y-117383353D01*
X97222618Y-117433596D01*
X97222629Y-117433598D01*
X97282176Y-117440000D01*
X97929999Y-117440000D01*
X97930000Y-117439999D01*
X97930000Y-116523012D01*
X97987007Y-116555925D01*
X98114174Y-116590000D01*
X98245826Y-116590000D01*
X98372993Y-116555925D01*
X98430000Y-116523012D01*
X98430000Y-117439999D01*
X98430001Y-117440000D01*
X99077824Y-117440000D01*
X99137370Y-117433598D01*
X99137381Y-117433596D01*
X99272088Y-117383353D01*
X99272090Y-117383352D01*
X99387184Y-117297192D01*
X99387192Y-117297184D01*
X99473352Y-117182090D01*
X99473353Y-117182088D01*
X99523596Y-117047381D01*
X99523598Y-117047370D01*
X99530000Y-116987824D01*
X99530000Y-116453361D01*
X99548907Y-116395170D01*
X99598407Y-116359206D01*
X99659593Y-116359206D01*
X99709093Y-116395170D01*
X99723737Y-116424623D01*
X99744768Y-116493954D01*
X99842316Y-116676452D01*
X99973585Y-116836404D01*
X99973590Y-116836410D01*
X99973595Y-116836414D01*
X100133547Y-116967683D01*
X100133548Y-116967683D01*
X100133550Y-116967685D01*
X100316046Y-117065232D01*
X100453997Y-117107078D01*
X100514065Y-117125300D01*
X100514070Y-117125301D01*
X100719997Y-117145583D01*
X100720000Y-117145583D01*
X100720003Y-117145583D01*
X100925929Y-117125301D01*
X100925934Y-117125300D01*
X101123954Y-117065232D01*
X101306450Y-116967685D01*
X101466410Y-116836410D01*
X101597685Y-116676450D01*
X101695232Y-116493954D01*
X101755300Y-116295934D01*
X101755301Y-116295929D01*
X101775583Y-116090003D01*
X101775583Y-116089996D01*
X101755301Y-115884070D01*
X101755300Y-115884065D01*
X101731490Y-115805573D01*
X101695232Y-115686046D01*
X101597685Y-115503550D01*
X101466410Y-115343590D01*
X101466404Y-115343585D01*
X101306452Y-115212316D01*
X101123954Y-115114768D01*
X100925934Y-115054699D01*
X100925929Y-115054698D01*
X100720003Y-115034417D01*
X100719997Y-115034417D01*
X100514070Y-115054698D01*
X100514065Y-115054699D01*
X100316045Y-115114768D01*
X100133547Y-115212316D01*
X99973595Y-115343585D01*
X99973585Y-115343595D01*
X99842316Y-115503547D01*
X99744768Y-115686045D01*
X99723737Y-115755376D01*
X99688752Y-115805573D01*
X99630943Y-115825619D01*
X99572393Y-115807858D01*
X99535464Y-115759073D01*
X99530000Y-115726638D01*
X99530000Y-115192175D01*
X99523598Y-115132629D01*
X99523596Y-115132618D01*
X99473353Y-114997911D01*
X99473352Y-114997909D01*
X99387192Y-114882815D01*
X99387184Y-114882807D01*
X99272090Y-114796647D01*
X99272088Y-114796646D01*
X99137381Y-114746403D01*
X99137370Y-114746401D01*
X99077824Y-114740000D01*
X98430001Y-114740000D01*
X98430000Y-114740001D01*
X98430000Y-115656988D01*
X98372993Y-115624075D01*
X98245826Y-115590000D01*
X98114174Y-115590000D01*
X97987007Y-115624075D01*
X97930000Y-115656988D01*
X97930000Y-114740001D01*
X97929999Y-114740000D01*
X97282176Y-114740000D01*
X97222629Y-114746401D01*
X97222618Y-114746403D01*
X97087911Y-114796646D01*
X97087909Y-114796647D01*
X96972815Y-114882807D01*
X96972807Y-114882815D01*
X96886647Y-114997909D01*
X96886646Y-114997911D01*
X96836403Y-115132618D01*
X96836401Y-115132629D01*
X96830000Y-115192175D01*
X96830000Y-115839999D01*
X96830001Y-115840000D01*
X97746988Y-115840000D01*
X97714075Y-115897007D01*
X97680000Y-116024174D01*
X97680000Y-116155826D01*
X97714075Y-116282993D01*
X97746988Y-116340000D01*
X96830001Y-116340000D01*
X96830000Y-116340001D01*
X96830000Y-116987824D01*
X96829999Y-116987824D01*
X88750500Y-116987824D01*
X88750500Y-115214996D01*
X93474417Y-115214996D01*
X93474417Y-115215003D01*
X93494698Y-115420929D01*
X93494699Y-115420934D01*
X93554768Y-115618954D01*
X93652316Y-115801452D01*
X93720119Y-115884070D01*
X93783590Y-115961410D01*
X93783595Y-115961414D01*
X93943547Y-116092683D01*
X93943548Y-116092683D01*
X93943550Y-116092685D01*
X94126046Y-116190232D01*
X94263997Y-116232078D01*
X94324065Y-116250300D01*
X94324070Y-116250301D01*
X94529997Y-116270583D01*
X94530000Y-116270583D01*
X94530003Y-116270583D01*
X94735929Y-116250301D01*
X94735934Y-116250300D01*
X94933954Y-116190232D01*
X95116450Y-116092685D01*
X95276410Y-115961410D01*
X95407685Y-115801450D01*
X95505232Y-115618954D01*
X95565300Y-115420934D01*
X95565301Y-115420929D01*
X95585583Y-115215003D01*
X95585583Y-115214996D01*
X95565301Y-115009070D01*
X95565300Y-115009065D01*
X95547078Y-114948997D01*
X95505232Y-114811046D01*
X95407685Y-114628550D01*
X95276410Y-114468590D01*
X95134890Y-114352448D01*
X95116452Y-114337316D01*
X94933954Y-114239768D01*
X94735934Y-114179699D01*
X94735929Y-114179698D01*
X94530003Y-114159417D01*
X94529997Y-114159417D01*
X94324070Y-114179698D01*
X94324065Y-114179699D01*
X94126045Y-114239768D01*
X93943547Y-114337316D01*
X93783595Y-114468585D01*
X93783585Y-114468595D01*
X93652316Y-114628547D01*
X93554768Y-114811045D01*
X93494699Y-115009065D01*
X93494698Y-115009070D01*
X93474417Y-115214996D01*
X88750500Y-115214996D01*
X88750500Y-111805253D01*
X93479500Y-111805253D01*
X93479500Y-113544746D01*
X93479501Y-113544758D01*
X93484622Y-113570500D01*
X93491133Y-113603231D01*
X93535448Y-113669552D01*
X93601769Y-113713867D01*
X93646231Y-113722711D01*
X93660241Y-113725498D01*
X93660246Y-113725498D01*
X93660252Y-113725500D01*
X93660253Y-113725500D01*
X95399747Y-113725500D01*
X95399748Y-113725500D01*
X95458231Y-113713867D01*
X95524552Y-113669552D01*
X95568867Y-113603231D01*
X95580500Y-113544748D01*
X95580500Y-113074500D01*
X95599407Y-113016309D01*
X95648907Y-112980345D01*
X95679500Y-112975500D01*
X96448217Y-112975500D01*
X96448217Y-112975499D01*
X96524643Y-112955021D01*
X96593165Y-112915460D01*
X96623526Y-112885099D01*
X96649115Y-112859511D01*
X96973334Y-112535290D01*
X97027851Y-112507512D01*
X97088283Y-112517083D01*
X97131548Y-112560348D01*
X97141861Y-112595589D01*
X97154698Y-112725928D01*
X97154699Y-112725934D01*
X97214768Y-112923954D01*
X97312316Y-113106452D01*
X97358377Y-113162577D01*
X97443590Y-113266410D01*
X97443595Y-113266414D01*
X97603547Y-113397683D01*
X97603548Y-113397683D01*
X97603550Y-113397685D01*
X97786046Y-113495232D01*
X97923997Y-113537078D01*
X97984065Y-113555300D01*
X97984070Y-113555301D01*
X98189997Y-113575583D01*
X98190000Y-113575583D01*
X98190003Y-113575583D01*
X98395929Y-113555301D01*
X98395934Y-113555300D01*
X98593954Y-113495232D01*
X98776450Y-113397685D01*
X98936410Y-113266410D01*
X99067685Y-113106450D01*
X99165232Y-112923954D01*
X99225300Y-112725934D01*
X99225301Y-112725929D01*
X99245583Y-112520003D01*
X99245583Y-112519996D01*
X99225301Y-112314070D01*
X99225300Y-112314065D01*
X99176904Y-112154525D01*
X99165232Y-112116046D01*
X99067685Y-111933550D01*
X98936410Y-111773590D01*
X98903732Y-111746772D01*
X98776452Y-111642316D01*
X98593954Y-111544768D01*
X98395934Y-111484699D01*
X98395928Y-111484698D01*
X98265589Y-111471861D01*
X98209532Y-111447341D01*
X98178593Y-111394554D01*
X98184591Y-111333664D01*
X98205286Y-111303337D01*
X100668197Y-108840426D01*
X100697869Y-108820019D01*
X101193233Y-108599083D01*
X101233559Y-108590499D01*
X101259209Y-108590499D01*
X101259214Y-108590499D01*
X101329286Y-108580291D01*
X101437375Y-108527449D01*
X101482818Y-108482006D01*
X101528261Y-108436564D01*
X101528280Y-108436583D01*
X101531483Y-108432904D01*
X101647154Y-108323583D01*
X101659398Y-108314462D01*
X101659360Y-108314412D01*
X101664509Y-108310461D01*
X101664508Y-108310461D01*
X101664511Y-108310460D01*
X101720460Y-108254511D01*
X101723316Y-108251654D01*
X101725217Y-108249804D01*
X101842216Y-108139228D01*
X101844440Y-108137093D01*
X101899504Y-108110426D01*
X101959730Y-108121218D01*
X102002111Y-108165349D01*
X102010458Y-108225962D01*
X102006849Y-108240047D01*
X102002878Y-108251859D01*
X101997982Y-108263787D01*
X101989710Y-108280709D01*
X101989709Y-108280713D01*
X101989709Y-108280714D01*
X101980135Y-108346431D01*
X101979500Y-108350788D01*
X101979500Y-108372390D01*
X101970437Y-108413770D01*
X101744921Y-108903915D01*
X101724988Y-108932539D01*
X100545489Y-110112040D01*
X100545488Y-110112039D01*
X100489539Y-110167989D01*
X100449980Y-110236507D01*
X100449978Y-110236511D01*
X100429500Y-110312935D01*
X100429500Y-111370500D01*
X100410593Y-111428691D01*
X100361093Y-111464655D01*
X100330500Y-111469500D01*
X99860252Y-111469500D01*
X99860251Y-111469500D01*
X99860241Y-111469501D01*
X99801772Y-111481132D01*
X99801766Y-111481134D01*
X99735451Y-111525445D01*
X99735445Y-111525451D01*
X99691134Y-111591766D01*
X99691132Y-111591772D01*
X99679501Y-111650241D01*
X99679500Y-111650253D01*
X99679500Y-113389746D01*
X99679501Y-113389758D01*
X99691132Y-113448227D01*
X99691134Y-113448233D01*
X99735445Y-113514548D01*
X99735448Y-113514552D01*
X99801769Y-113558867D01*
X99846231Y-113567711D01*
X99860241Y-113570498D01*
X99860246Y-113570498D01*
X99860252Y-113570500D01*
X99860253Y-113570500D01*
X101599747Y-113570500D01*
X101599748Y-113570500D01*
X101658231Y-113558867D01*
X101724552Y-113514552D01*
X101768867Y-113448231D01*
X101780500Y-113389748D01*
X101780500Y-111650252D01*
X101778921Y-111642316D01*
X101775378Y-111624501D01*
X101768867Y-111591769D01*
X101724552Y-111525448D01*
X101724548Y-111525445D01*
X101658233Y-111481134D01*
X101658231Y-111481133D01*
X101658228Y-111481132D01*
X101658227Y-111481132D01*
X101599758Y-111469501D01*
X101599748Y-111469500D01*
X101599747Y-111469500D01*
X101129500Y-111469500D01*
X101071309Y-111450593D01*
X101035345Y-111401093D01*
X101030500Y-111370500D01*
X101030500Y-110517978D01*
X101049407Y-110459787D01*
X101059490Y-110447980D01*
X102147312Y-109360157D01*
X102178779Y-109338971D01*
X102630039Y-109148304D01*
X102668570Y-109140499D01*
X102694209Y-109140499D01*
X102694214Y-109140499D01*
X102764286Y-109130291D01*
X102817019Y-109104510D01*
X102877601Y-109095940D01*
X102931651Y-109124615D01*
X102958524Y-109179583D01*
X102959500Y-109193452D01*
X102959500Y-114308280D01*
X102949101Y-114352448D01*
X102296375Y-115661824D01*
X102293297Y-115668275D01*
X102290790Y-115673777D01*
X102290613Y-115673696D01*
X102287506Y-115680922D01*
X102284771Y-115686039D01*
X102284765Y-115686053D01*
X102224699Y-115884065D01*
X102224698Y-115884070D01*
X102204417Y-116089996D01*
X102204417Y-116090003D01*
X102224698Y-116295929D01*
X102224699Y-116295934D01*
X102284768Y-116493954D01*
X102382316Y-116676452D01*
X102513585Y-116836404D01*
X102513590Y-116836410D01*
X102513595Y-116836414D01*
X102673547Y-116967683D01*
X102673548Y-116967683D01*
X102673550Y-116967685D01*
X102856046Y-117065232D01*
X102993997Y-117107078D01*
X103054065Y-117125300D01*
X103054070Y-117125301D01*
X103259997Y-117145583D01*
X103260000Y-117145583D01*
X103260003Y-117145583D01*
X103465929Y-117125301D01*
X103465934Y-117125300D01*
X103663954Y-117065232D01*
X103846450Y-116967685D01*
X104006410Y-116836410D01*
X104137685Y-116676450D01*
X104235232Y-116493954D01*
X104295300Y-116295934D01*
X104295301Y-116295929D01*
X104315583Y-116090003D01*
X104315583Y-116089996D01*
X104295301Y-115884070D01*
X104295300Y-115884065D01*
X104281933Y-115839999D01*
X104235232Y-115686046D01*
X104229908Y-115676087D01*
X104224709Y-115664677D01*
X104223623Y-115661829D01*
X104223621Y-115661820D01*
X104204805Y-115624075D01*
X103923165Y-115059101D01*
X103775862Y-114763609D01*
X103766823Y-114703097D01*
X103795079Y-114648827D01*
X103849837Y-114621529D01*
X103910183Y-114631632D01*
X103934468Y-114649439D01*
X104327649Y-115042620D01*
X104351527Y-115081205D01*
X104711819Y-116157772D01*
X104815847Y-116468614D01*
X104818186Y-116475225D01*
X104820322Y-116480947D01*
X104820145Y-116481012D01*
X104823062Y-116488331D01*
X104824766Y-116493948D01*
X104824770Y-116493958D01*
X104922316Y-116676452D01*
X105053585Y-116836404D01*
X105053590Y-116836410D01*
X105053595Y-116836414D01*
X105213547Y-116967683D01*
X105213548Y-116967683D01*
X105213550Y-116967685D01*
X105396046Y-117065232D01*
X105533997Y-117107078D01*
X105594065Y-117125300D01*
X105594070Y-117125301D01*
X105799997Y-117145583D01*
X105800000Y-117145583D01*
X105800003Y-117145583D01*
X106005929Y-117125301D01*
X106005934Y-117125300D01*
X106203954Y-117065232D01*
X106386450Y-116967685D01*
X106546410Y-116836410D01*
X106677685Y-116676450D01*
X106775232Y-116493954D01*
X106835300Y-116295934D01*
X106835301Y-116295929D01*
X106855583Y-116090003D01*
X106855583Y-116089996D01*
X106835301Y-115884070D01*
X106835300Y-115884065D01*
X106811490Y-115805573D01*
X106775232Y-115686046D01*
X106677685Y-115503550D01*
X106546410Y-115343590D01*
X106546404Y-115343585D01*
X106386452Y-115212316D01*
X106203956Y-115114768D01*
X106193146Y-115111489D01*
X106181427Y-115107107D01*
X106178616Y-115105848D01*
X104791204Y-114641526D01*
X104752619Y-114617648D01*
X104329496Y-114194525D01*
X104301719Y-114140008D01*
X104300500Y-114124521D01*
X104300500Y-112714479D01*
X104319407Y-112656288D01*
X104368907Y-112620324D01*
X104430093Y-112620324D01*
X104469504Y-112644475D01*
X106867649Y-115042620D01*
X106891527Y-115081205D01*
X107251819Y-116157772D01*
X107355847Y-116468614D01*
X107358186Y-116475225D01*
X107360322Y-116480947D01*
X107360145Y-116481012D01*
X107363062Y-116488331D01*
X107364766Y-116493948D01*
X107364770Y-116493958D01*
X107462316Y-116676452D01*
X107593585Y-116836404D01*
X107593590Y-116836410D01*
X107593595Y-116836414D01*
X107753547Y-116967683D01*
X107753548Y-116967683D01*
X107753550Y-116967685D01*
X107936046Y-117065232D01*
X108073997Y-117107078D01*
X108134065Y-117125300D01*
X108134070Y-117125301D01*
X108339997Y-117145583D01*
X108340000Y-117145583D01*
X108340003Y-117145583D01*
X108545929Y-117125301D01*
X108545934Y-117125300D01*
X108743954Y-117065232D01*
X108926450Y-116967685D01*
X109086410Y-116836410D01*
X109217685Y-116676450D01*
X109315232Y-116493954D01*
X109375300Y-116295934D01*
X109375301Y-116295929D01*
X109395583Y-116090003D01*
X109395583Y-116089996D01*
X109375301Y-115884070D01*
X109375300Y-115884065D01*
X109351490Y-115805573D01*
X109315232Y-115686046D01*
X109217685Y-115503550D01*
X109086410Y-115343590D01*
X109086404Y-115343585D01*
X108926452Y-115212316D01*
X108743956Y-115114768D01*
X108733146Y-115111489D01*
X108721427Y-115107107D01*
X108718616Y-115105848D01*
X107331204Y-114641526D01*
X107292619Y-114617648D01*
X104829496Y-112154525D01*
X104801719Y-112100008D01*
X104800500Y-112084521D01*
X104800500Y-110674479D01*
X104819407Y-110616288D01*
X104868907Y-110580324D01*
X104930093Y-110580324D01*
X104969504Y-110604475D01*
X109407649Y-115042620D01*
X109431527Y-115081205D01*
X109791819Y-116157772D01*
X109895847Y-116468614D01*
X109898186Y-116475225D01*
X109900322Y-116480947D01*
X109900145Y-116481012D01*
X109903062Y-116488331D01*
X109904766Y-116493948D01*
X109904770Y-116493958D01*
X110002316Y-116676452D01*
X110133585Y-116836404D01*
X110133590Y-116836410D01*
X110133595Y-116836414D01*
X110293547Y-116967683D01*
X110293548Y-116967683D01*
X110293550Y-116967685D01*
X110476046Y-117065232D01*
X110613997Y-117107078D01*
X110674065Y-117125300D01*
X110674070Y-117125301D01*
X110879997Y-117145583D01*
X110880000Y-117145583D01*
X110880003Y-117145583D01*
X111085929Y-117125301D01*
X111085934Y-117125300D01*
X111283954Y-117065232D01*
X111466450Y-116967685D01*
X111626410Y-116836410D01*
X111757685Y-116676450D01*
X111855232Y-116493954D01*
X111915300Y-116295934D01*
X111915301Y-116295929D01*
X111935583Y-116090003D01*
X111935583Y-116089996D01*
X111915301Y-115884070D01*
X111915300Y-115884065D01*
X111891490Y-115805573D01*
X111855232Y-115686046D01*
X111757685Y-115503550D01*
X111626410Y-115343590D01*
X111626404Y-115343585D01*
X111466452Y-115212316D01*
X111283956Y-115114768D01*
X111273146Y-115111489D01*
X111261427Y-115107107D01*
X111258616Y-115105848D01*
X109871204Y-114641526D01*
X109832619Y-114617648D01*
X105329496Y-110114525D01*
X105301719Y-110060008D01*
X105300500Y-110044521D01*
X105300500Y-107536999D01*
X105319407Y-107478808D01*
X105368907Y-107442844D01*
X105399493Y-107437999D01*
X105560500Y-107437999D01*
X105618691Y-107456906D01*
X105654655Y-107506406D01*
X105659500Y-107536999D01*
X105659500Y-108895698D01*
X105679978Y-108972122D01*
X105702135Y-109010498D01*
X105702135Y-109010499D01*
X105705755Y-109016769D01*
X105719540Y-109040645D01*
X108794940Y-112116045D01*
X111865200Y-115186305D01*
X111885893Y-115216623D01*
X112443570Y-116491113D01*
X112444337Y-116492912D01*
X112444770Y-116493959D01*
X112542316Y-116676452D01*
X112673585Y-116836404D01*
X112673590Y-116836410D01*
X112673595Y-116836414D01*
X112833547Y-116967683D01*
X112833548Y-116967683D01*
X112833550Y-116967685D01*
X113016046Y-117065232D01*
X113153997Y-117107078D01*
X113214065Y-117125300D01*
X113214070Y-117125301D01*
X113419997Y-117145583D01*
X113420000Y-117145583D01*
X113420003Y-117145583D01*
X113625929Y-117125301D01*
X113625934Y-117125300D01*
X113823954Y-117065232D01*
X114006450Y-116967685D01*
X114166410Y-116836410D01*
X114297685Y-116676450D01*
X114395232Y-116493954D01*
X114455300Y-116295934D01*
X114455301Y-116295929D01*
X114475583Y-116090003D01*
X114475583Y-116089996D01*
X114455301Y-115884070D01*
X114455300Y-115884065D01*
X114431490Y-115805573D01*
X114395232Y-115686046D01*
X114297685Y-115503550D01*
X114166410Y-115343590D01*
X114166404Y-115343585D01*
X114006452Y-115212316D01*
X113823954Y-115114768D01*
X113625934Y-115054699D01*
X113625928Y-115054698D01*
X113538261Y-115046064D01*
X113526007Y-115044075D01*
X112320138Y-114769785D01*
X112272092Y-114743255D01*
X109763837Y-112235000D01*
X112039364Y-112235000D01*
X112936988Y-112235000D01*
X112904075Y-112292007D01*
X112870000Y-112419174D01*
X112870000Y-112550826D01*
X112904075Y-112677993D01*
X112936988Y-112735000D01*
X112039364Y-112735000D01*
X112096569Y-112948489D01*
X112196399Y-113162577D01*
X112331886Y-113356073D01*
X112498926Y-113523113D01*
X112692422Y-113658600D01*
X112906509Y-113758430D01*
X113120000Y-113815634D01*
X113120000Y-112918012D01*
X113177007Y-112950925D01*
X113304174Y-112985000D01*
X113435826Y-112985000D01*
X113562993Y-112950925D01*
X113620000Y-112918012D01*
X113620000Y-113815633D01*
X113833490Y-113758430D01*
X114047577Y-113658600D01*
X114241073Y-113523113D01*
X114408113Y-113356073D01*
X114543600Y-113162577D01*
X114643430Y-112948489D01*
X114700636Y-112735000D01*
X113803012Y-112735000D01*
X113835925Y-112677993D01*
X113870000Y-112550826D01*
X113870000Y-112419174D01*
X113835925Y-112292007D01*
X113803012Y-112235000D01*
X114700636Y-112235000D01*
X114643429Y-112021505D01*
X114543605Y-111807432D01*
X114543601Y-111807424D01*
X114408113Y-111613926D01*
X114241073Y-111446886D01*
X114047577Y-111311399D01*
X113833489Y-111211569D01*
X113753467Y-111190127D01*
X113702153Y-111156803D01*
X113680226Y-111099681D01*
X113696062Y-111040581D01*
X113743612Y-111002076D01*
X113779090Y-110995500D01*
X114239747Y-110995500D01*
X114239748Y-110995500D01*
X114298231Y-110983867D01*
X114364552Y-110939552D01*
X114408867Y-110873231D01*
X114420500Y-110814748D01*
X114420500Y-109075252D01*
X114408867Y-109016769D01*
X114364552Y-108950448D01*
X114319004Y-108920013D01*
X114298233Y-108906134D01*
X114298231Y-108906133D01*
X114298228Y-108906132D01*
X114298227Y-108906132D01*
X114239758Y-108894501D01*
X114239748Y-108894500D01*
X112500252Y-108894500D01*
X112500251Y-108894500D01*
X112500241Y-108894501D01*
X112441772Y-108906132D01*
X112441766Y-108906134D01*
X112375451Y-108950445D01*
X112375445Y-108950451D01*
X112331134Y-109016766D01*
X112331132Y-109016772D01*
X112319501Y-109075241D01*
X112319500Y-109075253D01*
X112319500Y-110814746D01*
X112319501Y-110814758D01*
X112331132Y-110873227D01*
X112331133Y-110873231D01*
X112375448Y-110939552D01*
X112441769Y-110983867D01*
X112486231Y-110992711D01*
X112500241Y-110995498D01*
X112500246Y-110995498D01*
X112500252Y-110995500D01*
X112500253Y-110995500D01*
X112960910Y-110995500D01*
X113019101Y-111014407D01*
X113055065Y-111063907D01*
X113055065Y-111125093D01*
X113019101Y-111174593D01*
X112986533Y-111190127D01*
X112906505Y-111211570D01*
X112692432Y-111311394D01*
X112692424Y-111311398D01*
X112498926Y-111446886D01*
X112331886Y-111613926D01*
X112196398Y-111807424D01*
X112196394Y-111807432D01*
X112096570Y-112021505D01*
X112039364Y-112235000D01*
X109763837Y-112235000D01*
X107560368Y-110031531D01*
X107532591Y-109977014D01*
X107542162Y-109916582D01*
X107585427Y-109873317D01*
X107602466Y-109866542D01*
X107634244Y-109857211D01*
X107636392Y-109856608D01*
X107693186Y-109841392D01*
X107693192Y-109841388D01*
X107699188Y-109838906D01*
X107699424Y-109839476D01*
X107709792Y-109835029D01*
X107710053Y-109834953D01*
X107758605Y-109803749D01*
X107762580Y-109801326D01*
X107807314Y-109775500D01*
X107808326Y-109774487D01*
X107824808Y-109761203D01*
X107831128Y-109757143D01*
X107864236Y-109718932D01*
X107869025Y-109713787D01*
X107900500Y-109682314D01*
X107904818Y-109674833D01*
X107915744Y-109659489D01*
X107925377Y-109648373D01*
X107943412Y-109608880D01*
X107947713Y-109600537D01*
X107966392Y-109568186D01*
X107970491Y-109552885D01*
X107976064Y-109537383D01*
X107985165Y-109517457D01*
X107990326Y-109481557D01*
X107992683Y-109470061D01*
X108000500Y-109440892D01*
X108000500Y-109417876D01*
X108001508Y-109403786D01*
X108005647Y-109375001D01*
X108005647Y-109374998D01*
X108001508Y-109346211D01*
X108000500Y-109332122D01*
X108000500Y-108434109D01*
X108000500Y-108434108D01*
X107983963Y-108372390D01*
X107983872Y-108372050D01*
X107980499Y-108346428D01*
X107980499Y-108290103D01*
X107980498Y-108290092D01*
X107973973Y-108240516D01*
X107973972Y-108240514D01*
X107973754Y-108240047D01*
X107962094Y-108215042D01*
X107955576Y-108196403D01*
X107952123Y-108182079D01*
X107952120Y-108182066D01*
X107904007Y-108077960D01*
X107809633Y-107873752D01*
X107800500Y-107832220D01*
X107800500Y-107443587D01*
X107802928Y-107421798D01*
X107844190Y-107238916D01*
X107844190Y-107238914D01*
X107844192Y-107238907D01*
X107848578Y-107200958D01*
X107849826Y-107193019D01*
X107850500Y-107189633D01*
X107850499Y-105810368D01*
X107834515Y-105730005D01*
X107834512Y-105730001D01*
X107773626Y-105638879D01*
X107773624Y-105638876D01*
X107715516Y-105600049D01*
X107682497Y-105577986D01*
X107682496Y-105577985D01*
X107682495Y-105577985D01*
X107602133Y-105562000D01*
X107602132Y-105562000D01*
X107397870Y-105562000D01*
X107397862Y-105562001D01*
X107317505Y-105577984D01*
X107317503Y-105577985D01*
X107226379Y-105638873D01*
X107226373Y-105638879D01*
X107165486Y-105730001D01*
X107165486Y-105730003D01*
X107165485Y-105730005D01*
X107153469Y-105790411D01*
X107149500Y-105810366D01*
X107149500Y-107189636D01*
X107150174Y-107193023D01*
X107151418Y-107200947D01*
X107155807Y-107238909D01*
X107155808Y-107238914D01*
X107159616Y-107255790D01*
X107186198Y-107373604D01*
X107197072Y-107421795D01*
X107199500Y-107443585D01*
X107199500Y-107832219D01*
X107190367Y-107873751D01*
X107047880Y-108182063D01*
X107047874Y-108182079D01*
X107038980Y-108210625D01*
X107034190Y-108223006D01*
X107026027Y-108240515D01*
X107019500Y-108290095D01*
X107019500Y-108346431D01*
X107016127Y-108372053D01*
X106999500Y-108434108D01*
X106999500Y-109231655D01*
X106980593Y-109289846D01*
X106931093Y-109325810D01*
X106869907Y-109325810D01*
X106830496Y-109301659D01*
X106289496Y-108760659D01*
X106261719Y-108706142D01*
X106260500Y-108690655D01*
X106260500Y-107531308D01*
X106279407Y-107473117D01*
X106328907Y-107437153D01*
X106378813Y-107434210D01*
X106397867Y-107438000D01*
X106602132Y-107437999D01*
X106682495Y-107422015D01*
X106773624Y-107361124D01*
X106834515Y-107269995D01*
X106850500Y-107189633D01*
X106850499Y-105810368D01*
X106834515Y-105730005D01*
X106834512Y-105730001D01*
X106773626Y-105638879D01*
X106773624Y-105638876D01*
X106715516Y-105600049D01*
X106682497Y-105577986D01*
X106682496Y-105577985D01*
X106682495Y-105577985D01*
X106602133Y-105562000D01*
X106602132Y-105562000D01*
X106397870Y-105562000D01*
X106397862Y-105562001D01*
X106317505Y-105577984D01*
X106317501Y-105577986D01*
X106304999Y-105586340D01*
X106246111Y-105602947D01*
X106195001Y-105586340D01*
X106182496Y-105577985D01*
X106182495Y-105577984D01*
X106102134Y-105562000D01*
X105897870Y-105562000D01*
X105897862Y-105562001D01*
X105817505Y-105577984D01*
X105817501Y-105577986D01*
X105804999Y-105586340D01*
X105746111Y-105602947D01*
X105695001Y-105586340D01*
X105682496Y-105577985D01*
X105682495Y-105577984D01*
X105602134Y-105562000D01*
X105397870Y-105562000D01*
X105397862Y-105562001D01*
X105317505Y-105577984D01*
X105317501Y-105577986D01*
X105304999Y-105586340D01*
X105246111Y-105602947D01*
X105195001Y-105586340D01*
X105182496Y-105577985D01*
X105182495Y-105577984D01*
X105102134Y-105562000D01*
X104897870Y-105562000D01*
X104897862Y-105562001D01*
X104817505Y-105577984D01*
X104817501Y-105577986D01*
X104804999Y-105586340D01*
X104746111Y-105602947D01*
X104695001Y-105586340D01*
X104682496Y-105577985D01*
X104682495Y-105577984D01*
X104602134Y-105562000D01*
X104397870Y-105562000D01*
X104397862Y-105562001D01*
X104317505Y-105577984D01*
X104317501Y-105577986D01*
X104304999Y-105586340D01*
X104246111Y-105602947D01*
X104195001Y-105586340D01*
X104182496Y-105577985D01*
X104182495Y-105577984D01*
X104102134Y-105562000D01*
X103897870Y-105562000D01*
X103897862Y-105562001D01*
X103817505Y-105577984D01*
X103817501Y-105577986D01*
X103804999Y-105586340D01*
X103746111Y-105602947D01*
X103695001Y-105586340D01*
X103682496Y-105577985D01*
X103682495Y-105577984D01*
X103602134Y-105562000D01*
X103397870Y-105562000D01*
X103397862Y-105562001D01*
X103317505Y-105577984D01*
X103317501Y-105577986D01*
X103304999Y-105586340D01*
X103246111Y-105602947D01*
X103195001Y-105586340D01*
X103182496Y-105577985D01*
X103182495Y-105577984D01*
X103102134Y-105562000D01*
X102897870Y-105562000D01*
X102897862Y-105562001D01*
X102817505Y-105577984D01*
X102817501Y-105577986D01*
X102804999Y-105586340D01*
X102746111Y-105602947D01*
X102695001Y-105586340D01*
X102682496Y-105577985D01*
X102682495Y-105577984D01*
X102602134Y-105562000D01*
X102397870Y-105562000D01*
X102397862Y-105562001D01*
X102317505Y-105577984D01*
X102317501Y-105577986D01*
X102304999Y-105586340D01*
X102246111Y-105602947D01*
X102195001Y-105586340D01*
X102182496Y-105577985D01*
X102182495Y-105577984D01*
X102102134Y-105562000D01*
X101897870Y-105562000D01*
X101897862Y-105562001D01*
X101817505Y-105577984D01*
X101817503Y-105577985D01*
X101726379Y-105638873D01*
X101726373Y-105638879D01*
X101665486Y-105730001D01*
X101665486Y-105730003D01*
X101665485Y-105730005D01*
X101653469Y-105790411D01*
X101649500Y-105810366D01*
X101649500Y-107189636D01*
X101650174Y-107193023D01*
X101651418Y-107200947D01*
X101655807Y-107238909D01*
X101655809Y-107238918D01*
X101686198Y-107373604D01*
X101680562Y-107434529D01*
X101659630Y-107465397D01*
X101554071Y-107570956D01*
X101499554Y-107598733D01*
X101457685Y-107596372D01*
X101346103Y-107565522D01*
X101346147Y-107565359D01*
X101336305Y-107561878D01*
X101329287Y-107559709D01*
X101329286Y-107559709D01*
X101259215Y-107549500D01*
X101259211Y-107549500D01*
X100795790Y-107549500D01*
X100795787Y-107549500D01*
X100795786Y-107549501D01*
X100772428Y-107552903D01*
X100725712Y-107559709D01*
X100617626Y-107612550D01*
X100532549Y-107697627D01*
X100524405Y-107714287D01*
X100479709Y-107805714D01*
X100469797Y-107873752D01*
X100469500Y-107875788D01*
X100469500Y-107896073D01*
X100461130Y-107935911D01*
X100319554Y-108257993D01*
X100295859Y-108311897D01*
X100295858Y-108311899D01*
X100263394Y-108385749D01*
X100242768Y-108415913D01*
X96313179Y-112345504D01*
X96258662Y-112373281D01*
X96243175Y-112374500D01*
X95679500Y-112374500D01*
X95621309Y-112355593D01*
X95585345Y-112306093D01*
X95580500Y-112275500D01*
X95580500Y-111805253D01*
X95580498Y-111805241D01*
X95574201Y-111773585D01*
X95568867Y-111746769D01*
X95524552Y-111680448D01*
X95479363Y-111650253D01*
X95458233Y-111636134D01*
X95458231Y-111636133D01*
X95458228Y-111636132D01*
X95458227Y-111636132D01*
X95399758Y-111624501D01*
X95399748Y-111624500D01*
X93660252Y-111624500D01*
X93660251Y-111624500D01*
X93660241Y-111624501D01*
X93601772Y-111636132D01*
X93601766Y-111636134D01*
X93535451Y-111680445D01*
X93535445Y-111680451D01*
X93491134Y-111746766D01*
X93491132Y-111746772D01*
X93479501Y-111805241D01*
X93479500Y-111805253D01*
X88750500Y-111805253D01*
X88750500Y-90499500D01*
X88769407Y-90441309D01*
X88818907Y-90405345D01*
X88849500Y-90400500D01*
X90148400Y-90400500D01*
X90206591Y-90419407D01*
G37*
G04 #@! TD.AperFunction*
G04 #@! TA.AperFunction,Conductor*
G36*
X110782404Y-99307829D02*
G01*
X110994752Y-99562507D01*
X110997418Y-99571056D01*
X110994752Y-99577493D01*
X110781936Y-99832731D01*
X110774006Y-99836890D01*
X110768471Y-99836047D01*
X110417221Y-99690492D01*
X110410890Y-99684159D01*
X110410000Y-99679683D01*
X110410000Y-99494667D01*
X110413427Y-99486394D01*
X110416385Y-99484244D01*
X110768105Y-99304898D01*
X110777030Y-99304194D01*
X110782404Y-99307829D01*
G37*
G04 #@! TD.AperFunction*
G04 #@! TA.AperFunction,Conductor*
G36*
X107600791Y-107913427D02*
G01*
X107603139Y-107916792D01*
X107765578Y-108268277D01*
X107765938Y-108277224D01*
X107762450Y-108282171D01*
X107507493Y-108494752D01*
X107498944Y-108497418D01*
X107492507Y-108494752D01*
X107380383Y-108401264D01*
X107237548Y-108282170D01*
X107233390Y-108274241D01*
X107234420Y-108268280D01*
X107396861Y-107916791D01*
X107403443Y-107910719D01*
X107407482Y-107910000D01*
X107592518Y-107910000D01*
X107600791Y-107913427D01*
G37*
G04 #@! TD.AperFunction*
G04 #@! TA.AperFunction,Conductor*
G36*
X104009787Y-106549924D02*
G01*
X104011454Y-106553947D01*
X104143772Y-107188715D01*
X104143731Y-107193678D01*
X104102059Y-107378375D01*
X104096895Y-107385691D01*
X104090646Y-107387500D01*
X103909354Y-107387500D01*
X103901081Y-107384073D01*
X103897941Y-107378375D01*
X103856268Y-107193678D01*
X103856227Y-107188715D01*
X103988546Y-106553947D01*
X103993589Y-106546548D01*
X104002388Y-106544881D01*
X104009787Y-106549924D01*
G37*
G04 #@! TD.AperFunction*
G04 #@! TA.AperFunction,Conductor*
G36*
X102509787Y-106549924D02*
G01*
X102511454Y-106553947D01*
X102643772Y-107188715D01*
X102643731Y-107193678D01*
X102602059Y-107378375D01*
X102596895Y-107385691D01*
X102590646Y-107387500D01*
X102409354Y-107387500D01*
X102401081Y-107384073D01*
X102397941Y-107378375D01*
X102356268Y-107193678D01*
X102356227Y-107188715D01*
X102488546Y-106553947D01*
X102493589Y-106546548D01*
X102502388Y-106544881D01*
X102509787Y-106549924D01*
G37*
G04 #@! TD.AperFunction*
G04 #@! TA.AperFunction,Conductor*
G36*
X95331719Y-100514420D02*
G01*
X95683208Y-100676861D01*
X95689281Y-100683443D01*
X95690000Y-100687482D01*
X95690000Y-100872517D01*
X95686573Y-100880790D01*
X95683208Y-100883138D01*
X95331722Y-101045578D01*
X95322775Y-101045938D01*
X95317829Y-101042451D01*
X95105246Y-100787491D01*
X95102581Y-100778944D01*
X95105246Y-100772508D01*
X95317830Y-100517547D01*
X95325758Y-100513390D01*
X95331719Y-100514420D01*
G37*
G04 #@! TD.AperFunction*
G04 #@! TA.AperFunction,Conductor*
G36*
X112204344Y-114954196D02*
G01*
X113731776Y-115301630D01*
X113739082Y-115306806D01*
X113740589Y-115315633D01*
X113739994Y-115317504D01*
X113422562Y-116086214D01*
X113416237Y-116092553D01*
X113416214Y-116092562D01*
X112645293Y-116410907D01*
X112636338Y-116410898D01*
X112630108Y-116404783D01*
X112059832Y-115101501D01*
X112059655Y-115092548D01*
X112062276Y-115088540D01*
X112193484Y-114957332D01*
X112201756Y-114953906D01*
X112204344Y-114954196D01*
G37*
G04 #@! TD.AperFunction*
G04 #@! TA.AperFunction,Conductor*
G36*
X102190384Y-108454220D02*
G01*
X102495324Y-108579580D01*
X102501672Y-108585895D01*
X102502189Y-108587421D01*
X102592464Y-108930190D01*
X102591257Y-108939063D01*
X102585704Y-108943947D01*
X102063536Y-109164574D01*
X102054581Y-109164638D01*
X102050709Y-109162070D01*
X101920620Y-109031981D01*
X101917193Y-109023708D01*
X101918263Y-109018820D01*
X102175307Y-108460149D01*
X102181877Y-108454067D01*
X102190384Y-108454220D01*
G37*
G04 #@! TD.AperFunction*
G04 #@! TA.AperFunction,Conductor*
G36*
X107509787Y-106549924D02*
G01*
X107511454Y-106553947D01*
X107643772Y-107188715D01*
X107643731Y-107193678D01*
X107602059Y-107378375D01*
X107596895Y-107385691D01*
X107590646Y-107387500D01*
X107409354Y-107387500D01*
X107401081Y-107384073D01*
X107397941Y-107378375D01*
X107356268Y-107193678D01*
X107356227Y-107188715D01*
X107488546Y-106553947D01*
X107493589Y-106546548D01*
X107502388Y-106544881D01*
X107509787Y-106549924D01*
G37*
G04 #@! TD.AperFunction*
G04 #@! TA.AperFunction,Conductor*
G36*
X97149690Y-101199194D02*
G01*
X97397133Y-101492455D01*
X97399849Y-101500988D01*
X97397133Y-101507545D01*
X97149690Y-101800805D01*
X97141736Y-101804918D01*
X97135547Y-101803740D01*
X96731499Y-101603225D01*
X96725612Y-101596478D01*
X96725000Y-101592745D01*
X96725000Y-101407254D01*
X96728427Y-101398981D01*
X96731495Y-101396776D01*
X97135549Y-101196258D01*
X97144481Y-101195651D01*
X97149690Y-101199194D01*
G37*
G04 #@! TD.AperFunction*
G04 #@! TA.AperFunction,Conductor*
G36*
X102098919Y-97290927D02*
G01*
X102102059Y-97296625D01*
X102143731Y-97481321D01*
X102143772Y-97486284D01*
X102011454Y-98121052D01*
X102006411Y-98128451D01*
X101997612Y-98130118D01*
X101990213Y-98125075D01*
X101988546Y-98121052D01*
X101856227Y-97486284D01*
X101856268Y-97481321D01*
X101897941Y-97296625D01*
X101903105Y-97289309D01*
X101909354Y-97287500D01*
X102090646Y-97287500D01*
X102098919Y-97290927D01*
G37*
G04 #@! TD.AperFunction*
G04 #@! TA.AperFunction,Conductor*
G36*
X103361032Y-114393427D02*
G01*
X103363230Y-114396480D01*
X104039706Y-115753502D01*
X104040330Y-115762435D01*
X104034455Y-115769193D01*
X104033724Y-115769527D01*
X103264489Y-116089134D01*
X103255534Y-116089143D01*
X103255511Y-116089134D01*
X102486275Y-115769527D01*
X102479950Y-115763188D01*
X102479959Y-115754233D01*
X102480285Y-115753518D01*
X103156770Y-114396480D01*
X103163528Y-114390605D01*
X103167241Y-114390000D01*
X103352759Y-114390000D01*
X103361032Y-114393427D01*
G37*
G04 #@! TD.AperFunction*
G04 #@! TA.AperFunction,Conductor*
G36*
X102863549Y-102307132D02*
G01*
X102869567Y-102313301D01*
X102979115Y-102575489D01*
X102979142Y-102584444D01*
X102979115Y-102584511D01*
X102869449Y-102846981D01*
X102863097Y-102853293D01*
X102854780Y-102853511D01*
X102854158Y-102853293D01*
X102715420Y-102804629D01*
X102389319Y-102690245D01*
X102382647Y-102684272D01*
X102381492Y-102679204D01*
X102381492Y-102495557D01*
X102384919Y-102487284D01*
X102389017Y-102484626D01*
X102854599Y-102306881D01*
X102863549Y-102307132D01*
G37*
G04 #@! TD.AperFunction*
G04 #@! TA.AperFunction,Conductor*
G36*
X111943495Y-95920442D02*
G01*
X113288741Y-95969588D01*
X113296883Y-95973314D01*
X113300013Y-95981266D01*
X113300990Y-96812168D01*
X113297573Y-96820445D01*
X113293763Y-96822993D01*
X112524240Y-97141335D01*
X112515285Y-97141331D01*
X112509598Y-97136310D01*
X111932901Y-96122690D01*
X111931370Y-96116904D01*
X111931370Y-95932135D01*
X111934797Y-95923862D01*
X111943070Y-95920435D01*
X111943495Y-95920442D01*
G37*
G04 #@! TD.AperFunction*
G04 #@! TA.AperFunction,Conductor*
G36*
X99928472Y-101438289D02*
G01*
X100524630Y-101573759D01*
X100531937Y-101578934D01*
X100533445Y-101587761D01*
X100528270Y-101595069D01*
X100523572Y-101596767D01*
X99857828Y-101684940D01*
X99851526Y-101684026D01*
X99764620Y-101645266D01*
X99670452Y-101603266D01*
X99664293Y-101596768D01*
X99664534Y-101587816D01*
X99666943Y-101584312D01*
X99793547Y-101457708D01*
X99800247Y-101454388D01*
X99920539Y-101438103D01*
X99922078Y-101437999D01*
X99925896Y-101437999D01*
X99928472Y-101438289D01*
G37*
G04 #@! TD.AperFunction*
G04 #@! TA.AperFunction,Conductor*
G36*
X98331390Y-103203335D02*
G01*
X98333712Y-103206079D01*
X98497275Y-103473902D01*
X98498663Y-103482749D01*
X98497275Y-103486098D01*
X98333712Y-103753920D01*
X98326476Y-103759195D01*
X98322893Y-103759492D01*
X97920866Y-103730776D01*
X97912858Y-103726769D01*
X97910000Y-103719106D01*
X97910000Y-103240893D01*
X97913427Y-103232620D01*
X97920863Y-103229224D01*
X98322894Y-103200507D01*
X98331390Y-103203335D01*
G37*
G04 #@! TD.AperFunction*
G04 #@! TA.AperFunction,Conductor*
G36*
X104509787Y-106549924D02*
G01*
X104511454Y-106553947D01*
X104643772Y-107188715D01*
X104643731Y-107193678D01*
X104602059Y-107378375D01*
X104596895Y-107385691D01*
X104590646Y-107387500D01*
X104409354Y-107387500D01*
X104401081Y-107384073D01*
X104397941Y-107378375D01*
X104356268Y-107193678D01*
X104356227Y-107188715D01*
X104488546Y-106553947D01*
X104493589Y-106546548D01*
X104502388Y-106544881D01*
X104509787Y-106549924D01*
G37*
G04 #@! TD.AperFunction*
G04 #@! TA.AperFunction,Conductor*
G36*
X101022611Y-108067764D02*
G01*
X101029687Y-108073249D01*
X101030377Y-108074674D01*
X101153303Y-108379535D01*
X101153219Y-108388489D01*
X101147218Y-108394595D01*
X100582829Y-108646317D01*
X100573877Y-108646558D01*
X100569790Y-108643905D01*
X100439716Y-108513831D01*
X100436289Y-108505558D01*
X100437278Y-108500850D01*
X100483985Y-108394595D01*
X100665940Y-107980656D01*
X100672405Y-107974463D01*
X100679732Y-107974080D01*
X101022611Y-108067764D01*
G37*
G04 #@! TD.AperFunction*
G04 #@! TA.AperFunction,Conductor*
G36*
X96345163Y-101467771D02*
G01*
X96352235Y-101473265D01*
X96352890Y-101474610D01*
X96461802Y-101739827D01*
X96461775Y-101748781D01*
X96456085Y-101754798D01*
X95979201Y-101986077D01*
X95970261Y-101986604D01*
X95965822Y-101983823D01*
X95836008Y-101854009D01*
X95832581Y-101845736D01*
X95833618Y-101840920D01*
X95879282Y-101739827D01*
X96035884Y-101393132D01*
X96042412Y-101387005D01*
X96049641Y-101386667D01*
X96345163Y-101467771D01*
G37*
G04 #@! TD.AperFunction*
G04 #@! TA.AperFunction,Conductor*
G36*
X94883094Y-100518688D02*
G01*
X95094482Y-100773212D01*
X95097131Y-100781766D01*
X95094462Y-100788185D01*
X94882228Y-101042390D01*
X94874296Y-101046545D01*
X94868238Y-101045465D01*
X94457221Y-100850746D01*
X94451211Y-100844108D01*
X94451657Y-100835164D01*
X94453954Y-100831903D01*
X94582786Y-100703071D01*
X94584642Y-100701562D01*
X94867690Y-100516371D01*
X94876486Y-100514710D01*
X94883094Y-100518688D01*
G37*
G04 #@! TD.AperFunction*
G04 #@! TA.AperFunction,Conductor*
G36*
X112979193Y-101125544D02*
G01*
X112979527Y-101126275D01*
X113299134Y-101895511D01*
X113299143Y-101904466D01*
X113299134Y-101904489D01*
X112979527Y-102673724D01*
X112973188Y-102680049D01*
X112964233Y-102680040D01*
X112963502Y-102679706D01*
X111606480Y-102003230D01*
X111600605Y-101996472D01*
X111600000Y-101992759D01*
X111600000Y-101807240D01*
X111603427Y-101798967D01*
X111606476Y-101796771D01*
X112963503Y-101120292D01*
X112972435Y-101119669D01*
X112979193Y-101125544D01*
G37*
G04 #@! TD.AperFunction*
G04 #@! TA.AperFunction,Conductor*
G36*
X100533552Y-102076046D02*
G01*
X100540951Y-102081089D01*
X100542618Y-102089888D01*
X100537575Y-102097287D01*
X100533552Y-102098954D01*
X99898784Y-102231272D01*
X99893821Y-102231231D01*
X99709125Y-102189558D01*
X99701809Y-102184394D01*
X99700000Y-102178145D01*
X99700000Y-101996854D01*
X99703427Y-101988581D01*
X99709124Y-101985441D01*
X99893821Y-101943767D01*
X99898784Y-101943727D01*
X100533552Y-102076046D01*
G37*
G04 #@! TD.AperFunction*
G04 #@! TA.AperFunction,Conductor*
G36*
X109606178Y-100443768D02*
G01*
X109694697Y-100463740D01*
X109790875Y-100485441D01*
X109798191Y-100490605D01*
X109800000Y-100496854D01*
X109800000Y-100678145D01*
X109796573Y-100686418D01*
X109790875Y-100689558D01*
X109606178Y-100731231D01*
X109601215Y-100731272D01*
X109075216Y-100621627D01*
X108966446Y-100598953D01*
X108959048Y-100593911D01*
X108957381Y-100585112D01*
X108962424Y-100577713D01*
X108966446Y-100576046D01*
X109601215Y-100443727D01*
X109606178Y-100443768D01*
G37*
G04 #@! TD.AperFunction*
G04 #@! TA.AperFunction,Conductor*
G36*
X100533552Y-103576046D02*
G01*
X100540951Y-103581089D01*
X100542618Y-103589888D01*
X100537575Y-103597287D01*
X100533552Y-103598954D01*
X99898784Y-103731272D01*
X99893821Y-103731231D01*
X99709125Y-103689558D01*
X99701809Y-103684394D01*
X99700000Y-103678145D01*
X99700000Y-103496854D01*
X99703427Y-103488581D01*
X99709124Y-103485441D01*
X99893821Y-103443767D01*
X99898784Y-103443727D01*
X100533552Y-103576046D01*
G37*
G04 #@! TD.AperFunction*
G04 #@! TA.AperFunction,Conductor*
G36*
X103009787Y-106549924D02*
G01*
X103011454Y-106553947D01*
X103143772Y-107188715D01*
X103143731Y-107193678D01*
X103102059Y-107378375D01*
X103096895Y-107385691D01*
X103090646Y-107387500D01*
X102909354Y-107387500D01*
X102901081Y-107384073D01*
X102897941Y-107378375D01*
X102856268Y-107193678D01*
X102856227Y-107188715D01*
X102988546Y-106553947D01*
X102993589Y-106546548D01*
X103002388Y-106544881D01*
X103009787Y-106549924D01*
G37*
G04 #@! TD.AperFunction*
G04 #@! TA.AperFunction,Conductor*
G36*
X100533552Y-104076046D02*
G01*
X100540951Y-104081089D01*
X100542618Y-104089888D01*
X100537575Y-104097287D01*
X100533552Y-104098954D01*
X99898784Y-104231272D01*
X99893821Y-104231231D01*
X99709125Y-104189558D01*
X99701809Y-104184394D01*
X99700000Y-104178145D01*
X99700000Y-103996854D01*
X99703427Y-103988581D01*
X99709124Y-103985441D01*
X99893821Y-103943767D01*
X99898784Y-103943727D01*
X100533552Y-104076046D01*
G37*
G04 #@! TD.AperFunction*
G04 #@! TA.AperFunction,Conductor*
G36*
X107598919Y-97290927D02*
G01*
X107602059Y-97296625D01*
X107643731Y-97481321D01*
X107643772Y-97486284D01*
X107511454Y-98121052D01*
X107506411Y-98128451D01*
X107497612Y-98130118D01*
X107490213Y-98125075D01*
X107488546Y-98121052D01*
X107356227Y-97486284D01*
X107356268Y-97481321D01*
X107397941Y-97296625D01*
X107403105Y-97289309D01*
X107409354Y-97287500D01*
X107590646Y-97287500D01*
X107598919Y-97290927D01*
G37*
G04 #@! TD.AperFunction*
G04 #@! TA.AperFunction,Conductor*
G36*
X102027491Y-96005246D02*
G01*
X102233926Y-96177369D01*
X102282130Y-96217562D01*
X102286289Y-96225492D01*
X102285031Y-96231919D01*
X102103270Y-96583671D01*
X102096428Y-96589448D01*
X102092876Y-96590000D01*
X101907866Y-96590000D01*
X101899593Y-96586573D01*
X101897031Y-96582716D01*
X101753886Y-96231499D01*
X101753937Y-96222544D01*
X101757228Y-96218097D01*
X101757870Y-96217562D01*
X102012508Y-96005246D01*
X102021056Y-96002581D01*
X102027491Y-96005246D01*
G37*
G04 #@! TD.AperFunction*
G04 #@! TA.AperFunction,Conductor*
G36*
X101281178Y-102443768D02*
G01*
X101369697Y-102463740D01*
X101465875Y-102485441D01*
X101473191Y-102490605D01*
X101475000Y-102496854D01*
X101475000Y-102678145D01*
X101471573Y-102686418D01*
X101465875Y-102689558D01*
X101281178Y-102731231D01*
X101276215Y-102731272D01*
X100750216Y-102621627D01*
X100641446Y-102598953D01*
X100634048Y-102593911D01*
X100632381Y-102585112D01*
X100637424Y-102577713D01*
X100641446Y-102576046D01*
X101276215Y-102443727D01*
X101281178Y-102443768D01*
G37*
G04 #@! TD.AperFunction*
G04 #@! TA.AperFunction,Conductor*
G36*
X98406164Y-106097824D02*
G01*
X98622372Y-106231940D01*
X98713482Y-106288457D01*
X98718706Y-106295730D01*
X98718893Y-106300087D01*
X98651460Y-106762488D01*
X98646875Y-106770180D01*
X98639882Y-106772500D01*
X98160118Y-106772500D01*
X98151845Y-106769073D01*
X98148540Y-106762488D01*
X98081106Y-106300087D01*
X98083304Y-106291406D01*
X98086515Y-106288458D01*
X98393834Y-106097824D01*
X98402669Y-106096376D01*
X98406164Y-106097824D01*
G37*
G04 #@! TD.AperFunction*
G04 #@! TA.AperFunction,Conductor*
G36*
X104675490Y-114819504D02*
G01*
X106113396Y-115300724D01*
X106120154Y-115306599D01*
X106120778Y-115315532D01*
X106120497Y-115316285D01*
X105802562Y-116086214D01*
X105796237Y-116092553D01*
X105796214Y-116092562D01*
X105026285Y-116410497D01*
X105017330Y-116410488D01*
X105011005Y-116404149D01*
X105010724Y-116403396D01*
X104906695Y-116092553D01*
X104529505Y-114965492D01*
X104530129Y-114956562D01*
X104532324Y-114953512D01*
X104663510Y-114822326D01*
X104671782Y-114818900D01*
X104675490Y-114819504D01*
G37*
G04 #@! TD.AperFunction*
G04 #@! TA.AperFunction,Conductor*
G36*
X102601018Y-107908427D02*
G01*
X102603225Y-107911499D01*
X102698280Y-108103039D01*
X102699500Y-108108240D01*
X102699500Y-108109592D01*
X102719977Y-108186014D01*
X102736158Y-108214040D01*
X102736157Y-108214040D01*
X102759537Y-108254535D01*
X102759541Y-108254540D01*
X102785825Y-108280824D01*
X102788032Y-108283896D01*
X102803740Y-108315547D01*
X102804349Y-108324481D01*
X102800805Y-108329690D01*
X102507545Y-108577133D01*
X102499012Y-108579849D01*
X102492455Y-108577133D01*
X102199194Y-108329690D01*
X102195081Y-108321736D01*
X102196258Y-108315551D01*
X102396775Y-107911499D01*
X102403522Y-107905612D01*
X102407255Y-107905000D01*
X102592745Y-107905000D01*
X102601018Y-107908427D01*
G37*
G04 #@! TD.AperFunction*
G04 #@! TA.AperFunction,Conductor*
G36*
X98647294Y-106813427D02*
G01*
X98650697Y-106820957D01*
X98674518Y-107195475D01*
X98671624Y-107203949D01*
X98669593Y-107205774D01*
X98330871Y-107445085D01*
X98322137Y-107447060D01*
X98315535Y-107443478D01*
X98042123Y-107148202D01*
X98039017Y-107139804D01*
X98039624Y-107136506D01*
X98147311Y-106817952D01*
X98153207Y-106811213D01*
X98158395Y-106810000D01*
X98639021Y-106810000D01*
X98647294Y-106813427D01*
G37*
G04 #@! TD.AperFunction*
G04 #@! TA.AperFunction,Conductor*
G36*
X107215490Y-114819504D02*
G01*
X108653396Y-115300724D01*
X108660154Y-115306599D01*
X108660778Y-115315532D01*
X108660497Y-115316285D01*
X108342562Y-116086214D01*
X108336237Y-116092553D01*
X108336214Y-116092562D01*
X107566285Y-116410497D01*
X107557330Y-116410488D01*
X107551005Y-116404149D01*
X107550724Y-116403396D01*
X107446695Y-116092553D01*
X107069505Y-114965492D01*
X107070129Y-114956562D01*
X107072324Y-114953512D01*
X107203510Y-114822326D01*
X107211782Y-114818900D01*
X107215490Y-114819504D01*
G37*
G04 #@! TD.AperFunction*
G04 #@! TA.AperFunction,Conductor*
G36*
X102009787Y-106549924D02*
G01*
X102011454Y-106553947D01*
X102143772Y-107188715D01*
X102143731Y-107193678D01*
X102102059Y-107378375D01*
X102096895Y-107385691D01*
X102090646Y-107387500D01*
X101909354Y-107387500D01*
X101901081Y-107384073D01*
X101897941Y-107378375D01*
X101856268Y-107193678D01*
X101856227Y-107188715D01*
X101988546Y-106553947D01*
X101993589Y-106546548D01*
X102002388Y-106544881D01*
X102009787Y-106549924D01*
G37*
G04 #@! TD.AperFunction*
G04 #@! TA.AperFunction,Conductor*
G36*
X98079135Y-103229223D02*
G01*
X98087142Y-103233230D01*
X98090000Y-103240893D01*
X98090000Y-103719106D01*
X98086573Y-103727379D01*
X98079134Y-103730776D01*
X97677106Y-103759492D01*
X97668609Y-103756664D01*
X97666287Y-103753920D01*
X97502724Y-103486098D01*
X97501336Y-103477251D01*
X97502724Y-103473902D01*
X97649706Y-103233230D01*
X97666287Y-103206078D01*
X97673523Y-103200804D01*
X97677102Y-103200507D01*
X98079135Y-103229223D01*
G37*
G04 #@! TD.AperFunction*
G04 #@! TA.AperFunction,Conductor*
G36*
X98779209Y-103250749D02*
G01*
X99079667Y-103479629D01*
X99085390Y-103483988D01*
X99089894Y-103491727D01*
X99090000Y-103493295D01*
X99090000Y-103677647D01*
X99086573Y-103685920D01*
X99080290Y-103689176D01*
X98677832Y-103758647D01*
X98669097Y-103756678D01*
X98665857Y-103753216D01*
X98507119Y-103493295D01*
X98504175Y-103488475D01*
X98502788Y-103479629D01*
X98506521Y-103473517D01*
X98764482Y-103251192D01*
X98772985Y-103248388D01*
X98779209Y-103250749D01*
G37*
G04 #@! TD.AperFunction*
M02*
