G04 #@! TF.GenerationSoftware,KiCad,Pcbnew,8.0.6-8.0.6-0~ubuntu24.04.1*
G04 #@! TF.CreationDate,2024-10-23T13:15:14+03:00*
G04 #@! TF.ProjectId,imager_ILI9431,696d6167-6572-45f4-994c-49393433312e,rev?*
G04 #@! TF.SameCoordinates,Original*
G04 #@! TF.FileFunction,Legend,Bot*
G04 #@! TF.FilePolarity,Positive*
%FSLAX46Y46*%
G04 Gerber Fmt 4.6, Leading zero omitted, Abs format (unit mm)*
G04 Created by KiCad (PCBNEW 8.0.6-8.0.6-0~ubuntu24.04.1) date 2024-10-23 13:15:14*
%MOMM*%
%LPD*%
G01*
G04 APERTURE LIST*
G04 Aperture macros list*
%AMRoundRect*
0 Rectangle with rounded corners*
0 $1 Rounding radius*
0 $2 $3 $4 $5 $6 $7 $8 $9 X,Y pos of 4 corners*
0 Add a 4 corners polygon primitive as box body*
4,1,4,$2,$3,$4,$5,$6,$7,$8,$9,$2,$3,0*
0 Add four circle primitives for the rounded corners*
1,1,$1+$1,$2,$3*
1,1,$1+$1,$4,$5*
1,1,$1+$1,$6,$7*
1,1,$1+$1,$8,$9*
0 Add four rect primitives between the rounded corners*
20,1,$1+$1,$2,$3,$4,$5,0*
20,1,$1+$1,$4,$5,$6,$7,0*
20,1,$1+$1,$6,$7,$8,$9,0*
20,1,$1+$1,$8,$9,$2,$3,0*%
G04 Aperture macros list end*
%ADD10C,0.150000*%
%ADD11C,0.120000*%
%ADD12R,1.700000X1.700000*%
%ADD13O,1.700000X1.700000*%
%ADD14RoundRect,0.150000X0.150000X-0.587500X0.150000X0.587500X-0.150000X0.587500X-0.150000X-0.587500X0*%
%ADD15RoundRect,0.140000X-0.170000X0.140000X-0.170000X-0.140000X0.170000X-0.140000X0.170000X0.140000X0*%
%ADD16RoundRect,0.140000X0.170000X-0.140000X0.170000X0.140000X-0.170000X0.140000X-0.170000X-0.140000X0*%
%ADD17R,0.550000X1.500000*%
%ADD18RoundRect,0.160000X0.160000X-0.197500X0.160000X0.197500X-0.160000X0.197500X-0.160000X-0.197500X0*%
%ADD19RoundRect,0.140000X-0.140000X-0.170000X0.140000X-0.170000X0.140000X0.170000X-0.140000X0.170000X0*%
G04 APERTURE END LIST*
D10*
X108704819Y-107638095D02*
X109514342Y-107638095D01*
X109514342Y-107638095D02*
X109609580Y-107685714D01*
X109609580Y-107685714D02*
X109657200Y-107733333D01*
X109657200Y-107733333D02*
X109704819Y-107828571D01*
X109704819Y-107828571D02*
X109704819Y-108019047D01*
X109704819Y-108019047D02*
X109657200Y-108114285D01*
X109657200Y-108114285D02*
X109609580Y-108161904D01*
X109609580Y-108161904D02*
X109514342Y-108209523D01*
X109514342Y-108209523D02*
X108704819Y-108209523D01*
X108800057Y-108638095D02*
X108752438Y-108685714D01*
X108752438Y-108685714D02*
X108704819Y-108780952D01*
X108704819Y-108780952D02*
X108704819Y-109019047D01*
X108704819Y-109019047D02*
X108752438Y-109114285D01*
X108752438Y-109114285D02*
X108800057Y-109161904D01*
X108800057Y-109161904D02*
X108895295Y-109209523D01*
X108895295Y-109209523D02*
X108990533Y-109209523D01*
X108990533Y-109209523D02*
X109133390Y-109161904D01*
X109133390Y-109161904D02*
X109704819Y-108590476D01*
X109704819Y-108590476D02*
X109704819Y-109209523D01*
X111159580Y-107607142D02*
X111207200Y-107559523D01*
X111207200Y-107559523D02*
X111254819Y-107416666D01*
X111254819Y-107416666D02*
X111254819Y-107321428D01*
X111254819Y-107321428D02*
X111207200Y-107178571D01*
X111207200Y-107178571D02*
X111111961Y-107083333D01*
X111111961Y-107083333D02*
X111016723Y-107035714D01*
X111016723Y-107035714D02*
X110826247Y-106988095D01*
X110826247Y-106988095D02*
X110683390Y-106988095D01*
X110683390Y-106988095D02*
X110492914Y-107035714D01*
X110492914Y-107035714D02*
X110397676Y-107083333D01*
X110397676Y-107083333D02*
X110302438Y-107178571D01*
X110302438Y-107178571D02*
X110254819Y-107321428D01*
X110254819Y-107321428D02*
X110254819Y-107416666D01*
X110254819Y-107416666D02*
X110302438Y-107559523D01*
X110302438Y-107559523D02*
X110350057Y-107607142D01*
X111254819Y-108559523D02*
X111254819Y-107988095D01*
X111254819Y-108273809D02*
X110254819Y-108273809D01*
X110254819Y-108273809D02*
X110397676Y-108178571D01*
X110397676Y-108178571D02*
X110492914Y-108083333D01*
X110492914Y-108083333D02*
X110540533Y-107988095D01*
X111254819Y-109511904D02*
X111254819Y-108940476D01*
X111254819Y-109226190D02*
X110254819Y-109226190D01*
X110254819Y-109226190D02*
X110397676Y-109130952D01*
X110397676Y-109130952D02*
X110492914Y-109035714D01*
X110492914Y-109035714D02*
X110540533Y-108940476D01*
X105159580Y-109733333D02*
X105207200Y-109685714D01*
X105207200Y-109685714D02*
X105254819Y-109542857D01*
X105254819Y-109542857D02*
X105254819Y-109447619D01*
X105254819Y-109447619D02*
X105207200Y-109304762D01*
X105207200Y-109304762D02*
X105111961Y-109209524D01*
X105111961Y-109209524D02*
X105016723Y-109161905D01*
X105016723Y-109161905D02*
X104826247Y-109114286D01*
X104826247Y-109114286D02*
X104683390Y-109114286D01*
X104683390Y-109114286D02*
X104492914Y-109161905D01*
X104492914Y-109161905D02*
X104397676Y-109209524D01*
X104397676Y-109209524D02*
X104302438Y-109304762D01*
X104302438Y-109304762D02*
X104254819Y-109447619D01*
X104254819Y-109447619D02*
X104254819Y-109542857D01*
X104254819Y-109542857D02*
X104302438Y-109685714D01*
X104302438Y-109685714D02*
X104350057Y-109733333D01*
X104254819Y-110066667D02*
X104254819Y-110685714D01*
X104254819Y-110685714D02*
X104635771Y-110352381D01*
X104635771Y-110352381D02*
X104635771Y-110495238D01*
X104635771Y-110495238D02*
X104683390Y-110590476D01*
X104683390Y-110590476D02*
X104731009Y-110638095D01*
X104731009Y-110638095D02*
X104826247Y-110685714D01*
X104826247Y-110685714D02*
X105064342Y-110685714D01*
X105064342Y-110685714D02*
X105159580Y-110638095D01*
X105159580Y-110638095D02*
X105207200Y-110590476D01*
X105207200Y-110590476D02*
X105254819Y-110495238D01*
X105254819Y-110495238D02*
X105254819Y-110209524D01*
X105254819Y-110209524D02*
X105207200Y-110114286D01*
X105207200Y-110114286D02*
X105159580Y-110066667D01*
X106409580Y-108732142D02*
X106457200Y-108684523D01*
X106457200Y-108684523D02*
X106504819Y-108541666D01*
X106504819Y-108541666D02*
X106504819Y-108446428D01*
X106504819Y-108446428D02*
X106457200Y-108303571D01*
X106457200Y-108303571D02*
X106361961Y-108208333D01*
X106361961Y-108208333D02*
X106266723Y-108160714D01*
X106266723Y-108160714D02*
X106076247Y-108113095D01*
X106076247Y-108113095D02*
X105933390Y-108113095D01*
X105933390Y-108113095D02*
X105742914Y-108160714D01*
X105742914Y-108160714D02*
X105647676Y-108208333D01*
X105647676Y-108208333D02*
X105552438Y-108303571D01*
X105552438Y-108303571D02*
X105504819Y-108446428D01*
X105504819Y-108446428D02*
X105504819Y-108541666D01*
X105504819Y-108541666D02*
X105552438Y-108684523D01*
X105552438Y-108684523D02*
X105600057Y-108732142D01*
X106504819Y-109684523D02*
X106504819Y-109113095D01*
X106504819Y-109398809D02*
X105504819Y-109398809D01*
X105504819Y-109398809D02*
X105647676Y-109303571D01*
X105647676Y-109303571D02*
X105742914Y-109208333D01*
X105742914Y-109208333D02*
X105790533Y-109113095D01*
X105600057Y-110065476D02*
X105552438Y-110113095D01*
X105552438Y-110113095D02*
X105504819Y-110208333D01*
X105504819Y-110208333D02*
X105504819Y-110446428D01*
X105504819Y-110446428D02*
X105552438Y-110541666D01*
X105552438Y-110541666D02*
X105600057Y-110589285D01*
X105600057Y-110589285D02*
X105695295Y-110636904D01*
X105695295Y-110636904D02*
X105790533Y-110636904D01*
X105790533Y-110636904D02*
X105933390Y-110589285D01*
X105933390Y-110589285D02*
X106504819Y-110017857D01*
X106504819Y-110017857D02*
X106504819Y-110636904D01*
X107138332Y-98017200D02*
X106995475Y-98064819D01*
X106995475Y-98064819D02*
X106757380Y-98064819D01*
X106757380Y-98064819D02*
X106662142Y-98017200D01*
X106662142Y-98017200D02*
X106614523Y-97969580D01*
X106614523Y-97969580D02*
X106566904Y-97874342D01*
X106566904Y-97874342D02*
X106566904Y-97779104D01*
X106566904Y-97779104D02*
X106614523Y-97683866D01*
X106614523Y-97683866D02*
X106662142Y-97636247D01*
X106662142Y-97636247D02*
X106757380Y-97588628D01*
X106757380Y-97588628D02*
X106947856Y-97541009D01*
X106947856Y-97541009D02*
X107043094Y-97493390D01*
X107043094Y-97493390D02*
X107090713Y-97445771D01*
X107090713Y-97445771D02*
X107138332Y-97350533D01*
X107138332Y-97350533D02*
X107138332Y-97255295D01*
X107138332Y-97255295D02*
X107090713Y-97160057D01*
X107090713Y-97160057D02*
X107043094Y-97112438D01*
X107043094Y-97112438D02*
X106947856Y-97064819D01*
X106947856Y-97064819D02*
X106709761Y-97064819D01*
X106709761Y-97064819D02*
X106566904Y-97112438D01*
X106233570Y-97064819D02*
X105995475Y-98064819D01*
X105995475Y-98064819D02*
X105804999Y-97350533D01*
X105804999Y-97350533D02*
X105614523Y-98064819D01*
X105614523Y-98064819D02*
X105376428Y-97064819D01*
X105090713Y-97064819D02*
X104471666Y-97064819D01*
X104471666Y-97064819D02*
X104804999Y-97445771D01*
X104804999Y-97445771D02*
X104662142Y-97445771D01*
X104662142Y-97445771D02*
X104566904Y-97493390D01*
X104566904Y-97493390D02*
X104519285Y-97541009D01*
X104519285Y-97541009D02*
X104471666Y-97636247D01*
X104471666Y-97636247D02*
X104471666Y-97874342D01*
X104471666Y-97874342D02*
X104519285Y-97969580D01*
X104519285Y-97969580D02*
X104566904Y-98017200D01*
X104566904Y-98017200D02*
X104662142Y-98064819D01*
X104662142Y-98064819D02*
X104947856Y-98064819D01*
X104947856Y-98064819D02*
X105043094Y-98017200D01*
X105043094Y-98017200D02*
X105090713Y-97969580D01*
X105844819Y-103223333D02*
X105368628Y-102890000D01*
X105844819Y-102651905D02*
X104844819Y-102651905D01*
X104844819Y-102651905D02*
X104844819Y-103032857D01*
X104844819Y-103032857D02*
X104892438Y-103128095D01*
X104892438Y-103128095D02*
X104940057Y-103175714D01*
X104940057Y-103175714D02*
X105035295Y-103223333D01*
X105035295Y-103223333D02*
X105178152Y-103223333D01*
X105178152Y-103223333D02*
X105273390Y-103175714D01*
X105273390Y-103175714D02*
X105321009Y-103128095D01*
X105321009Y-103128095D02*
X105368628Y-103032857D01*
X105368628Y-103032857D02*
X105368628Y-102651905D01*
X104844819Y-104128095D02*
X104844819Y-103651905D01*
X104844819Y-103651905D02*
X105321009Y-103604286D01*
X105321009Y-103604286D02*
X105273390Y-103651905D01*
X105273390Y-103651905D02*
X105225771Y-103747143D01*
X105225771Y-103747143D02*
X105225771Y-103985238D01*
X105225771Y-103985238D02*
X105273390Y-104080476D01*
X105273390Y-104080476D02*
X105321009Y-104128095D01*
X105321009Y-104128095D02*
X105416247Y-104175714D01*
X105416247Y-104175714D02*
X105654342Y-104175714D01*
X105654342Y-104175714D02*
X105749580Y-104128095D01*
X105749580Y-104128095D02*
X105797200Y-104080476D01*
X105797200Y-104080476D02*
X105844819Y-103985238D01*
X105844819Y-103985238D02*
X105844819Y-103747143D01*
X105844819Y-103747143D02*
X105797200Y-103651905D01*
X105797200Y-103651905D02*
X105749580Y-103604286D01*
X102832857Y-101799580D02*
X102880476Y-101847200D01*
X102880476Y-101847200D02*
X103023333Y-101894819D01*
X103023333Y-101894819D02*
X103118571Y-101894819D01*
X103118571Y-101894819D02*
X103261428Y-101847200D01*
X103261428Y-101847200D02*
X103356666Y-101751961D01*
X103356666Y-101751961D02*
X103404285Y-101656723D01*
X103404285Y-101656723D02*
X103451904Y-101466247D01*
X103451904Y-101466247D02*
X103451904Y-101323390D01*
X103451904Y-101323390D02*
X103404285Y-101132914D01*
X103404285Y-101132914D02*
X103356666Y-101037676D01*
X103356666Y-101037676D02*
X103261428Y-100942438D01*
X103261428Y-100942438D02*
X103118571Y-100894819D01*
X103118571Y-100894819D02*
X103023333Y-100894819D01*
X103023333Y-100894819D02*
X102880476Y-100942438D01*
X102880476Y-100942438D02*
X102832857Y-100990057D01*
X101880476Y-101894819D02*
X102451904Y-101894819D01*
X102166190Y-101894819D02*
X102166190Y-100894819D01*
X102166190Y-100894819D02*
X102261428Y-101037676D01*
X102261428Y-101037676D02*
X102356666Y-101132914D01*
X102356666Y-101132914D02*
X102451904Y-101180533D01*
X101547142Y-100894819D02*
X100928095Y-100894819D01*
X100928095Y-100894819D02*
X101261428Y-101275771D01*
X101261428Y-101275771D02*
X101118571Y-101275771D01*
X101118571Y-101275771D02*
X101023333Y-101323390D01*
X101023333Y-101323390D02*
X100975714Y-101371009D01*
X100975714Y-101371009D02*
X100928095Y-101466247D01*
X100928095Y-101466247D02*
X100928095Y-101704342D01*
X100928095Y-101704342D02*
X100975714Y-101799580D01*
X100975714Y-101799580D02*
X101023333Y-101847200D01*
X101023333Y-101847200D02*
X101118571Y-101894819D01*
X101118571Y-101894819D02*
X101404285Y-101894819D01*
X101404285Y-101894819D02*
X101499523Y-101847200D01*
X101499523Y-101847200D02*
X101547142Y-101799580D01*
D11*
X106892500Y-110710000D02*
X106892500Y-111360000D01*
X106892500Y-112010000D02*
X106892500Y-111360000D01*
X110012500Y-110710000D02*
X110012500Y-111360000D01*
X110012500Y-112010000D02*
X110012500Y-111360000D01*
X110292500Y-112762500D02*
X109962500Y-112522500D01*
X110292500Y-112282500D01*
X110292500Y-112762500D01*
G36*
X110292500Y-112762500D02*
G01*
X109962500Y-112522500D01*
X110292500Y-112282500D01*
X110292500Y-112762500D01*
G37*
X110540000Y-110587836D02*
X110540000Y-110372164D01*
X111260000Y-110587836D02*
X111260000Y-110372164D01*
X104610000Y-111712164D02*
X104610000Y-111927836D01*
X105330000Y-111712164D02*
X105330000Y-111927836D01*
X105690000Y-111702164D02*
X105690000Y-111917836D01*
X106410000Y-111702164D02*
X106410000Y-111917836D01*
X104185000Y-98490000D02*
X107425000Y-98490000D01*
X104185000Y-98590000D02*
X104185000Y-98490000D01*
X104185000Y-100730000D02*
X104185000Y-100630000D01*
X104185000Y-100730000D02*
X107425000Y-100730000D01*
X107425000Y-98590000D02*
X107425000Y-98490000D01*
X107425000Y-100730000D02*
X107425000Y-100630000D01*
X103800000Y-103012379D02*
X103800000Y-103347621D01*
X104560000Y-103012379D02*
X104560000Y-103347621D01*
X104777836Y-101060000D02*
X104562164Y-101060000D01*
X104777836Y-101780000D02*
X104562164Y-101780000D01*
%LPC*%
D12*
X94530000Y-112675000D03*
D13*
X94530000Y-115215000D03*
D12*
X113370000Y-109945000D03*
D13*
X113370000Y-112485000D03*
D12*
X98180000Y-116090000D03*
D13*
X100720000Y-116090000D03*
X103260000Y-116090000D03*
X105800000Y-116090000D03*
X108340000Y-116090000D03*
X110880000Y-116090000D03*
X113420000Y-116090000D03*
D12*
X100730000Y-112520000D03*
D13*
X98190000Y-112520000D03*
D12*
X113300000Y-94280000D03*
D13*
X113300000Y-96820000D03*
X113300000Y-99360000D03*
X113300000Y-101900000D03*
D14*
X109402500Y-112297500D03*
X107502500Y-112297500D03*
X108452500Y-110422500D03*
D15*
X110900000Y-110000000D03*
X110900000Y-110960000D03*
D16*
X104970000Y-112300000D03*
X104970000Y-111340000D03*
X106050000Y-112290000D03*
X106050000Y-111330000D03*
D17*
X107430000Y-99610000D03*
X104180000Y-99610000D03*
D18*
X104180000Y-103777500D03*
X104180000Y-102582500D03*
D19*
X104190000Y-101420000D03*
X105150000Y-101420000D03*
%LPD*%
M02*
